<?xml version="1.0" encoding="utf-8" standalone="no"?>
<!DOCTYPE svg PUBLIC "-//W3C//DTD SVG 1.1//EN"
  "http://www.w3.org/Graphics/SVG/1.1/DTD/svg11.dtd">
<svg xmlns:xlink="http://www.w3.org/1999/xlink" width="432pt" height="216pt" viewBox="0 0 432 216" xmlns="http://www.w3.org/2000/svg" version="1.1">
 <metadata>
  <rdf:RDF xmlns:dc="http://purl.org/dc/elements/1.1/" xmlns:cc="http://creativecommons.org/ns#" xmlns:rdf="http://www.w3.org/1999/02/22-rdf-syntax-ns#">
   <cc:Work>
    <dc:type rdf:resource="http://purl.org/dc/dcmitype/StillImage"/>
    <dc:date>2024-04-05T20:05:22.170323</dc:date>
    <dc:format>image/svg+xml</dc:format>
    <dc:creator>
     <cc:Agent>
      <dc:title>Matplotlib v3.5.2, https://matplotlib.org/</dc:title>
     </cc:Agent>
    </dc:creator>
   </cc:Work>
  </rdf:RDF>
 </metadata>
 <defs>
  <style type="text/css">*{stroke-linejoin: round; stroke-linecap: butt}</style>
 </defs>
 <g id="figure_1">
  <g id="patch_1">
   <path d="M 0 216 
L 432 216 
L 432 0 
L 0 0 
z
" style="fill: #ffffff"/>
  </g>
  <g id="axes_1">
   <g id="patch_2">
    <path d="M 54 192.24 
L 388.8 192.24 
L 388.8 25.92 
L 54 25.92 
z
" style="fill: #ffffff"/>
   </g>
   <g id="PolyCollection_1">
    <defs>
     <path id="mabc51a6e13" d="M 69.218182 -27.452215 
L 69.218182 -23.76 
L 85.237321 -23.76 
L 101.256459 -23.76 
L 117.275598 -23.76 
L 133.294737 -23.76 
L 149.313876 -23.76 
L 165.333014 -23.76 
L 181.352153 -23.76 
L 197.371292 -23.76 
L 213.390431 -23.76 
L 229.409569 -23.76 
L 245.428708 -23.76 
L 261.447847 -23.76 
L 277.466986 -23.76 
L 293.486124 -23.76 
L 309.505263 -23.76 
L 325.524402 -23.76 
L 341.543541 -23.76 
L 357.562679 -23.76 
L 373.581818 -23.76 
L 373.581818 -23.781095 
L 373.581818 -23.781095 
L 357.562679 -23.787183 
L 341.543541 -29.449191 
L 325.524402 -30.705898 
L 309.505263 -33.712212 
L 293.486124 -31.94045 
L 277.466986 -23.780773 
L 261.447847 -23.768551 
L 245.428708 -23.76546 
L 229.409569 -23.765763 
L 213.390431 -23.767497 
L 197.371292 -23.769332 
L 181.352153 -23.767207 
L 165.333014 -23.764098 
L 149.313876 -23.765499 
L 133.294737 -23.765764 
L 117.275598 -23.766696 
L 101.256459 -23.771988 
L 85.237321 -24.991005 
L 69.218182 -27.452215 
z
" style="stroke: #1f77b4"/>
    </defs>
    <g clip-path="url(#p9337ae79dd)">
     <use xlink:href="#mabc51a6e13" x="0" y="216" style="fill: #1f77b4; stroke: #1f77b4"/>
    </g>
   </g>
   <g id="PolyCollection_2">
    <defs>
     <path id="m4912360314" d="M 69.218182 -31.49949 
L 69.218182 -27.452215 
L 85.237321 -24.991005 
L 101.256459 -23.771988 
L 117.275598 -23.766696 
L 133.294737 -23.765764 
L 149.313876 -23.765499 
L 165.333014 -23.764098 
L 181.352153 -23.767207 
L 197.371292 -23.769332 
L 213.390431 -23.767497 
L 229.409569 -23.765763 
L 245.428708 -23.76546 
L 261.447847 -23.768551 
L 277.466986 -23.780773 
L 293.486124 -31.94045 
L 309.505263 -33.712212 
L 325.524402 -30.705898 
L 341.543541 -29.449191 
L 357.562679 -23.787183 
L 373.581818 -23.781095 
L 373.581818 -23.800686 
L 373.581818 -23.800686 
L 357.562679 -31.723603 
L 341.543541 -35.730547 
L 325.524402 -36.072003 
L 309.505263 -33.72413 
L 293.486124 -31.961437 
L 277.466986 -23.79707 
L 261.447847 -23.775627 
L 245.428708 -23.783168 
L 229.409569 -23.771432 
L 213.390431 -23.77192 
L 197.371292 -23.77447 
L 181.352153 -23.771315 
L 165.333014 -23.769922 
L 149.313876 -23.767877 
L 133.294737 -23.773159 
L 117.275598 -23.784975 
L 101.256459 -28.475798 
L 85.237321 -25.003637 
L 69.218182 -31.49949 
z
" style="stroke: #ff7f0e"/>
    </defs>
    <g clip-path="url(#p9337ae79dd)">
     <use xlink:href="#m4912360314" x="0" y="216" style="fill: #ff7f0e; stroke: #ff7f0e"/>
    </g>
   </g>
   <g id="PolyCollection_3">
    <defs>
     <path id="m472dde8f70" d="M 69.218182 -31.531331 
L 69.218182 -31.49949 
L 85.237321 -25.003637 
L 101.256459 -28.475798 
L 117.275598 -23.784975 
L 133.294737 -23.773159 
L 149.313876 -23.767877 
L 165.333014 -23.769922 
L 181.352153 -23.771315 
L 197.371292 -23.77447 
L 213.390431 -23.77192 
L 229.409569 -23.771432 
L 245.428708 -23.783168 
L 261.447847 -23.775627 
L 277.466986 -23.79707 
L 293.486124 -31.961437 
L 309.505263 -33.72413 
L 325.524402 -36.072003 
L 341.543541 -35.730547 
L 357.562679 -31.723603 
L 373.581818 -23.800686 
L 373.581818 -23.839039 
L 373.581818 -23.839039 
L 357.562679 -31.754617 
L 341.543541 -35.769638 
L 325.524402 -36.095872 
L 309.505263 -33.745398 
L 293.486124 -32.014196 
L 277.466986 -23.833718 
L 261.447847 -23.785867 
L 245.428708 -23.79316 
L 229.409569 -23.776975 
L 213.390431 -23.778069 
L 197.371292 -23.783279 
L 181.352153 -23.776739 
L 165.333014 -23.778109 
L 149.313876 -23.771731 
L 133.294737 -23.799066 
L 117.275598 -45.96894 
L 101.256459 -36.585809 
L 85.237321 -26.549066 
L 69.218182 -31.531331 
z
" style="stroke: #2ca02c"/>
    </defs>
    <g clip-path="url(#p9337ae79dd)">
     <use xlink:href="#m472dde8f70" x="0" y="216" style="fill: #2ca02c; stroke: #2ca02c"/>
    </g>
   </g>
   <g id="PolyCollection_4">
    <defs>
     <path id="m90f978ae4d" d="M 69.218182 -31.559239 
L 69.218182 -31.531331 
L 85.237321 -26.549066 
L 101.256459 -36.585809 
L 117.275598 -45.96894 
L 133.294737 -23.799066 
L 149.313876 -23.771731 
L 165.333014 -23.778109 
L 181.352153 -23.776739 
L 197.371292 -23.783279 
L 213.390431 -23.778069 
L 229.409569 -23.776975 
L 245.428708 -23.79316 
L 261.447847 -23.785867 
L 277.466986 -23.833718 
L 293.486124 -32.014196 
L 309.505263 -33.745398 
L 325.524402 -36.095872 
L 341.543541 -35.769638 
L 357.562679 -31.754617 
L 373.581818 -23.839039 
L 373.581818 -34.815399 
L 373.581818 -34.815399 
L 357.562679 -41.517817 
L 341.543541 -74.064316 
L 325.524402 -71.000047 
L 309.505263 -59.061718 
L 293.486124 -47.327371 
L 277.466986 -43.472277 
L 261.447847 -46.667509 
L 245.428708 -62.195994 
L 229.409569 -52.124605 
L 213.390431 -43.768875 
L 197.371292 -23.830933 
L 181.352153 -23.795951 
L 165.333014 -23.797426 
L 149.313876 -23.790463 
L 133.294737 -23.818039 
L 117.275598 -45.993489 
L 101.256459 -36.607321 
L 85.237321 -26.56331 
L 69.218182 -31.559239 
z
" style="stroke: #d62728"/>
    </defs>
    <g clip-path="url(#p9337ae79dd)">
     <use xlink:href="#m90f978ae4d" x="0" y="216" style="fill: #d62728; stroke: #d62728"/>
    </g>
   </g>
   <g id="PolyCollection_5">
    <defs>
     <path id="m7cfc9ff138" d="M 69.218182 -31.608539 
L 69.218182 -31.559239 
L 85.237321 -26.56331 
L 101.256459 -36.607321 
L 117.275598 -45.993489 
L 133.294737 -23.818039 
L 149.313876 -23.790463 
L 165.333014 -23.797426 
L 181.352153 -23.795951 
L 197.371292 -23.830933 
L 213.390431 -43.768875 
L 229.409569 -52.124605 
L 245.428708 -62.195994 
L 261.447847 -46.667509 
L 277.466986 -43.472277 
L 293.486124 -47.327371 
L 309.505263 -59.061718 
L 325.524402 -71.000047 
L 341.543541 -74.064316 
L 357.562679 -41.517817 
L 373.581818 -34.815399 
L 373.581818 -34.857246 
L 373.581818 -34.857246 
L 357.562679 -41.555464 
L 341.543541 -74.101491 
L 325.524402 -71.023118 
L 309.505263 -59.089683 
L 293.486124 -69.516594 
L 277.466986 -43.518708 
L 261.447847 -51.262329 
L 245.428708 -62.215038 
L 229.409569 -52.145133 
L 213.390431 -43.786104 
L 197.371292 -23.850023 
L 181.352153 -23.808703 
L 165.333014 -23.813996 
L 149.313876 -23.799112 
L 133.294737 -23.833183 
L 117.275598 -46.030122 
L 101.256459 -36.646552 
L 85.237321 -26.585018 
L 69.218182 -31.608539 
z
" style="stroke: #9467bd"/>
    </defs>
    <g clip-path="url(#p9337ae79dd)">
     <use xlink:href="#m7cfc9ff138" x="0" y="216" style="fill: #9467bd; stroke: #9467bd"/>
    </g>
   </g>
   <g id="PolyCollection_6">
    <defs>
     <path id="m07d9ddb070" d="M 69.218182 -47.046104 
L 69.218182 -31.608539 
L 85.237321 -26.585018 
L 101.256459 -36.646552 
L 117.275598 -46.030122 
L 133.294737 -23.833183 
L 149.313876 -23.799112 
L 165.333014 -23.813996 
L 181.352153 -23.808703 
L 197.371292 -23.850023 
L 213.390431 -43.786104 
L 229.409569 -52.145133 
L 245.428708 -62.215038 
L 261.447847 -51.262329 
L 277.466986 -43.518708 
L 293.486124 -69.516594 
L 309.505263 -59.089683 
L 325.524402 -71.023118 
L 341.543541 -74.101491 
L 357.562679 -41.555464 
L 373.581818 -34.857246 
L 373.581818 -34.916636 
L 373.581818 -34.916636 
L 357.562679 -41.620258 
L 341.543541 -74.154235 
L 325.524402 -85.766685 
L 309.505263 -94.374261 
L 293.486124 -90.236439 
L 277.466986 -85.733565 
L 261.447847 -88.189083 
L 245.428708 -110.167121 
L 229.409569 -87.578644 
L 213.390431 -43.802584 
L 197.371292 -24.506301 
L 181.352153 -23.822942 
L 165.333014 -23.829417 
L 149.313876 -23.806509 
L 133.294737 -26.093267 
L 117.275598 -72.674634 
L 101.256459 -42.660909 
L 85.237321 -51.964457 
L 69.218182 -47.046104 
z
" style="stroke: #8c564b"/>
    </defs>
    <g clip-path="url(#p9337ae79dd)">
     <use xlink:href="#m07d9ddb070" x="0" y="216" style="fill: #8c564b; stroke: #8c564b"/>
    </g>
   </g>
   <g id="PolyCollection_7">
    <defs>
     <path id="m0fac84d5e1" d="M 69.218182 -73.567016 
L 69.218182 -47.046104 
L 85.237321 -51.964457 
L 101.256459 -42.660909 
L 117.275598 -72.674634 
L 133.294737 -26.093267 
L 149.313876 -23.806509 
L 165.333014 -23.829417 
L 181.352153 -23.822942 
L 197.371292 -24.506301 
L 213.390431 -43.802584 
L 229.409569 -87.578644 
L 245.428708 -110.167121 
L 261.447847 -88.189083 
L 277.466986 -85.733565 
L 293.486124 -90.236439 
L 309.505263 -94.374261 
L 325.524402 -85.766685 
L 341.543541 -74.154235 
L 357.562679 -41.620258 
L 373.581818 -34.916636 
L 373.581818 -53.692861 
L 373.581818 -53.692861 
L 357.562679 -56.102505 
L 341.543541 -74.521914 
L 325.524402 -85.794947 
L 309.505263 -94.403864 
L 293.486124 -90.293799 
L 277.466986 -85.767198 
L 261.447847 -89.632839 
L 245.428708 -112.504364 
L 229.409569 -104.60203 
L 213.390431 -79.231093 
L 197.371292 -72.041488 
L 181.352153 -71.336587 
L 165.333014 -73.276915 
L 149.313876 -75.438069 
L 133.294737 -80.941574 
L 117.275598 -111.503304 
L 101.256459 -76.77671 
L 85.237321 -93.497081 
L 69.218182 -73.567016 
z
" style="stroke: #e377c2"/>
    </defs>
    <g clip-path="url(#p9337ae79dd)">
     <use xlink:href="#m0fac84d5e1" x="0" y="216" style="fill: #e377c2; stroke: #e377c2"/>
    </g>
   </g>
   <g id="PolyCollection_8">
    <defs>
     <path id="mbe4d981651" d="M 69.218182 -77.850975 
L 69.218182 -73.567016 
L 85.237321 -93.497081 
L 101.256459 -76.77671 
L 117.275598 -111.503304 
L 133.294737 -80.941574 
L 149.313876 -75.438069 
L 165.333014 -73.276915 
L 181.352153 -71.336587 
L 197.371292 -72.041488 
L 213.390431 -79.231093 
L 229.409569 -104.60203 
L 245.428708 -112.504364 
L 261.447847 -89.632839 
L 277.466986 -85.767198 
L 293.486124 -90.293799 
L 309.505263 -94.403864 
L 325.524402 -85.794947 
L 341.543541 -74.521914 
L 357.562679 -56.102505 
L 373.581818 -53.692861 
L 373.581818 -53.717365 
L 373.581818 -53.717365 
L 357.562679 -56.130696 
L 341.543541 -74.565528 
L 325.524402 -85.826949 
L 309.505263 -94.413194 
L 293.486124 -90.316036 
L 277.466986 -85.779164 
L 261.447847 -89.639035 
L 245.428708 -112.510671 
L 229.409569 -104.604959 
L 213.390431 -79.23314 
L 197.371292 -72.044011 
L 181.352153 -71.338399 
L 165.333014 -73.27927 
L 149.313876 -75.439672 
L 133.294737 -80.945837 
L 117.275598 -111.513758 
L 101.256459 -84.356863 
L 85.237321 -93.51619 
L 69.218182 -77.850975 
z
" style="stroke: #7f7f7f"/>
    </defs>
    <g clip-path="url(#p9337ae79dd)">
     <use xlink:href="#mbe4d981651" x="0" y="216" style="fill: #7f7f7f; stroke: #7f7f7f"/>
    </g>
   </g>
   <g id="PolyCollection_9">
    <defs>
     <path id="mda40766562" d="M 69.218182 -102.307923 
L 69.218182 -77.850975 
L 85.237321 -93.51619 
L 101.256459 -84.356863 
L 117.275598 -111.513758 
L 133.294737 -80.945837 
L 149.313876 -75.439672 
L 165.333014 -73.27927 
L 181.352153 -71.338399 
L 197.371292 -72.044011 
L 213.390431 -79.23314 
L 229.409569 -104.604959 
L 245.428708 -112.510671 
L 261.447847 -89.639035 
L 277.466986 -85.779164 
L 293.486124 -90.316036 
L 309.505263 -94.413194 
L 325.524402 -85.826949 
L 341.543541 -74.565528 
L 357.562679 -56.130696 
L 373.581818 -53.717365 
L 373.581818 -111.927716 
L 373.581818 -111.927716 
L 357.562679 -88.749194 
L 341.543541 -109.912322 
L 325.524402 -106.858282 
L 309.505263 -94.443807 
L 293.486124 -107.056372 
L 277.466986 -103.696427 
L 261.447847 -93.586903 
L 245.428708 -115.6032 
L 229.409569 -104.608485 
L 213.390431 -79.236678 
L 197.371292 -72.048474 
L 181.352153 -71.341694 
L 165.333014 -73.28468 
L 149.313876 -75.442523 
L 133.294737 -80.962767 
L 117.275598 -121.916034 
L 101.256459 -100.411599 
L 85.237321 -115.665285 
L 69.218182 -102.307923 
z
" style="stroke: #bcbd22"/>
    </defs>
    <g clip-path="url(#p9337ae79dd)">
     <use xlink:href="#mda40766562" x="0" y="216" style="fill: #bcbd22; stroke: #bcbd22"/>
    </g>
   </g>
   <g id="PolyCollection_10">
    <defs>
     <path id="mb2d3456bb2" d="M 69.218182 -102.339719 
L 69.218182 -102.307923 
L 85.237321 -115.665285 
L 101.256459 -100.411599 
L 117.275598 -121.916034 
L 133.294737 -80.962767 
L 149.313876 -75.442523 
L 165.333014 -73.28468 
L 181.352153 -71.341694 
L 197.371292 -72.048474 
L 213.390431 -79.236678 
L 229.409569 -104.608485 
L 245.428708 -115.6032 
L 261.447847 -93.586903 
L 277.466986 -103.696427 
L 293.486124 -107.056372 
L 309.505263 -94.443807 
L 325.524402 -106.858282 
L 341.543541 -109.912322 
L 357.562679 -88.749194 
L 373.581818 -111.927716 
L 373.581818 -111.966925 
L 373.581818 -111.966925 
L 357.562679 -90.838424 
L 341.543541 -109.960395 
L 325.524402 -106.890609 
L 309.505263 -94.455953 
L 293.486124 -107.082736 
L 277.466986 -103.721133 
L 261.447847 -93.59354 
L 245.428708 -115.609179 
L 229.409569 -104.611769 
L 213.390431 -79.241783 
L 197.371292 -72.054533 
L 181.352153 -71.345964 
L 165.333014 -73.291464 
L 149.313876 -75.445836 
L 133.294737 -80.971812 
L 117.275598 -121.935303 
L 101.256459 -100.445404 
L 85.237321 -115.683906 
L 69.218182 -102.339719 
z
" style="stroke: #17becf"/>
    </defs>
    <g clip-path="url(#p9337ae79dd)">
     <use xlink:href="#mb2d3456bb2" x="0" y="216" style="fill: #17becf; stroke: #17becf"/>
    </g>
   </g>
   <g id="PolyCollection_11">
    <defs>
     <path id="m4b12b5efdc" d="M 69.218182 -102.392129 
L 69.218182 -102.339719 
L 85.237321 -115.683906 
L 101.256459 -100.445404 
L 117.275598 -121.935303 
L 133.294737 -80.971812 
L 149.313876 -75.445836 
L 165.333014 -73.291464 
L 181.352153 -71.345964 
L 197.371292 -72.054533 
L 213.390431 -79.241783 
L 229.409569 -104.611769 
L 245.428708 -115.609179 
L 261.447847 -93.59354 
L 277.466986 -103.721133 
L 293.486124 -107.082736 
L 309.505263 -94.455953 
L 325.524402 -106.890609 
L 341.543541 -109.960395 
L 357.562679 -90.838424 
L 373.581818 -111.966925 
L 373.581818 -112.006834 
L 373.581818 -112.006834 
L 357.562679 -91.543108 
L 341.543541 -113.012693 
L 325.524402 -106.909036 
L 309.505263 -100.28923 
L 293.486124 -112.589194 
L 277.466986 -112.355826 
L 261.447847 -93.630857 
L 245.428708 -115.625742 
L 229.409569 -104.630579 
L 213.390431 -79.251563 
L 197.371292 -72.06521 
L 181.352153 -71.353515 
L 165.333014 -73.315376 
L 149.313876 -75.455674 
L 133.294737 -80.986996 
L 117.275598 -121.957063 
L 101.256459 -100.494388 
L 85.237321 -115.706803 
L 69.218182 -102.392129 
z
" style="stroke: #1f77b4"/>
    </defs>
    <g clip-path="url(#p9337ae79dd)">
     <use xlink:href="#m4b12b5efdc" x="0" y="216" style="fill: #1f77b4; stroke: #1f77b4"/>
    </g>
   </g>
   <g id="PolyCollection_12">
    <defs>
     <path id="m7b948b2aaf" d="M 69.218182 -102.414376 
L 69.218182 -102.392129 
L 85.237321 -115.706803 
L 101.256459 -100.494388 
L 117.275598 -121.957063 
L 133.294737 -80.986996 
L 149.313876 -75.455674 
L 165.333014 -73.315376 
L 181.352153 -71.353515 
L 197.371292 -72.06521 
L 213.390431 -79.251563 
L 229.409569 -104.630579 
L 245.428708 -115.625742 
L 261.447847 -93.630857 
L 277.466986 -112.355826 
L 293.486124 -112.589194 
L 309.505263 -100.28923 
L 325.524402 -106.909036 
L 341.543541 -113.012693 
L 357.562679 -91.543108 
L 373.581818 -112.006834 
L 373.581818 -125.539133 
L 373.581818 -125.539133 
L 357.562679 -118.579866 
L 341.543541 -132.930356 
L 325.524402 -117.378965 
L 309.505263 -125.722483 
L 293.486124 -128.666591 
L 277.466986 -116.515398 
L 261.447847 -124.486891 
L 245.428708 -146.195625 
L 229.409569 -148.38935 
L 213.390431 -89.454668 
L 197.371292 -84.776634 
L 181.352153 -93.854221 
L 165.333014 -92.714394 
L 149.313876 -89.404334 
L 133.294737 -83.537935 
L 117.275598 -121.980199 
L 101.256459 -100.514216 
L 85.237321 -115.719198 
L 69.218182 -102.414376 
z
" style="stroke: #ff7f0e"/>
    </defs>
    <g clip-path="url(#p9337ae79dd)">
     <use xlink:href="#m7b948b2aaf" x="0" y="216" style="fill: #ff7f0e; stroke: #ff7f0e"/>
    </g>
   </g>
   <g id="PolyCollection_13">
    <defs>
     <path id="m1fab81f67f" d="M 69.218182 -110.380551 
L 69.218182 -102.414376 
L 85.237321 -115.719198 
L 101.256459 -100.514216 
L 117.275598 -121.980199 
L 133.294737 -83.537935 
L 149.313876 -89.404334 
L 165.333014 -92.714394 
L 181.352153 -93.854221 
L 197.371292 -84.776634 
L 213.390431 -89.454668 
L 229.409569 -148.38935 
L 245.428708 -146.195625 
L 261.447847 -124.486891 
L 277.466986 -116.515398 
L 293.486124 -128.666591 
L 309.505263 -125.722483 
L 325.524402 -117.378965 
L 341.543541 -132.930356 
L 357.562679 -118.579866 
L 373.581818 -125.539133 
L 373.581818 -125.58507 
L 373.581818 -125.58507 
L 357.562679 -118.621632 
L 341.543541 -132.976384 
L 325.524402 -117.40702 
L 309.505263 -125.74652 
L 293.486124 -128.720459 
L 277.466986 -116.559384 
L 261.447847 -124.502735 
L 245.428708 -146.209541 
L 229.409569 -148.401096 
L 213.390431 -89.466569 
L 197.371292 -84.788584 
L 181.352153 -93.861806 
L 165.333014 -92.725101 
L 149.313876 -89.408717 
L 133.294737 -103.860152 
L 117.275598 -129.033762 
L 101.256459 -100.534547 
L 85.237321 -122.686696 
L 69.218182 -110.380551 
z
" style="stroke: #2ca02c"/>
    </defs>
    <g clip-path="url(#p9337ae79dd)">
     <use xlink:href="#m1fab81f67f" x="0" y="216" style="fill: #2ca02c; stroke: #2ca02c"/>
    </g>
   </g>
   <g id="PolyCollection_14">
    <defs>
     <path id="m81edc0c972" d="M 69.218182 -148.255129 
L 69.218182 -110.380551 
L 85.237321 -122.686696 
L 101.256459 -100.534547 
L 117.275598 -129.033762 
L 133.294737 -103.860152 
L 149.313876 -89.408717 
L 165.333014 -92.725101 
L 181.352153 -93.861806 
L 197.371292 -84.788584 
L 213.390431 -89.466569 
L 229.409569 -148.401096 
L 245.428708 -146.209541 
L 261.447847 -124.502735 
L 277.466986 -116.559384 
L 293.486124 -128.720459 
L 309.505263 -125.74652 
L 325.524402 -117.40702 
L 341.543541 -132.976384 
L 357.562679 -118.621632 
L 373.581818 -125.58507 
L 373.581818 -125.638744 
L 373.581818 -125.638744 
L 357.562679 -118.671791 
L 341.543541 -133.017759 
L 325.524402 -117.429868 
L 309.505263 -125.785516 
L 293.486124 -128.785462 
L 277.466986 -116.60725 
L 261.447847 -131.521961 
L 245.428708 -146.22497 
L 229.409569 -148.416767 
L 213.390431 -89.480037 
L 197.371292 -84.807014 
L 181.352153 -93.875901 
L 165.333014 -92.741162 
L 149.313876 -89.416926 
L 133.294737 -103.87587 
L 117.275598 -147.265248 
L 101.256459 -135.03499 
L 85.237321 -143.384743 
L 69.218182 -148.255129 
z
" style="stroke: #d62728"/>
    </defs>
    <g clip-path="url(#p9337ae79dd)">
     <use xlink:href="#m81edc0c972" x="0" y="216" style="fill: #d62728; stroke: #d62728"/>
    </g>
   </g>
   <g id="PolyCollection_15">
    <defs>
     <path id="m2a01a51b15" d="M 69.218182 -148.283865 
L 69.218182 -148.255129 
L 85.237321 -143.384743 
L 101.256459 -135.03499 
L 117.275598 -147.265248 
L 133.294737 -103.87587 
L 149.313876 -89.416926 
L 165.333014 -92.741162 
L 181.352153 -93.875901 
L 197.371292 -84.807014 
L 213.390431 -89.480037 
L 229.409569 -148.416767 
L 245.428708 -146.22497 
L 261.447847 -131.521961 
L 277.466986 -116.60725 
L 293.486124 -128.785462 
L 309.505263 -125.785516 
L 325.524402 -117.429868 
L 341.543541 -133.017759 
L 357.562679 -118.671791 
L 373.581818 -125.638744 
L 373.581818 -125.668778 
L 373.581818 -125.668778 
L 357.562679 -118.70499 
L 341.543541 -133.373934 
L 325.524402 -117.446636 
L 309.505263 -125.805894 
L 293.486124 -128.823946 
L 277.466986 -122.697236 
L 261.447847 -131.535753 
L 245.428708 -146.237113 
L 229.409569 -150.229224 
L 213.390431 -112.618572 
L 197.371292 -110.803877 
L 181.352153 -128.836918 
L 165.333014 -134.247094 
L 149.313876 -117.586326 
L 133.294737 -127.493538 
L 117.275598 -153.581013 
L 101.256459 -135.059157 
L 85.237321 -143.400442 
L 69.218182 -148.283865 
z
" style="stroke: #9467bd"/>
    </defs>
    <g clip-path="url(#p9337ae79dd)">
     <use xlink:href="#m2a01a51b15" x="0" y="216" style="fill: #9467bd; stroke: #9467bd"/>
    </g>
   </g>
   <g id="PolyCollection_16">
    <defs>
     <path id="m26d2e98706" d="M 69.218182 -151.203858 
L 69.218182 -148.283865 
L 85.237321 -143.400442 
L 101.256459 -135.059157 
L 117.275598 -153.581013 
L 133.294737 -127.493538 
L 149.313876 -117.586326 
L 165.333014 -134.247094 
L 181.352153 -128.836918 
L 197.371292 -110.803877 
L 213.390431 -112.618572 
L 229.409569 -150.229224 
L 245.428708 -146.237113 
L 261.447847 -131.535753 
L 277.466986 -122.697236 
L 293.486124 -128.823946 
L 309.505263 -125.805894 
L 325.524402 -117.446636 
L 341.543541 -133.373934 
L 357.562679 -118.70499 
L 373.581818 -125.668778 
L 373.581818 -125.681063 
L 373.581818 -125.681063 
L 357.562679 -118.722223 
L 341.543541 -133.399546 
L 325.524402 -117.460659 
L 309.505263 -125.817399 
L 293.486124 -128.846774 
L 277.466986 -122.741301 
L 261.447847 -131.543464 
L 245.428708 -146.243344 
L 229.409569 -150.23691 
L 213.390431 -112.625554 
L 197.371292 -110.811547 
L 181.352153 -128.842556 
L 165.333014 -134.254454 
L 149.313876 -117.590975 
L 133.294737 -127.504725 
L 117.275598 -155.565498 
L 101.256459 -136.491742 
L 85.237321 -149.216029 
L 69.218182 -151.203858 
z
" style="stroke: #8c564b"/>
    </defs>
    <g clip-path="url(#p9337ae79dd)">
     <use xlink:href="#m26d2e98706" x="0" y="216" style="fill: #8c564b; stroke: #8c564b"/>
    </g>
   </g>
   <g id="PolyCollection_17">
    <defs>
     <path id="mfe40216ccf" d="M 69.218182 -163.501513 
L 69.218182 -151.203858 
L 85.237321 -149.216029 
L 101.256459 -136.491742 
L 117.275598 -155.565498 
L 133.294737 -127.504725 
L 149.313876 -117.590975 
L 165.333014 -134.254454 
L 181.352153 -128.842556 
L 197.371292 -110.811547 
L 213.390431 -112.625554 
L 229.409569 -150.23691 
L 245.428708 -146.243344 
L 261.447847 -131.543464 
L 277.466986 -122.741301 
L 293.486124 -128.846774 
L 309.505263 -125.817399 
L 325.524402 -117.460659 
L 341.543541 -133.399546 
L 357.562679 -118.722223 
L 373.581818 -125.681063 
L 373.581818 -154.508339 
L 373.581818 -154.508339 
L 357.562679 -155.516724 
L 341.543541 -168.352155 
L 325.524402 -138.431351 
L 309.505263 -135.825968 
L 293.486124 -159.663665 
L 277.466986 -159.375924 
L 261.447847 -171.034499 
L 245.428708 -177.715976 
L 229.409569 -177.270956 
L 213.390431 -172.767779 
L 197.371292 -173.87717 
L 181.352153 -179.910809 
L 165.333014 -180.610361 
L 149.313876 -172.508816 
L 133.294737 -173.903043 
L 117.275598 -161.369272 
L 101.256459 -161.71307 
L 85.237321 -170.803339 
L 69.218182 -163.501513 
z
" style="stroke: #e377c2"/>
    </defs>
    <g clip-path="url(#p9337ae79dd)">
     <use xlink:href="#mfe40216ccf" x="0" y="216" style="fill: #e377c2; stroke: #e377c2"/>
    </g>
   </g>
   <g id="PolyCollection_18">
    <defs>
     <path id="m7fedc64831" d="M 69.218182 -173.89415 
L 69.218182 -163.501513 
L 85.237321 -170.803339 
L 101.256459 -161.71307 
L 117.275598 -161.369272 
L 133.294737 -173.903043 
L 149.313876 -172.508816 
L 165.333014 -180.610361 
L 181.352153 -179.910809 
L 197.371292 -173.87717 
L 213.390431 -172.767779 
L 229.409569 -177.270956 
L 245.428708 -177.715976 
L 261.447847 -171.034499 
L 277.466986 -159.375924 
L 293.486124 -159.663665 
L 309.505263 -135.825968 
L 325.524402 -138.431351 
L 341.543541 -168.352155 
L 357.562679 -155.516724 
L 373.581818 -154.508339 
L 373.581818 -154.560479 
L 373.581818 -154.560479 
L 357.562679 -163.913603 
L 341.543541 -168.397247 
L 325.524402 -138.460866 
L 309.505263 -135.850038 
L 293.486124 -159.718513 
L 277.466986 -159.413402 
L 261.447847 -171.052689 
L 245.428708 -177.732993 
L 229.409569 -180.296206 
L 213.390431 -180.268798 
L 197.371292 -173.890328 
L 181.352153 -179.919302 
L 165.333014 -180.622006 
L 149.313876 -172.515296 
L 133.294737 -173.915621 
L 117.275598 -161.389758 
L 101.256459 -163.323638 
L 85.237321 -170.87265 
L 69.218182 -173.89415 
z
" style="stroke: #7f7f7f"/>
    </defs>
    <g clip-path="url(#p9337ae79dd)">
     <use xlink:href="#m7fedc64831" x="0" y="216" style="fill: #7f7f7f; stroke: #7f7f7f"/>
    </g>
   </g>
   <g id="PolyCollection_19">
    <defs>
     <path id="mfb57e4bcc5" d="M 69.218182 -173.926944 
L 69.218182 -173.89415 
L 85.237321 -170.87265 
L 101.256459 -163.323638 
L 117.275598 -161.389758 
L 133.294737 -173.915621 
L 149.313876 -172.515296 
L 165.333014 -180.622006 
L 181.352153 -179.919302 
L 197.371292 -173.890328 
L 213.390431 -180.268798 
L 229.409569 -180.296206 
L 245.428708 -177.732993 
L 261.447847 -171.052689 
L 277.466986 -159.413402 
L 293.486124 -159.718513 
L 309.505263 -135.850038 
L 325.524402 -138.460866 
L 341.543541 -168.397247 
L 357.562679 -163.913603 
L 373.581818 -154.560479 
L 373.581818 -176.459225 
L 373.581818 -176.459225 
L 357.562679 -176.644124 
L 341.543541 -178.51148 
L 325.524402 -166.453195 
L 309.505263 -165.270611 
L 293.486124 -162.869293 
L 277.466986 -159.456891 
L 261.447847 -171.087126 
L 245.428708 -177.750716 
L 229.409569 -180.317347 
L 213.390431 -180.2898 
L 197.371292 -173.909798 
L 181.352153 -179.931388 
L 165.333014 -180.636613 
L 149.313876 -172.523491 
L 133.294737 -173.928774 
L 117.275598 -161.40819 
L 101.256459 -169.077476 
L 85.237321 -170.889287 
L 69.218182 -173.926944 
z
" style="stroke: #bcbd22"/>
    </defs>
    <g clip-path="url(#p9337ae79dd)">
     <use xlink:href="#mfb57e4bcc5" x="0" y="216" style="fill: #bcbd22; stroke: #bcbd22"/>
    </g>
   </g>
   <g id="PolyCollection_20">
    <defs>
     <path id="m81149c61ab" d="M 69.218182 -182.16 
L 69.218182 -173.926944 
L 85.237321 -170.889287 
L 101.256459 -169.077476 
L 117.275598 -161.40819 
L 133.294737 -173.928774 
L 149.313876 -172.523491 
L 165.333014 -180.636613 
L 181.352153 -179.931388 
L 197.371292 -173.909798 
L 213.390431 -180.2898 
L 229.409569 -180.317347 
L 245.428708 -177.750716 
L 261.447847 -171.087126 
L 277.466986 -159.456891 
L 293.486124 -162.869293 
L 309.505263 -165.270611 
L 325.524402 -166.453195 
L 341.543541 -178.51148 
L 357.562679 -176.644124 
L 373.581818 -176.459225 
L 373.581818 -182.16 
L 373.581818 -182.16 
L 357.562679 -182.16 
L 341.543541 -182.16 
L 325.524402 -182.16 
L 309.505263 -182.16 
L 293.486124 -182.16 
L 277.466986 -182.16 
L 261.447847 -182.16 
L 245.428708 -182.16 
L 229.409569 -182.16 
L 213.390431 -182.16 
L 197.371292 -182.16 
L 181.352153 -182.16 
L 165.333014 -182.16 
L 149.313876 -182.16 
L 133.294737 -182.16 
L 117.275598 -182.16 
L 101.256459 -182.16 
L 85.237321 -182.16 
L 69.218182 -182.16 
z
" style="stroke: #17becf"/>
    </defs>
    <g clip-path="url(#p9337ae79dd)">
     <use xlink:href="#m81149c61ab" x="0" y="216" style="fill: #17becf; stroke: #17becf"/>
    </g>
   </g>
   <g id="matplotlib.axis_1">
    <g id="xtick_1">
     <g id="line2d_1">
      <defs>
       <path id="m13957a738a" d="M 0 0 
L 0 3.5 
" style="stroke: #000000; stroke-width: 0.8"/>
      </defs>
      <g>
       <use xlink:href="#m13957a738a" x="93.24689" y="192.24" style="stroke: #000000; stroke-width: 0.8"/>
      </g>
     </g>
     <g id="text_1">
      <!-- 2.5 -->
      <g transform="translate(85.295327 206.838437)scale(0.1 -0.1)">
       <defs>
        <path id="DejaVuSans-32" d="M 1228 531 
L 3431 531 
L 3431 0 
L 469 0 
L 469 531 
Q 828 903 1448 1529 
Q 2069 2156 2228 2338 
Q 2531 2678 2651 2914 
Q 2772 3150 2772 3378 
Q 2772 3750 2511 3984 
Q 2250 4219 1831 4219 
Q 1534 4219 1204 4116 
Q 875 4013 500 3803 
L 500 4441 
Q 881 4594 1212 4672 
Q 1544 4750 1819 4750 
Q 2544 4750 2975 4387 
Q 3406 4025 3406 3419 
Q 3406 3131 3298 2873 
Q 3191 2616 2906 2266 
Q 2828 2175 2409 1742 
Q 1991 1309 1228 531 
z
" transform="scale(0.015625)"/>
        <path id="DejaVuSans-2e" d="M 684 794 
L 1344 794 
L 1344 0 
L 684 0 
L 684 794 
z
" transform="scale(0.015625)"/>
        <path id="DejaVuSans-35" d="M 691 4666 
L 3169 4666 
L 3169 4134 
L 1269 4134 
L 1269 2991 
Q 1406 3038 1543 3061 
Q 1681 3084 1819 3084 
Q 2600 3084 3056 2656 
Q 3513 2228 3513 1497 
Q 3513 744 3044 326 
Q 2575 -91 1722 -91 
Q 1428 -91 1123 -41 
Q 819 9 494 109 
L 494 744 
Q 775 591 1075 516 
Q 1375 441 1709 441 
Q 2250 441 2565 725 
Q 2881 1009 2881 1497 
Q 2881 1984 2565 2268 
Q 2250 2553 1709 2553 
Q 1456 2553 1204 2497 
Q 953 2441 691 2322 
L 691 4666 
z
" transform="scale(0.015625)"/>
       </defs>
       <use xlink:href="#DejaVuSans-32"/>
       <use xlink:href="#DejaVuSans-2e" x="63.623047"/>
       <use xlink:href="#DejaVuSans-35" x="95.410156"/>
      </g>
     </g>
    </g>
    <g id="xtick_2">
     <g id="line2d_2">
      <g>
       <use xlink:href="#m13957a738a" x="133.294737" y="192.24" style="stroke: #000000; stroke-width: 0.8"/>
      </g>
     </g>
     <g id="text_2">
      <!-- 5.0 -->
      <g transform="translate(125.343174 206.838437)scale(0.1 -0.1)">
       <defs>
        <path id="DejaVuSans-30" d="M 2034 4250 
Q 1547 4250 1301 3770 
Q 1056 3291 1056 2328 
Q 1056 1369 1301 889 
Q 1547 409 2034 409 
Q 2525 409 2770 889 
Q 3016 1369 3016 2328 
Q 3016 3291 2770 3770 
Q 2525 4250 2034 4250 
z
M 2034 4750 
Q 2819 4750 3233 4129 
Q 3647 3509 3647 2328 
Q 3647 1150 3233 529 
Q 2819 -91 2034 -91 
Q 1250 -91 836 529 
Q 422 1150 422 2328 
Q 422 3509 836 4129 
Q 1250 4750 2034 4750 
z
" transform="scale(0.015625)"/>
       </defs>
       <use xlink:href="#DejaVuSans-35"/>
       <use xlink:href="#DejaVuSans-2e" x="63.623047"/>
       <use xlink:href="#DejaVuSans-30" x="95.410156"/>
      </g>
     </g>
    </g>
    <g id="xtick_3">
     <g id="line2d_3">
      <g>
       <use xlink:href="#m13957a738a" x="173.342584" y="192.24" style="stroke: #000000; stroke-width: 0.8"/>
      </g>
     </g>
     <g id="text_3">
      <!-- 7.5 -->
      <g transform="translate(165.391021 206.838437)scale(0.1 -0.1)">
       <defs>
        <path id="DejaVuSans-37" d="M 525 4666 
L 3525 4666 
L 3525 4397 
L 1831 0 
L 1172 0 
L 2766 4134 
L 525 4134 
L 525 4666 
z
" transform="scale(0.015625)"/>
       </defs>
       <use xlink:href="#DejaVuSans-37"/>
       <use xlink:href="#DejaVuSans-2e" x="63.623047"/>
       <use xlink:href="#DejaVuSans-35" x="95.410156"/>
      </g>
     </g>
    </g>
    <g id="xtick_4">
     <g id="line2d_4">
      <g>
       <use xlink:href="#m13957a738a" x="213.390431" y="192.24" style="stroke: #000000; stroke-width: 0.8"/>
      </g>
     </g>
     <g id="text_4">
      <!-- 10.0 -->
      <g transform="translate(202.257618 206.838437)scale(0.1 -0.1)">
       <defs>
        <path id="DejaVuSans-31" d="M 794 531 
L 1825 531 
L 1825 4091 
L 703 3866 
L 703 4441 
L 1819 4666 
L 2450 4666 
L 2450 531 
L 3481 531 
L 3481 0 
L 794 0 
L 794 531 
z
" transform="scale(0.015625)"/>
       </defs>
       <use xlink:href="#DejaVuSans-31"/>
       <use xlink:href="#DejaVuSans-30" x="63.623047"/>
       <use xlink:href="#DejaVuSans-2e" x="127.246094"/>
       <use xlink:href="#DejaVuSans-30" x="159.033203"/>
      </g>
     </g>
    </g>
    <g id="xtick_5">
     <g id="line2d_5">
      <g>
       <use xlink:href="#m13957a738a" x="253.438278" y="192.24" style="stroke: #000000; stroke-width: 0.8"/>
      </g>
     </g>
     <g id="text_5">
      <!-- 12.5 -->
      <g transform="translate(242.305465 206.838437)scale(0.1 -0.1)">
       <use xlink:href="#DejaVuSans-31"/>
       <use xlink:href="#DejaVuSans-32" x="63.623047"/>
       <use xlink:href="#DejaVuSans-2e" x="127.246094"/>
       <use xlink:href="#DejaVuSans-35" x="159.033203"/>
      </g>
     </g>
    </g>
    <g id="xtick_6">
     <g id="line2d_6">
      <g>
       <use xlink:href="#m13957a738a" x="293.486124" y="192.24" style="stroke: #000000; stroke-width: 0.8"/>
      </g>
     </g>
     <g id="text_6">
      <!-- 15.0 -->
      <g transform="translate(282.353312 206.838437)scale(0.1 -0.1)">
       <use xlink:href="#DejaVuSans-31"/>
       <use xlink:href="#DejaVuSans-35" x="63.623047"/>
       <use xlink:href="#DejaVuSans-2e" x="127.246094"/>
       <use xlink:href="#DejaVuSans-30" x="159.033203"/>
      </g>
     </g>
    </g>
    <g id="xtick_7">
     <g id="line2d_7">
      <g>
       <use xlink:href="#m13957a738a" x="333.533971" y="192.24" style="stroke: #000000; stroke-width: 0.8"/>
      </g>
     </g>
     <g id="text_7">
      <!-- 17.5 -->
      <g transform="translate(322.401159 206.838437)scale(0.1 -0.1)">
       <use xlink:href="#DejaVuSans-31"/>
       <use xlink:href="#DejaVuSans-37" x="63.623047"/>
       <use xlink:href="#DejaVuSans-2e" x="127.246094"/>
       <use xlink:href="#DejaVuSans-35" x="159.033203"/>
      </g>
     </g>
    </g>
    <g id="xtick_8">
     <g id="line2d_8">
      <g>
       <use xlink:href="#m13957a738a" x="373.581818" y="192.24" style="stroke: #000000; stroke-width: 0.8"/>
      </g>
     </g>
     <g id="text_8">
      <!-- 20.0 -->
      <g transform="translate(362.449006 206.838437)scale(0.1 -0.1)">
       <use xlink:href="#DejaVuSans-32"/>
       <use xlink:href="#DejaVuSans-30" x="63.623047"/>
       <use xlink:href="#DejaVuSans-2e" x="127.246094"/>
       <use xlink:href="#DejaVuSans-30" x="159.033203"/>
      </g>
     </g>
    </g>
    <g id="text_9">
     <!-- Rebalance Period -->
     <g transform="translate(178.210938 220.516562)scale(0.1 -0.1)">
      <defs>
       <path id="DejaVuSans-52" d="M 2841 2188 
Q 3044 2119 3236 1894 
Q 3428 1669 3622 1275 
L 4263 0 
L 3584 0 
L 2988 1197 
Q 2756 1666 2539 1819 
Q 2322 1972 1947 1972 
L 1259 1972 
L 1259 0 
L 628 0 
L 628 4666 
L 2053 4666 
Q 2853 4666 3247 4331 
Q 3641 3997 3641 3322 
Q 3641 2881 3436 2590 
Q 3231 2300 2841 2188 
z
M 1259 4147 
L 1259 2491 
L 2053 2491 
Q 2509 2491 2742 2702 
Q 2975 2913 2975 3322 
Q 2975 3731 2742 3939 
Q 2509 4147 2053 4147 
L 1259 4147 
z
" transform="scale(0.015625)"/>
       <path id="DejaVuSans-65" d="M 3597 1894 
L 3597 1613 
L 953 1613 
Q 991 1019 1311 708 
Q 1631 397 2203 397 
Q 2534 397 2845 478 
Q 3156 559 3463 722 
L 3463 178 
Q 3153 47 2828 -22 
Q 2503 -91 2169 -91 
Q 1331 -91 842 396 
Q 353 884 353 1716 
Q 353 2575 817 3079 
Q 1281 3584 2069 3584 
Q 2775 3584 3186 3129 
Q 3597 2675 3597 1894 
z
M 3022 2063 
Q 3016 2534 2758 2815 
Q 2500 3097 2075 3097 
Q 1594 3097 1305 2825 
Q 1016 2553 972 2059 
L 3022 2063 
z
" transform="scale(0.015625)"/>
       <path id="DejaVuSans-62" d="M 3116 1747 
Q 3116 2381 2855 2742 
Q 2594 3103 2138 3103 
Q 1681 3103 1420 2742 
Q 1159 2381 1159 1747 
Q 1159 1113 1420 752 
Q 1681 391 2138 391 
Q 2594 391 2855 752 
Q 3116 1113 3116 1747 
z
M 1159 2969 
Q 1341 3281 1617 3432 
Q 1894 3584 2278 3584 
Q 2916 3584 3314 3078 
Q 3713 2572 3713 1747 
Q 3713 922 3314 415 
Q 2916 -91 2278 -91 
Q 1894 -91 1617 61 
Q 1341 213 1159 525 
L 1159 0 
L 581 0 
L 581 4863 
L 1159 4863 
L 1159 2969 
z
" transform="scale(0.015625)"/>
       <path id="DejaVuSans-61" d="M 2194 1759 
Q 1497 1759 1228 1600 
Q 959 1441 959 1056 
Q 959 750 1161 570 
Q 1363 391 1709 391 
Q 2188 391 2477 730 
Q 2766 1069 2766 1631 
L 2766 1759 
L 2194 1759 
z
M 3341 1997 
L 3341 0 
L 2766 0 
L 2766 531 
Q 2569 213 2275 61 
Q 1981 -91 1556 -91 
Q 1019 -91 701 211 
Q 384 513 384 1019 
Q 384 1609 779 1909 
Q 1175 2209 1959 2209 
L 2766 2209 
L 2766 2266 
Q 2766 2663 2505 2880 
Q 2244 3097 1772 3097 
Q 1472 3097 1187 3025 
Q 903 2953 641 2809 
L 641 3341 
Q 956 3463 1253 3523 
Q 1550 3584 1831 3584 
Q 2591 3584 2966 3190 
Q 3341 2797 3341 1997 
z
" transform="scale(0.015625)"/>
       <path id="DejaVuSans-6c" d="M 603 4863 
L 1178 4863 
L 1178 0 
L 603 0 
L 603 4863 
z
" transform="scale(0.015625)"/>
       <path id="DejaVuSans-6e" d="M 3513 2113 
L 3513 0 
L 2938 0 
L 2938 2094 
Q 2938 2591 2744 2837 
Q 2550 3084 2163 3084 
Q 1697 3084 1428 2787 
Q 1159 2491 1159 1978 
L 1159 0 
L 581 0 
L 581 3500 
L 1159 3500 
L 1159 2956 
Q 1366 3272 1645 3428 
Q 1925 3584 2291 3584 
Q 2894 3584 3203 3211 
Q 3513 2838 3513 2113 
z
" transform="scale(0.015625)"/>
       <path id="DejaVuSans-63" d="M 3122 3366 
L 3122 2828 
Q 2878 2963 2633 3030 
Q 2388 3097 2138 3097 
Q 1578 3097 1268 2742 
Q 959 2388 959 1747 
Q 959 1106 1268 751 
Q 1578 397 2138 397 
Q 2388 397 2633 464 
Q 2878 531 3122 666 
L 3122 134 
Q 2881 22 2623 -34 
Q 2366 -91 2075 -91 
Q 1284 -91 818 406 
Q 353 903 353 1747 
Q 353 2603 823 3093 
Q 1294 3584 2113 3584 
Q 2378 3584 2631 3529 
Q 2884 3475 3122 3366 
z
" transform="scale(0.015625)"/>
       <path id="DejaVuSans-20" transform="scale(0.015625)"/>
       <path id="DejaVuSans-50" d="M 1259 4147 
L 1259 2394 
L 2053 2394 
Q 2494 2394 2734 2622 
Q 2975 2850 2975 3272 
Q 2975 3691 2734 3919 
Q 2494 4147 2053 4147 
L 1259 4147 
z
M 628 4666 
L 2053 4666 
Q 2838 4666 3239 4311 
Q 3641 3956 3641 3272 
Q 3641 2581 3239 2228 
Q 2838 1875 2053 1875 
L 1259 1875 
L 1259 0 
L 628 0 
L 628 4666 
z
" transform="scale(0.015625)"/>
       <path id="DejaVuSans-72" d="M 2631 2963 
Q 2534 3019 2420 3045 
Q 2306 3072 2169 3072 
Q 1681 3072 1420 2755 
Q 1159 2438 1159 1844 
L 1159 0 
L 581 0 
L 581 3500 
L 1159 3500 
L 1159 2956 
Q 1341 3275 1631 3429 
Q 1922 3584 2338 3584 
Q 2397 3584 2469 3576 
Q 2541 3569 2628 3553 
L 2631 2963 
z
" transform="scale(0.015625)"/>
       <path id="DejaVuSans-69" d="M 603 3500 
L 1178 3500 
L 1178 0 
L 603 0 
L 603 3500 
z
M 603 4863 
L 1178 4863 
L 1178 4134 
L 603 4134 
L 603 4863 
z
" transform="scale(0.015625)"/>
       <path id="DejaVuSans-6f" d="M 1959 3097 
Q 1497 3097 1228 2736 
Q 959 2375 959 1747 
Q 959 1119 1226 758 
Q 1494 397 1959 397 
Q 2419 397 2687 759 
Q 2956 1122 2956 1747 
Q 2956 2369 2687 2733 
Q 2419 3097 1959 3097 
z
M 1959 3584 
Q 2709 3584 3137 3096 
Q 3566 2609 3566 1747 
Q 3566 888 3137 398 
Q 2709 -91 1959 -91 
Q 1206 -91 779 398 
Q 353 888 353 1747 
Q 353 2609 779 3096 
Q 1206 3584 1959 3584 
z
" transform="scale(0.015625)"/>
       <path id="DejaVuSans-64" d="M 2906 2969 
L 2906 4863 
L 3481 4863 
L 3481 0 
L 2906 0 
L 2906 525 
Q 2725 213 2448 61 
Q 2172 -91 1784 -91 
Q 1150 -91 751 415 
Q 353 922 353 1747 
Q 353 2572 751 3078 
Q 1150 3584 1784 3584 
Q 2172 3584 2448 3432 
Q 2725 3281 2906 2969 
z
M 947 1747 
Q 947 1113 1208 752 
Q 1469 391 1925 391 
Q 2381 391 2643 752 
Q 2906 1113 2906 1747 
Q 2906 2381 2643 2742 
Q 2381 3103 1925 3103 
Q 1469 3103 1208 2742 
Q 947 2381 947 1747 
z
" transform="scale(0.015625)"/>
      </defs>
      <use xlink:href="#DejaVuSans-52"/>
      <use xlink:href="#DejaVuSans-65" x="64.982422"/>
      <use xlink:href="#DejaVuSans-62" x="126.505859"/>
      <use xlink:href="#DejaVuSans-61" x="189.982422"/>
      <use xlink:href="#DejaVuSans-6c" x="251.261719"/>
      <use xlink:href="#DejaVuSans-61" x="279.044922"/>
      <use xlink:href="#DejaVuSans-6e" x="340.324219"/>
      <use xlink:href="#DejaVuSans-63" x="403.703125"/>
      <use xlink:href="#DejaVuSans-65" x="458.683594"/>
      <use xlink:href="#DejaVuSans-20" x="520.207031"/>
      <use xlink:href="#DejaVuSans-50" x="551.994141"/>
      <use xlink:href="#DejaVuSans-65" x="608.671875"/>
      <use xlink:href="#DejaVuSans-72" x="670.195312"/>
      <use xlink:href="#DejaVuSans-69" x="711.308594"/>
      <use xlink:href="#DejaVuSans-6f" x="739.091797"/>
      <use xlink:href="#DejaVuSans-64" x="800.273438"/>
     </g>
    </g>
   </g>
   <g id="matplotlib.axis_2">
    <g id="ytick_1">
     <g id="line2d_9">
      <defs>
       <path id="mc832ca2fb1" d="M 0 0 
L -3.5 0 
" style="stroke: #000000; stroke-width: 0.8"/>
      </defs>
      <g>
       <use xlink:href="#mc832ca2fb1" x="54" y="192.24" style="stroke: #000000; stroke-width: 0.8"/>
      </g>
     </g>
     <g id="text_10">
      <!-- 0.0 -->
      <g transform="translate(31.096875 196.039219)scale(0.1 -0.1)">
       <use xlink:href="#DejaVuSans-30"/>
       <use xlink:href="#DejaVuSans-2e" x="63.623047"/>
       <use xlink:href="#DejaVuSans-30" x="95.410156"/>
      </g>
     </g>
    </g>
    <g id="ytick_2">
     <g id="line2d_10">
      <g>
       <use xlink:href="#mc832ca2fb1" x="54" y="160.56" style="stroke: #000000; stroke-width: 0.8"/>
      </g>
     </g>
     <g id="text_11">
      <!-- 0.2 -->
      <g transform="translate(31.096875 164.359219)scale(0.1 -0.1)">
       <use xlink:href="#DejaVuSans-30"/>
       <use xlink:href="#DejaVuSans-2e" x="63.623047"/>
       <use xlink:href="#DejaVuSans-32" x="95.410156"/>
      </g>
     </g>
    </g>
    <g id="ytick_3">
     <g id="line2d_11">
      <g>
       <use xlink:href="#mc832ca2fb1" x="54" y="128.88" style="stroke: #000000; stroke-width: 0.8"/>
      </g>
     </g>
     <g id="text_12">
      <!-- 0.4 -->
      <g transform="translate(31.096875 132.679219)scale(0.1 -0.1)">
       <defs>
        <path id="DejaVuSans-34" d="M 2419 4116 
L 825 1625 
L 2419 1625 
L 2419 4116 
z
M 2253 4666 
L 3047 4666 
L 3047 1625 
L 3713 1625 
L 3713 1100 
L 3047 1100 
L 3047 0 
L 2419 0 
L 2419 1100 
L 313 1100 
L 313 1709 
L 2253 4666 
z
" transform="scale(0.015625)"/>
       </defs>
       <use xlink:href="#DejaVuSans-30"/>
       <use xlink:href="#DejaVuSans-2e" x="63.623047"/>
       <use xlink:href="#DejaVuSans-34" x="95.410156"/>
      </g>
     </g>
    </g>
    <g id="ytick_4">
     <g id="line2d_12">
      <g>
       <use xlink:href="#mc832ca2fb1" x="54" y="97.2" style="stroke: #000000; stroke-width: 0.8"/>
      </g>
     </g>
     <g id="text_13">
      <!-- 0.6 -->
      <g transform="translate(31.096875 100.999219)scale(0.1 -0.1)">
       <defs>
        <path id="DejaVuSans-36" d="M 2113 2584 
Q 1688 2584 1439 2293 
Q 1191 2003 1191 1497 
Q 1191 994 1439 701 
Q 1688 409 2113 409 
Q 2538 409 2786 701 
Q 3034 994 3034 1497 
Q 3034 2003 2786 2293 
Q 2538 2584 2113 2584 
z
M 3366 4563 
L 3366 3988 
Q 3128 4100 2886 4159 
Q 2644 4219 2406 4219 
Q 1781 4219 1451 3797 
Q 1122 3375 1075 2522 
Q 1259 2794 1537 2939 
Q 1816 3084 2150 3084 
Q 2853 3084 3261 2657 
Q 3669 2231 3669 1497 
Q 3669 778 3244 343 
Q 2819 -91 2113 -91 
Q 1303 -91 875 529 
Q 447 1150 447 2328 
Q 447 3434 972 4092 
Q 1497 4750 2381 4750 
Q 2619 4750 2861 4703 
Q 3103 4656 3366 4563 
z
" transform="scale(0.015625)"/>
       </defs>
       <use xlink:href="#DejaVuSans-30"/>
       <use xlink:href="#DejaVuSans-2e" x="63.623047"/>
       <use xlink:href="#DejaVuSans-36" x="95.410156"/>
      </g>
     </g>
    </g>
    <g id="ytick_5">
     <g id="line2d_13">
      <g>
       <use xlink:href="#mc832ca2fb1" x="54" y="65.52" style="stroke: #000000; stroke-width: 0.8"/>
      </g>
     </g>
     <g id="text_14">
      <!-- 0.8 -->
      <g transform="translate(31.096875 69.319219)scale(0.1 -0.1)">
       <defs>
        <path id="DejaVuSans-38" d="M 2034 2216 
Q 1584 2216 1326 1975 
Q 1069 1734 1069 1313 
Q 1069 891 1326 650 
Q 1584 409 2034 409 
Q 2484 409 2743 651 
Q 3003 894 3003 1313 
Q 3003 1734 2745 1975 
Q 2488 2216 2034 2216 
z
M 1403 2484 
Q 997 2584 770 2862 
Q 544 3141 544 3541 
Q 544 4100 942 4425 
Q 1341 4750 2034 4750 
Q 2731 4750 3128 4425 
Q 3525 4100 3525 3541 
Q 3525 3141 3298 2862 
Q 3072 2584 2669 2484 
Q 3125 2378 3379 2068 
Q 3634 1759 3634 1313 
Q 3634 634 3220 271 
Q 2806 -91 2034 -91 
Q 1263 -91 848 271 
Q 434 634 434 1313 
Q 434 1759 690 2068 
Q 947 2378 1403 2484 
z
M 1172 3481 
Q 1172 3119 1398 2916 
Q 1625 2713 2034 2713 
Q 2441 2713 2670 2916 
Q 2900 3119 2900 3481 
Q 2900 3844 2670 4047 
Q 2441 4250 2034 4250 
Q 1625 4250 1398 4047 
Q 1172 3844 1172 3481 
z
" transform="scale(0.015625)"/>
       </defs>
       <use xlink:href="#DejaVuSans-30"/>
       <use xlink:href="#DejaVuSans-2e" x="63.623047"/>
       <use xlink:href="#DejaVuSans-38" x="95.410156"/>
      </g>
     </g>
    </g>
    <g id="ytick_6">
     <g id="line2d_14">
      <g>
       <use xlink:href="#mc832ca2fb1" x="54" y="33.84" style="stroke: #000000; stroke-width: 0.8"/>
      </g>
     </g>
     <g id="text_15">
      <!-- 1.0 -->
      <g transform="translate(31.096875 37.639219)scale(0.1 -0.1)">
       <use xlink:href="#DejaVuSans-31"/>
       <use xlink:href="#DejaVuSans-2e" x="63.623047"/>
       <use xlink:href="#DejaVuSans-30" x="95.410156"/>
      </g>
     </g>
    </g>
    <g id="text_16">
     <!-- Weights -->
     <g transform="translate(25.017187 129.103437)rotate(-90)scale(0.1 -0.1)">
      <defs>
       <path id="DejaVuSans-57" d="M 213 4666 
L 850 4666 
L 1831 722 
L 2809 4666 
L 3519 4666 
L 4500 722 
L 5478 4666 
L 6119 4666 
L 4947 0 
L 4153 0 
L 3169 4050 
L 2175 0 
L 1381 0 
L 213 4666 
z
" transform="scale(0.015625)"/>
       <path id="DejaVuSans-67" d="M 2906 1791 
Q 2906 2416 2648 2759 
Q 2391 3103 1925 3103 
Q 1463 3103 1205 2759 
Q 947 2416 947 1791 
Q 947 1169 1205 825 
Q 1463 481 1925 481 
Q 2391 481 2648 825 
Q 2906 1169 2906 1791 
z
M 3481 434 
Q 3481 -459 3084 -895 
Q 2688 -1331 1869 -1331 
Q 1566 -1331 1297 -1286 
Q 1028 -1241 775 -1147 
L 775 -588 
Q 1028 -725 1275 -790 
Q 1522 -856 1778 -856 
Q 2344 -856 2625 -561 
Q 2906 -266 2906 331 
L 2906 616 
Q 2728 306 2450 153 
Q 2172 0 1784 0 
Q 1141 0 747 490 
Q 353 981 353 1791 
Q 353 2603 747 3093 
Q 1141 3584 1784 3584 
Q 2172 3584 2450 3431 
Q 2728 3278 2906 2969 
L 2906 3500 
L 3481 3500 
L 3481 434 
z
" transform="scale(0.015625)"/>
       <path id="DejaVuSans-68" d="M 3513 2113 
L 3513 0 
L 2938 0 
L 2938 2094 
Q 2938 2591 2744 2837 
Q 2550 3084 2163 3084 
Q 1697 3084 1428 2787 
Q 1159 2491 1159 1978 
L 1159 0 
L 581 0 
L 581 4863 
L 1159 4863 
L 1159 2956 
Q 1366 3272 1645 3428 
Q 1925 3584 2291 3584 
Q 2894 3584 3203 3211 
Q 3513 2838 3513 2113 
z
" transform="scale(0.015625)"/>
       <path id="DejaVuSans-74" d="M 1172 4494 
L 1172 3500 
L 2356 3500 
L 2356 3053 
L 1172 3053 
L 1172 1153 
Q 1172 725 1289 603 
Q 1406 481 1766 481 
L 2356 481 
L 2356 0 
L 1766 0 
Q 1100 0 847 248 
Q 594 497 594 1153 
L 594 3053 
L 172 3053 
L 172 3500 
L 594 3500 
L 594 4494 
L 1172 4494 
z
" transform="scale(0.015625)"/>
       <path id="DejaVuSans-73" d="M 2834 3397 
L 2834 2853 
Q 2591 2978 2328 3040 
Q 2066 3103 1784 3103 
Q 1356 3103 1142 2972 
Q 928 2841 928 2578 
Q 928 2378 1081 2264 
Q 1234 2150 1697 2047 
L 1894 2003 
Q 2506 1872 2764 1633 
Q 3022 1394 3022 966 
Q 3022 478 2636 193 
Q 2250 -91 1575 -91 
Q 1294 -91 989 -36 
Q 684 19 347 128 
L 347 722 
Q 666 556 975 473 
Q 1284 391 1588 391 
Q 1994 391 2212 530 
Q 2431 669 2431 922 
Q 2431 1156 2273 1281 
Q 2116 1406 1581 1522 
L 1381 1569 
Q 847 1681 609 1914 
Q 372 2147 372 2553 
Q 372 3047 722 3315 
Q 1072 3584 1716 3584 
Q 2034 3584 2315 3537 
Q 2597 3491 2834 3397 
z
" transform="scale(0.015625)"/>
      </defs>
      <use xlink:href="#DejaVuSans-57"/>
      <use xlink:href="#DejaVuSans-65" x="93.001953"/>
      <use xlink:href="#DejaVuSans-69" x="154.525391"/>
      <use xlink:href="#DejaVuSans-67" x="182.308594"/>
      <use xlink:href="#DejaVuSans-68" x="245.785156"/>
      <use xlink:href="#DejaVuSans-74" x="309.164062"/>
      <use xlink:href="#DejaVuSans-73" x="348.373047"/>
     </g>
    </g>
   </g>
   <g id="line2d_15">
    <path d="M 69.218182 188.547785 
L 85.237321 191.008995 
L 101.256459 192.228012 
L 117.275598 192.233304 
L 133.294737 192.234236 
L 149.313876 192.234501 
L 165.333014 192.235902 
L 181.352153 192.232793 
L 197.371292 192.230668 
L 213.390431 192.232503 
L 229.409569 192.234237 
L 245.428708 192.23454 
L 261.447847 192.231449 
L 277.466986 192.219227 
L 293.486124 184.05955 
L 309.505263 182.287788 
L 325.524402 185.294102 
L 341.543541 186.550809 
L 357.562679 192.212817 
L 373.581818 192.218905 
" clip-path="url(#p9337ae79dd)" style="fill: none; stroke: #1f77b4; stroke-width: 1.5; stroke-linecap: square"/>
   </g>
   <g id="line2d_16">
    <path d="M 69.218182 184.50051 
L 85.237321 190.996363 
L 101.256459 187.524202 
L 117.275598 192.215025 
L 133.294737 192.226841 
L 149.313876 192.232123 
L 165.333014 192.230078 
L 181.352153 192.228685 
L 197.371292 192.22553 
L 213.390431 192.22808 
L 229.409569 192.228568 
L 245.428708 192.216832 
L 261.447847 192.224373 
L 277.466986 192.20293 
L 293.486124 184.038563 
L 309.505263 182.27587 
L 325.524402 179.927997 
L 341.543541 180.269453 
L 357.562679 184.276397 
L 373.581818 192.199314 
" clip-path="url(#p9337ae79dd)" style="fill: none; stroke: #ff7f0e; stroke-width: 1.5; stroke-linecap: square"/>
   </g>
   <g id="line2d_17">
    <path d="M 69.218182 184.468669 
L 85.237321 189.450934 
L 101.256459 179.414191 
L 117.275598 170.03106 
L 133.294737 192.200934 
L 149.313876 192.228269 
L 165.333014 192.221891 
L 181.352153 192.223261 
L 197.371292 192.216721 
L 213.390431 192.221931 
L 229.409569 192.223025 
L 245.428708 192.20684 
L 261.447847 192.214133 
L 277.466986 192.166282 
L 293.486124 183.985804 
L 309.505263 182.254602 
L 325.524402 179.904128 
L 341.543541 180.230362 
L 357.562679 184.245383 
L 373.581818 192.160961 
" clip-path="url(#p9337ae79dd)" style="fill: none; stroke: #2ca02c; stroke-width: 1.5; stroke-linecap: square"/>
   </g>
   <g id="line2d_18">
    <path d="M 69.218182 184.440761 
L 85.237321 189.43669 
L 101.256459 179.392679 
L 117.275598 170.006511 
L 133.294737 192.181961 
L 149.313876 192.209537 
L 165.333014 192.202574 
L 181.352153 192.204049 
L 197.371292 192.169067 
L 213.390431 172.231125 
L 229.409569 163.875395 
L 245.428708 153.804006 
L 261.447847 169.332491 
L 277.466986 172.527723 
L 293.486124 168.672629 
L 309.505263 156.938282 
L 325.524402 144.999953 
L 341.543541 141.935684 
L 357.562679 174.482183 
L 373.581818 181.184601 
" clip-path="url(#p9337ae79dd)" style="fill: none; stroke: #d62728; stroke-width: 1.5; stroke-linecap: square"/>
   </g>
   <g id="line2d_19">
    <path d="M 69.218182 184.391461 
L 85.237321 189.414982 
L 101.256459 179.353448 
L 117.275598 169.969878 
L 133.294737 192.166817 
L 149.313876 192.200888 
L 165.333014 192.186004 
L 181.352153 192.191297 
L 197.371292 192.149977 
L 213.390431 172.213896 
L 229.409569 163.854867 
L 245.428708 153.784962 
L 261.447847 164.737671 
L 277.466986 172.481292 
L 293.486124 146.483406 
L 309.505263 156.910317 
L 325.524402 144.976882 
L 341.543541 141.898509 
L 357.562679 174.444536 
L 373.581818 181.142754 
" clip-path="url(#p9337ae79dd)" style="fill: none; stroke: #9467bd; stroke-width: 1.5; stroke-linecap: square"/>
   </g>
   <g id="line2d_20">
    <path d="M 69.218182 168.953896 
L 85.237321 164.035543 
L 101.256459 173.339091 
L 117.275598 143.325366 
L 133.294737 189.906733 
L 149.313876 192.193491 
L 165.333014 192.170583 
L 181.352153 192.177058 
L 197.371292 191.493699 
L 213.390431 172.197416 
L 229.409569 128.421356 
L 245.428708 105.832879 
L 261.447847 127.810917 
L 277.466986 130.266435 
L 293.486124 125.763561 
L 309.505263 121.625739 
L 325.524402 130.233315 
L 341.543541 141.845765 
L 357.562679 174.379742 
L 373.581818 181.083364 
" clip-path="url(#p9337ae79dd)" style="fill: none; stroke: #8c564b; stroke-width: 1.5; stroke-linecap: square"/>
   </g>
   <g id="line2d_21">
    <path d="M 69.218182 142.432984 
L 85.237321 122.502919 
L 101.256459 139.22329 
L 117.275598 104.496696 
L 133.294737 135.058426 
L 149.313876 140.561931 
L 165.333014 142.723085 
L 181.352153 144.663413 
L 197.371292 143.958512 
L 213.390431 136.768907 
L 229.409569 111.39797 
L 245.428708 103.495636 
L 261.447847 126.367161 
L 277.466986 130.232802 
L 293.486124 125.706201 
L 309.505263 121.596136 
L 325.524402 130.205053 
L 341.543541 141.478086 
L 357.562679 159.897495 
L 373.581818 162.307139 
" clip-path="url(#p9337ae79dd)" style="fill: none; stroke: #e377c2; stroke-width: 1.5; stroke-linecap: square"/>
   </g>
   <g id="line2d_22">
    <path d="M 69.218182 138.149025 
L 85.237321 122.48381 
L 101.256459 131.643137 
L 117.275598 104.486242 
L 133.294737 135.054163 
L 149.313876 140.560328 
L 165.333014 142.72073 
L 181.352153 144.661601 
L 197.371292 143.955989 
L 213.390431 136.76686 
L 229.409569 111.395041 
L 245.428708 103.489329 
L 261.447847 126.360965 
L 277.466986 130.220836 
L 293.486124 125.683964 
L 309.505263 121.586806 
L 325.524402 130.173051 
L 341.543541 141.434472 
L 357.562679 159.869304 
L 373.581818 162.282635 
" clip-path="url(#p9337ae79dd)" style="fill: none; stroke: #7f7f7f; stroke-width: 1.5; stroke-linecap: square"/>
   </g>
   <g id="line2d_23">
    <path d="M 69.218182 113.692077 
L 85.237321 100.334715 
L 101.256459 115.588401 
L 117.275598 94.083966 
L 133.294737 135.037233 
L 149.313876 140.557477 
L 165.333014 142.71532 
L 181.352153 144.658306 
L 197.371292 143.951526 
L 213.390431 136.763322 
L 229.409569 111.391515 
L 245.428708 100.3968 
L 261.447847 122.413097 
L 277.466986 112.303573 
L 293.486124 108.943628 
L 309.505263 121.556193 
L 325.524402 109.141718 
L 341.543541 106.087678 
L 357.562679 127.250806 
L 373.581818 104.072284 
" clip-path="url(#p9337ae79dd)" style="fill: none; stroke: #bcbd22; stroke-width: 1.5; stroke-linecap: square"/>
   </g>
   <g id="line2d_24">
    <path d="M 69.218182 113.660281 
L 85.237321 100.316094 
L 101.256459 115.554596 
L 117.275598 94.064697 
L 133.294737 135.028188 
L 149.313876 140.554164 
L 165.333014 142.708536 
L 181.352153 144.654036 
L 197.371292 143.945467 
L 213.390431 136.758217 
L 229.409569 111.388231 
L 245.428708 100.390821 
L 261.447847 122.40646 
L 277.466986 112.278867 
L 293.486124 108.917264 
L 309.505263 121.544047 
L 325.524402 109.109391 
L 341.543541 106.039605 
L 357.562679 125.161576 
L 373.581818 104.033075 
" clip-path="url(#p9337ae79dd)" style="fill: none; stroke: #17becf; stroke-width: 1.5; stroke-linecap: square"/>
   </g>
   <g id="line2d_25">
    <path d="M 69.218182 113.607871 
L 85.237321 100.293197 
L 101.256459 115.505612 
L 117.275598 94.042937 
L 133.294737 135.013004 
L 149.313876 140.544326 
L 165.333014 142.684624 
L 181.352153 144.646485 
L 197.371292 143.93479 
L 213.390431 136.748437 
L 229.409569 111.369421 
L 245.428708 100.374258 
L 261.447847 122.369143 
L 277.466986 103.644174 
L 293.486124 103.410806 
L 309.505263 115.71077 
L 325.524402 109.090964 
L 341.543541 102.987307 
L 357.562679 124.456892 
L 373.581818 103.993166 
" clip-path="url(#p9337ae79dd)" style="fill: none; stroke: #1f77b4; stroke-width: 1.5; stroke-linecap: square"/>
   </g>
   <g id="line2d_26">
    <path d="M 69.218182 113.585624 
L 85.237321 100.280802 
L 101.256459 115.485784 
L 117.275598 94.019801 
L 133.294737 132.462065 
L 149.313876 126.595666 
L 165.333014 123.285606 
L 181.352153 122.145779 
L 197.371292 131.223366 
L 213.390431 126.545332 
L 229.409569 67.61065 
L 245.428708 69.804375 
L 261.447847 91.513109 
L 277.466986 99.484602 
L 293.486124 87.333409 
L 309.505263 90.277517 
L 325.524402 98.621035 
L 341.543541 83.069644 
L 357.562679 97.420134 
L 373.581818 90.460867 
" clip-path="url(#p9337ae79dd)" style="fill: none; stroke: #ff7f0e; stroke-width: 1.5; stroke-linecap: square"/>
   </g>
   <g id="line2d_27">
    <path d="M 69.218182 105.619449 
L 85.237321 93.313304 
L 101.256459 115.465453 
L 117.275598 86.966238 
L 133.294737 112.139848 
L 149.313876 126.591283 
L 165.333014 123.274899 
L 181.352153 122.138194 
L 197.371292 131.211416 
L 213.390431 126.533431 
L 229.409569 67.598904 
L 245.428708 69.790459 
L 261.447847 91.497265 
L 277.466986 99.440616 
L 293.486124 87.279541 
L 309.505263 90.25348 
L 325.524402 98.59298 
L 341.543541 83.023616 
L 357.562679 97.378368 
L 373.581818 90.41493 
" clip-path="url(#p9337ae79dd)" style="fill: none; stroke: #2ca02c; stroke-width: 1.5; stroke-linecap: square"/>
   </g>
   <g id="line2d_28">
    <path d="M 69.218182 67.744871 
L 85.237321 72.615257 
L 101.256459 80.96501 
L 117.275598 68.734752 
L 133.294737 112.12413 
L 149.313876 126.583074 
L 165.333014 123.258838 
L 181.352153 122.124099 
L 197.371292 131.192986 
L 213.390431 126.519963 
L 229.409569 67.583233 
L 245.428708 69.77503 
L 261.447847 84.478039 
L 277.466986 99.39275 
L 293.486124 87.214538 
L 309.505263 90.214484 
L 325.524402 98.570132 
L 341.543541 82.982241 
L 357.562679 97.328209 
L 373.581818 90.361256 
" clip-path="url(#p9337ae79dd)" style="fill: none; stroke: #d62728; stroke-width: 1.5; stroke-linecap: square"/>
   </g>
   <g id="line2d_29">
    <path d="M 69.218182 67.716135 
L 85.237321 72.599558 
L 101.256459 80.940843 
L 117.275598 62.418987 
L 133.294737 88.506462 
L 149.313876 98.413674 
L 165.333014 81.752906 
L 181.352153 87.163082 
L 197.371292 105.196123 
L 213.390431 103.381428 
L 229.409569 65.770776 
L 245.428708 69.762887 
L 261.447847 84.464247 
L 277.466986 93.302764 
L 293.486124 87.176054 
L 309.505263 90.194106 
L 325.524402 98.553364 
L 341.543541 82.626066 
L 357.562679 97.29501 
L 373.581818 90.331222 
" clip-path="url(#p9337ae79dd)" style="fill: none; stroke: #9467bd; stroke-width: 1.5; stroke-linecap: square"/>
   </g>
   <g id="line2d_30">
    <path d="M 69.218182 64.796142 
L 85.237321 66.783971 
L 101.256459 79.508258 
L 117.275598 60.434502 
L 133.294737 88.495275 
L 149.313876 98.409025 
L 165.333014 81.745546 
L 181.352153 87.157444 
L 197.371292 105.188453 
L 213.390431 103.374446 
L 229.409569 65.76309 
L 245.428708 69.756656 
L 261.447847 84.456536 
L 277.466986 93.258699 
L 293.486124 87.153226 
L 309.505263 90.182601 
L 325.524402 98.539341 
L 341.543541 82.600454 
L 357.562679 97.277777 
L 373.581818 90.318937 
" clip-path="url(#p9337ae79dd)" style="fill: none; stroke: #8c564b; stroke-width: 1.5; stroke-linecap: square"/>
   </g>
   <g id="line2d_31">
    <path d="M 69.218182 52.498487 
L 85.237321 45.196661 
L 101.256459 54.28693 
L 117.275598 54.630728 
L 133.294737 42.096957 
L 149.313876 43.491184 
L 165.333014 35.389639 
L 181.352153 36.089191 
L 197.371292 42.12283 
L 213.390431 43.232221 
L 229.409569 38.729044 
L 245.428708 38.284024 
L 261.447847 44.965501 
L 277.466986 56.624076 
L 293.486124 56.336335 
L 309.505263 80.174032 
L 325.524402 77.568649 
L 341.543541 47.647845 
L 357.562679 60.483276 
L 373.581818 61.491661 
" clip-path="url(#p9337ae79dd)" style="fill: none; stroke: #e377c2; stroke-width: 1.5; stroke-linecap: square"/>
   </g>
   <g id="line2d_32">
    <path d="M 69.218182 42.10585 
L 85.237321 45.12735 
L 101.256459 52.676362 
L 117.275598 54.610242 
L 133.294737 42.084379 
L 149.313876 43.484704 
L 165.333014 35.377994 
L 181.352153 36.080698 
L 197.371292 42.109672 
L 213.390431 35.731202 
L 229.409569 35.703794 
L 245.428708 38.267007 
L 261.447847 44.947311 
L 277.466986 56.586598 
L 293.486124 56.281487 
L 309.505263 80.149962 
L 325.524402 77.539134 
L 341.543541 47.602753 
L 357.562679 52.086397 
L 373.581818 61.439521 
" clip-path="url(#p9337ae79dd)" style="fill: none; stroke: #7f7f7f; stroke-width: 1.5; stroke-linecap: square"/>
   </g>
   <g id="line2d_33">
    <path d="M 69.218182 42.073056 
L 85.237321 45.110713 
L 101.256459 46.922524 
L 117.275598 54.59181 
L 133.294737 42.071226 
L 149.313876 43.476509 
L 165.333014 35.363387 
L 181.352153 36.068612 
L 197.371292 42.090202 
L 213.390431 35.7102 
L 229.409569 35.682653 
L 245.428708 38.249284 
L 261.447847 44.912874 
L 277.466986 56.543109 
L 293.486124 53.130707 
L 309.505263 50.729389 
L 325.524402 49.546805 
L 341.543541 37.48852 
L 357.562679 39.355876 
L 373.581818 39.540775 
" clip-path="url(#p9337ae79dd)" style="fill: none; stroke: #bcbd22; stroke-width: 1.5; stroke-linecap: square"/>
   </g>
   <g id="line2d_34">
    <path d="M 69.218182 33.84 
L 85.237321 33.84 
L 101.256459 33.84 
L 117.275598 33.84 
L 133.294737 33.84 
L 149.313876 33.84 
L 165.333014 33.84 
L 181.352153 33.84 
L 197.371292 33.84 
L 213.390431 33.84 
L 229.409569 33.84 
L 245.428708 33.84 
L 261.447847 33.84 
L 277.466986 33.84 
L 293.486124 33.84 
L 309.505263 33.84 
L 325.524402 33.84 
L 341.543541 33.84 
L 357.562679 33.84 
L 373.581818 33.84 
" clip-path="url(#p9337ae79dd)" style="fill: none; stroke: #17becf; stroke-width: 1.5; stroke-linecap: square"/>
   </g>
   <g id="patch_3">
    <path d="M 54 192.24 
L 54 25.92 
" style="fill: none; stroke: #000000; stroke-width: 0.8; stroke-linejoin: miter; stroke-linecap: square"/>
   </g>
   <g id="patch_4">
    <path d="M 388.8 192.24 
L 388.8 25.92 
" style="fill: none; stroke: #000000; stroke-width: 0.8; stroke-linejoin: miter; stroke-linecap: square"/>
   </g>
   <g id="patch_5">
    <path d="M 54 192.24 
L 388.8 192.24 
" style="fill: none; stroke: #000000; stroke-width: 0.8; stroke-linejoin: miter; stroke-linecap: square"/>
   </g>
   <g id="patch_6">
    <path d="M 54 25.92 
L 388.8 25.92 
" style="fill: none; stroke: #000000; stroke-width: 0.8; stroke-linejoin: miter; stroke-linecap: square"/>
   </g>
   <g id="text_17">
    <!-- Portfolio weights -->
    <g transform="translate(171.459375 19.92)scale(0.12 -0.12)">
     <defs>
      <path id="DejaVuSans-66" d="M 2375 4863 
L 2375 4384 
L 1825 4384 
Q 1516 4384 1395 4259 
Q 1275 4134 1275 3809 
L 1275 3500 
L 2222 3500 
L 2222 3053 
L 1275 3053 
L 1275 0 
L 697 0 
L 697 3053 
L 147 3053 
L 147 3500 
L 697 3500 
L 697 3744 
Q 697 4328 969 4595 
Q 1241 4863 1831 4863 
L 2375 4863 
z
" transform="scale(0.015625)"/>
      <path id="DejaVuSans-77" d="M 269 3500 
L 844 3500 
L 1563 769 
L 2278 3500 
L 2956 3500 
L 3675 769 
L 4391 3500 
L 4966 3500 
L 4050 0 
L 3372 0 
L 2619 2869 
L 1863 0 
L 1184 0 
L 269 3500 
z
" transform="scale(0.015625)"/>
     </defs>
     <use xlink:href="#DejaVuSans-50"/>
     <use xlink:href="#DejaVuSans-6f" x="56.677734"/>
     <use xlink:href="#DejaVuSans-72" x="117.859375"/>
     <use xlink:href="#DejaVuSans-74" x="158.972656"/>
     <use xlink:href="#DejaVuSans-66" x="198.181641"/>
     <use xlink:href="#DejaVuSans-6f" x="233.386719"/>
     <use xlink:href="#DejaVuSans-6c" x="294.568359"/>
     <use xlink:href="#DejaVuSans-69" x="322.351562"/>
     <use xlink:href="#DejaVuSans-6f" x="350.134766"/>
     <use xlink:href="#DejaVuSans-20" x="411.316406"/>
     <use xlink:href="#DejaVuSans-77" x="443.103516"/>
     <use xlink:href="#DejaVuSans-65" x="524.890625"/>
     <use xlink:href="#DejaVuSans-69" x="586.414062"/>
     <use xlink:href="#DejaVuSans-67" x="614.197266"/>
     <use xlink:href="#DejaVuSans-68" x="677.673828"/>
     <use xlink:href="#DejaVuSans-74" x="741.052734"/>
     <use xlink:href="#DejaVuSans-73" x="780.261719"/>
    </g>
   </g>
   <g id="legend_1">
    <g id="patch_7">
     <path d="M 395.8 257.36125 
L 453.357813 257.36125 
Q 455.357813 257.36125 455.357813 255.36125 
L 455.357813 -37.20125 
Q 455.357813 -39.20125 453.357813 -39.20125 
L 395.8 -39.20125 
Q 393.8 -39.20125 393.8 -37.20125 
L 393.8 255.36125 
Q 393.8 257.36125 395.8 257.36125 
z
" style="fill: #ffffff; opacity: 0.8; stroke: #cccccc; stroke-linejoin: miter"/>
    </g>
    <g id="patch_8">
     <path d="M 397.8 -27.602813 
L 417.8 -27.602813 
L 417.8 -34.602813 
L 397.8 -34.602813 
z
" style="fill: #1f77b4; stroke: #1f77b4; stroke-linejoin: miter"/>
    </g>
    <g id="text_18">
     <!-- F -->
     <g transform="translate(425.8 -27.602813)scale(0.1 -0.1)">
      <defs>
       <path id="DejaVuSans-46" d="M 628 4666 
L 3309 4666 
L 3309 4134 
L 1259 4134 
L 1259 2759 
L 3109 2759 
L 3109 2228 
L 1259 2228 
L 1259 0 
L 628 0 
L 628 4666 
z
" transform="scale(0.015625)"/>
      </defs>
      <use xlink:href="#DejaVuSans-46"/>
     </g>
    </g>
    <g id="patch_9">
     <path d="M 397.8 -12.924688 
L 417.8 -12.924688 
L 417.8 -19.924688 
L 397.8 -19.924688 
z
" style="fill: #ff7f0e; stroke: #ff7f0e; stroke-linejoin: miter"/>
    </g>
    <g id="text_19">
     <!-- CAT -->
     <g transform="translate(425.8 -12.924688)scale(0.1 -0.1)">
      <defs>
       <path id="DejaVuSans-43" d="M 4122 4306 
L 4122 3641 
Q 3803 3938 3442 4084 
Q 3081 4231 2675 4231 
Q 1875 4231 1450 3742 
Q 1025 3253 1025 2328 
Q 1025 1406 1450 917 
Q 1875 428 2675 428 
Q 3081 428 3442 575 
Q 3803 722 4122 1019 
L 4122 359 
Q 3791 134 3420 21 
Q 3050 -91 2638 -91 
Q 1578 -91 968 557 
Q 359 1206 359 2328 
Q 359 3453 968 4101 
Q 1578 4750 2638 4750 
Q 3056 4750 3426 4639 
Q 3797 4528 4122 4306 
z
" transform="scale(0.015625)"/>
       <path id="DejaVuSans-41" d="M 2188 4044 
L 1331 1722 
L 3047 1722 
L 2188 4044 
z
M 1831 4666 
L 2547 4666 
L 4325 0 
L 3669 0 
L 3244 1197 
L 1141 1197 
L 716 0 
L 50 0 
L 1831 4666 
z
" transform="scale(0.015625)"/>
       <path id="DejaVuSans-54" d="M -19 4666 
L 3928 4666 
L 3928 4134 
L 2272 4134 
L 2272 0 
L 1638 0 
L 1638 4134 
L -19 4134 
L -19 4666 
z
" transform="scale(0.015625)"/>
      </defs>
      <use xlink:href="#DejaVuSans-43"/>
      <use xlink:href="#DejaVuSans-41" x="69.824219"/>
      <use xlink:href="#DejaVuSans-54" x="130.482422"/>
     </g>
    </g>
    <g id="patch_10">
     <path d="M 397.8 1.753437 
L 417.8 1.753437 
L 417.8 -5.246563 
L 397.8 -5.246563 
z
" style="fill: #2ca02c; stroke: #2ca02c; stroke-linejoin: miter"/>
    </g>
    <g id="text_20">
     <!-- DIS -->
     <g transform="translate(425.8 1.753437)scale(0.1 -0.1)">
      <defs>
       <path id="DejaVuSans-44" d="M 1259 4147 
L 1259 519 
L 2022 519 
Q 2988 519 3436 956 
Q 3884 1394 3884 2338 
Q 3884 3275 3436 3711 
Q 2988 4147 2022 4147 
L 1259 4147 
z
M 628 4666 
L 1925 4666 
Q 3281 4666 3915 4102 
Q 4550 3538 4550 2338 
Q 4550 1131 3912 565 
Q 3275 0 1925 0 
L 628 0 
L 628 4666 
z
" transform="scale(0.015625)"/>
       <path id="DejaVuSans-49" d="M 628 4666 
L 1259 4666 
L 1259 0 
L 628 0 
L 628 4666 
z
" transform="scale(0.015625)"/>
       <path id="DejaVuSans-53" d="M 3425 4513 
L 3425 3897 
Q 3066 4069 2747 4153 
Q 2428 4238 2131 4238 
Q 1616 4238 1336 4038 
Q 1056 3838 1056 3469 
Q 1056 3159 1242 3001 
Q 1428 2844 1947 2747 
L 2328 2669 
Q 3034 2534 3370 2195 
Q 3706 1856 3706 1288 
Q 3706 609 3251 259 
Q 2797 -91 1919 -91 
Q 1588 -91 1214 -16 
Q 841 59 441 206 
L 441 856 
Q 825 641 1194 531 
Q 1563 422 1919 422 
Q 2459 422 2753 634 
Q 3047 847 3047 1241 
Q 3047 1584 2836 1778 
Q 2625 1972 2144 2069 
L 1759 2144 
Q 1053 2284 737 2584 
Q 422 2884 422 3419 
Q 422 4038 858 4394 
Q 1294 4750 2059 4750 
Q 2388 4750 2728 4690 
Q 3069 4631 3425 4513 
z
" transform="scale(0.015625)"/>
      </defs>
      <use xlink:href="#DejaVuSans-44"/>
      <use xlink:href="#DejaVuSans-49" x="77.001953"/>
      <use xlink:href="#DejaVuSans-53" x="106.494141"/>
     </g>
    </g>
    <g id="patch_11">
     <path d="M 397.8 16.431562 
L 417.8 16.431562 
L 417.8 9.431562 
L 397.8 9.431562 
z
" style="fill: #d62728; stroke: #d62728; stroke-linejoin: miter"/>
    </g>
    <g id="text_21">
     <!-- MCD -->
     <g transform="translate(425.8 16.431562)scale(0.1 -0.1)">
      <defs>
       <path id="DejaVuSans-4d" d="M 628 4666 
L 1569 4666 
L 2759 1491 
L 3956 4666 
L 4897 4666 
L 4897 0 
L 4281 0 
L 4281 4097 
L 3078 897 
L 2444 897 
L 1241 4097 
L 1241 0 
L 628 0 
L 628 4666 
z
" transform="scale(0.015625)"/>
      </defs>
      <use xlink:href="#DejaVuSans-4d"/>
      <use xlink:href="#DejaVuSans-43" x="86.279297"/>
      <use xlink:href="#DejaVuSans-44" x="156.103516"/>
     </g>
    </g>
    <g id="patch_12">
     <path d="M 397.8 31.109688 
L 417.8 31.109688 
L 417.8 24.109688 
L 397.8 24.109688 
z
" style="fill: #9467bd; stroke: #9467bd; stroke-linejoin: miter"/>
    </g>
    <g id="text_22">
     <!-- KO -->
     <g transform="translate(425.8 31.109688)scale(0.1 -0.1)">
      <defs>
       <path id="DejaVuSans-4b" d="M 628 4666 
L 1259 4666 
L 1259 2694 
L 3353 4666 
L 4166 4666 
L 1850 2491 
L 4331 0 
L 3500 0 
L 1259 2247 
L 1259 0 
L 628 0 
L 628 4666 
z
" transform="scale(0.015625)"/>
       <path id="DejaVuSans-4f" d="M 2522 4238 
Q 1834 4238 1429 3725 
Q 1025 3213 1025 2328 
Q 1025 1447 1429 934 
Q 1834 422 2522 422 
Q 3209 422 3611 934 
Q 4013 1447 4013 2328 
Q 4013 3213 3611 3725 
Q 3209 4238 2522 4238 
z
M 2522 4750 
Q 3503 4750 4090 4092 
Q 4678 3434 4678 2328 
Q 4678 1225 4090 567 
Q 3503 -91 2522 -91 
Q 1538 -91 948 565 
Q 359 1222 359 2328 
Q 359 3434 948 4092 
Q 1538 4750 2522 4750 
z
" transform="scale(0.015625)"/>
      </defs>
      <use xlink:href="#DejaVuSans-4b"/>
      <use xlink:href="#DejaVuSans-4f" x="60.076172"/>
     </g>
    </g>
    <g id="patch_13">
     <path d="M 397.8 45.787812 
L 417.8 45.787812 
L 417.8 38.787812 
L 397.8 38.787812 
z
" style="fill: #8c564b; stroke: #8c564b; stroke-linejoin: miter"/>
    </g>
    <g id="text_23">
     <!-- PEP -->
     <g transform="translate(425.8 45.787812)scale(0.1 -0.1)">
      <defs>
       <path id="DejaVuSans-45" d="M 628 4666 
L 3578 4666 
L 3578 4134 
L 1259 4134 
L 1259 2753 
L 3481 2753 
L 3481 2222 
L 1259 2222 
L 1259 531 
L 3634 531 
L 3634 0 
L 628 0 
L 628 4666 
z
" transform="scale(0.015625)"/>
      </defs>
      <use xlink:href="#DejaVuSans-50"/>
      <use xlink:href="#DejaVuSans-45" x="60.302734"/>
      <use xlink:href="#DejaVuSans-50" x="123.486328"/>
     </g>
    </g>
    <g id="patch_14">
     <path d="M 397.8 60.465937 
L 417.8 60.465937 
L 417.8 53.465937 
L 397.8 53.465937 
z
" style="fill: #e377c2; stroke: #e377c2; stroke-linejoin: miter"/>
    </g>
    <g id="text_24">
     <!-- WMT -->
     <g transform="translate(425.8 60.465937)scale(0.1 -0.1)">
      <use xlink:href="#DejaVuSans-57"/>
      <use xlink:href="#DejaVuSans-4d" x="98.876953"/>
      <use xlink:href="#DejaVuSans-54" x="185.15625"/>
     </g>
    </g>
    <g id="patch_15">
     <path d="M 397.8 75.144062 
L 417.8 75.144062 
L 417.8 68.144062 
L 397.8 68.144062 
z
" style="fill: #7f7f7f; stroke: #7f7f7f; stroke-linejoin: miter"/>
    </g>
    <g id="text_25">
     <!-- C -->
     <g transform="translate(425.8 75.144062)scale(0.1 -0.1)">
      <use xlink:href="#DejaVuSans-43"/>
     </g>
    </g>
    <g id="patch_16">
     <path d="M 397.8 89.822187 
L 417.8 89.822187 
L 417.8 82.822187 
L 397.8 82.822187 
z
" style="fill: #bcbd22; stroke: #bcbd22; stroke-linejoin: miter"/>
    </g>
    <g id="text_26">
     <!-- WFC -->
     <g transform="translate(425.8 89.822187)scale(0.1 -0.1)">
      <use xlink:href="#DejaVuSans-57"/>
      <use xlink:href="#DejaVuSans-46" x="98.876953"/>
      <use xlink:href="#DejaVuSans-43" x="156.396484"/>
     </g>
    </g>
    <g id="patch_17">
     <path d="M 397.8 104.500312 
L 417.8 104.500312 
L 417.8 97.500312 
L 397.8 97.500312 
z
" style="fill: #17becf; stroke: #17becf; stroke-linejoin: miter"/>
    </g>
    <g id="text_27">
     <!-- JPM -->
     <g transform="translate(425.8 104.500312)scale(0.1 -0.1)">
      <defs>
       <path id="DejaVuSans-4a" d="M 628 4666 
L 1259 4666 
L 1259 325 
Q 1259 -519 939 -900 
Q 619 -1281 -91 -1281 
L -331 -1281 
L -331 -750 
L -134 -750 
Q 284 -750 456 -515 
Q 628 -281 628 325 
L 628 4666 
z
" transform="scale(0.015625)"/>
      </defs>
      <use xlink:href="#DejaVuSans-4a"/>
      <use xlink:href="#DejaVuSans-50" x="29.492188"/>
      <use xlink:href="#DejaVuSans-4d" x="89.794922"/>
     </g>
    </g>
    <g id="patch_18">
     <path d="M 397.8 119.178437 
L 417.8 119.178437 
L 417.8 112.178437 
L 397.8 112.178437 
z
" style="fill: #1f77b4; stroke: #1f77b4; stroke-linejoin: miter"/>
    </g>
    <g id="text_28">
     <!-- AAPL -->
     <g transform="translate(425.8 119.178437)scale(0.1 -0.1)">
      <defs>
       <path id="DejaVuSans-4c" d="M 628 4666 
L 1259 4666 
L 1259 531 
L 3531 531 
L 3531 0 
L 628 0 
L 628 4666 
z
" transform="scale(0.015625)"/>
      </defs>
      <use xlink:href="#DejaVuSans-41"/>
      <use xlink:href="#DejaVuSans-41" x="71.158203"/>
      <use xlink:href="#DejaVuSans-50" x="139.566406"/>
      <use xlink:href="#DejaVuSans-4c" x="199.869141"/>
     </g>
    </g>
    <g id="patch_19">
     <path d="M 397.8 133.856562 
L 417.8 133.856562 
L 417.8 126.856562 
L 397.8 126.856562 
z
" style="fill: #ff7f0e; stroke: #ff7f0e; stroke-linejoin: miter"/>
    </g>
    <g id="text_29">
     <!-- IBM -->
     <g transform="translate(425.8 133.856562)scale(0.1 -0.1)">
      <defs>
       <path id="DejaVuSans-42" d="M 1259 2228 
L 1259 519 
L 2272 519 
Q 2781 519 3026 730 
Q 3272 941 3272 1375 
Q 3272 1813 3026 2020 
Q 2781 2228 2272 2228 
L 1259 2228 
z
M 1259 4147 
L 1259 2741 
L 2194 2741 
Q 2656 2741 2882 2914 
Q 3109 3088 3109 3444 
Q 3109 3797 2882 3972 
Q 2656 4147 2194 4147 
L 1259 4147 
z
M 628 4666 
L 2241 4666 
Q 2963 4666 3353 4366 
Q 3744 4066 3744 3513 
Q 3744 3084 3544 2831 
Q 3344 2578 2956 2516 
Q 3422 2416 3680 2098 
Q 3938 1781 3938 1306 
Q 3938 681 3513 340 
Q 3088 0 2303 0 
L 628 0 
L 628 4666 
z
" transform="scale(0.015625)"/>
      </defs>
      <use xlink:href="#DejaVuSans-49"/>
      <use xlink:href="#DejaVuSans-42" x="29.492188"/>
      <use xlink:href="#DejaVuSans-4d" x="98.095703"/>
     </g>
    </g>
    <g id="patch_20">
     <path d="M 397.8 148.534687 
L 417.8 148.534687 
L 417.8 141.534687 
L 397.8 141.534687 
z
" style="fill: #2ca02c; stroke: #2ca02c; stroke-linejoin: miter"/>
    </g>
    <g id="text_30">
     <!-- PFE -->
     <g transform="translate(425.8 148.534687)scale(0.1 -0.1)">
      <use xlink:href="#DejaVuSans-50"/>
      <use xlink:href="#DejaVuSans-46" x="60.302734"/>
      <use xlink:href="#DejaVuSans-45" x="117.822266"/>
     </g>
    </g>
    <g id="patch_21">
     <path d="M 397.8 163.212812 
L 417.8 163.212812 
L 417.8 156.212812 
L 397.8 156.212812 
z
" style="fill: #d62728; stroke: #d62728; stroke-linejoin: miter"/>
    </g>
    <g id="text_31">
     <!-- JNJ -->
     <g transform="translate(425.8 163.212812)scale(0.1 -0.1)">
      <defs>
       <path id="DejaVuSans-4e" d="M 628 4666 
L 1478 4666 
L 3547 763 
L 3547 4666 
L 4159 4666 
L 4159 0 
L 3309 0 
L 1241 3903 
L 1241 0 
L 628 0 
L 628 4666 
z
" transform="scale(0.015625)"/>
      </defs>
      <use xlink:href="#DejaVuSans-4a"/>
      <use xlink:href="#DejaVuSans-4e" x="29.492188"/>
      <use xlink:href="#DejaVuSans-4a" x="104.296875"/>
     </g>
    </g>
    <g id="patch_22">
     <path d="M 397.8 177.890937 
L 417.8 177.890937 
L 417.8 170.890937 
L 397.8 170.890937 
z
" style="fill: #9467bd; stroke: #9467bd; stroke-linejoin: miter"/>
    </g>
    <g id="text_32">
     <!-- XOM -->
     <g transform="translate(425.8 177.890937)scale(0.1 -0.1)">
      <defs>
       <path id="DejaVuSans-58" d="M 403 4666 
L 1081 4666 
L 2241 2931 
L 3406 4666 
L 4084 4666 
L 2584 2425 
L 4184 0 
L 3506 0 
L 2194 1984 
L 872 0 
L 191 0 
L 1856 2491 
L 403 4666 
z
" transform="scale(0.015625)"/>
      </defs>
      <use xlink:href="#DejaVuSans-58"/>
      <use xlink:href="#DejaVuSans-4f" x="62.130859"/>
      <use xlink:href="#DejaVuSans-4d" x="140.841797"/>
     </g>
    </g>
    <g id="patch_23">
     <path d="M 397.8 192.569062 
L 417.8 192.569062 
L 417.8 185.569062 
L 397.8 185.569062 
z
" style="fill: #8c564b; stroke: #8c564b; stroke-linejoin: miter"/>
    </g>
    <g id="text_33">
     <!-- MRO -->
     <g transform="translate(425.8 192.569062)scale(0.1 -0.1)">
      <use xlink:href="#DejaVuSans-4d"/>
      <use xlink:href="#DejaVuSans-52" x="86.279297"/>
      <use xlink:href="#DejaVuSans-4f" x="155.761719"/>
     </g>
    </g>
    <g id="patch_24">
     <path d="M 397.8 207.247187 
L 417.8 207.247187 
L 417.8 200.247187 
L 397.8 200.247187 
z
" style="fill: #e377c2; stroke: #e377c2; stroke-linejoin: miter"/>
    </g>
    <g id="text_34">
     <!-- ED -->
     <g transform="translate(425.8 207.247187)scale(0.1 -0.1)">
      <use xlink:href="#DejaVuSans-45"/>
      <use xlink:href="#DejaVuSans-44" x="63.183594"/>
     </g>
    </g>
    <g id="patch_25">
     <path d="M 397.8 221.925312 
L 417.8 221.925312 
L 417.8 214.925312 
L 397.8 214.925312 
z
" style="fill: #7f7f7f; stroke: #7f7f7f; stroke-linejoin: miter"/>
    </g>
    <g id="text_35">
     <!-- T -->
     <g transform="translate(425.8 221.925312)scale(0.1 -0.1)">
      <use xlink:href="#DejaVuSans-54"/>
     </g>
    </g>
    <g id="patch_26">
     <path d="M 397.8 236.603437 
L 417.8 236.603437 
L 417.8 229.603437 
L 397.8 229.603437 
z
" style="fill: #bcbd22; stroke: #bcbd22; stroke-linejoin: miter"/>
    </g>
    <g id="text_36">
     <!-- VZ -->
     <g transform="translate(425.8 236.603437)scale(0.1 -0.1)">
      <defs>
       <path id="DejaVuSans-56" d="M 1831 0 
L 50 4666 
L 709 4666 
L 2188 738 
L 3669 4666 
L 4325 4666 
L 2547 0 
L 1831 0 
z
" transform="scale(0.015625)"/>
       <path id="DejaVuSans-5a" d="M 359 4666 
L 4025 4666 
L 4025 4184 
L 1075 531 
L 4097 531 
L 4097 0 
L 288 0 
L 288 481 
L 3238 4134 
L 359 4134 
L 359 4666 
z
" transform="scale(0.015625)"/>
      </defs>
      <use xlink:href="#DejaVuSans-56"/>
      <use xlink:href="#DejaVuSans-5a" x="68.408203"/>
     </g>
    </g>
    <g id="patch_27">
     <path d="M 397.8 251.281562 
L 417.8 251.281562 
L 417.8 244.281562 
L 397.8 244.281562 
z
" style="fill: #17becf; stroke: #17becf; stroke-linejoin: miter"/>
    </g>
    <g id="text_37">
     <!-- NEM -->
     <g transform="translate(425.8 251.281562)scale(0.1 -0.1)">
      <use xlink:href="#DejaVuSans-4e"/>
      <use xlink:href="#DejaVuSans-45" x="74.804688"/>
      <use xlink:href="#DejaVuSans-4d" x="137.988281"/>
     </g>
    </g>
   </g>
  </g>
 </g>
 <defs>
  <clipPath id="p9337ae79dd">
   <rect x="54" y="25.92" width="334.8" height="166.32"/>
  </clipPath>
 </defs>
</svg>
