<?xml version="1.0" encoding="utf-8" standalone="no"?>
<!DOCTYPE svg PUBLIC "-//W3C//DTD SVG 1.1//EN"
  "http://www.w3.org/Graphics/SVG/1.1/DTD/svg11.dtd">
<svg xmlns:xlink="http://www.w3.org/1999/xlink" width="432pt" height="216pt" viewBox="0 0 432 216" xmlns="http://www.w3.org/2000/svg" version="1.1">
 <metadata>
  <rdf:RDF xmlns:dc="http://purl.org/dc/elements/1.1/" xmlns:cc="http://creativecommons.org/ns#" xmlns:rdf="http://www.w3.org/1999/02/22-rdf-syntax-ns#">
   <cc:Work>
    <dc:type rdf:resource="http://purl.org/dc/dcmitype/StillImage"/>
    <dc:date>2024-04-10T22:24:39.109500</dc:date>
    <dc:format>image/svg+xml</dc:format>
    <dc:creator>
     <cc:Agent>
      <dc:title>Matplotlib v3.5.2, https://matplotlib.org/</dc:title>
     </cc:Agent>
    </dc:creator>
   </cc:Work>
  </rdf:RDF>
 </metadata>
 <defs>
  <style type="text/css">*{stroke-linejoin: round; stroke-linecap: butt}</style>
 </defs>
 <g id="figure_1">
  <g id="patch_1">
   <path d="M 0 216 
L 432 216 
L 432 0 
L 0 0 
z
" style="fill: #ffffff"/>
  </g>
  <g id="axes_1">
   <g id="patch_2">
    <path d="M 54 192.24 
L 388.8 192.24 
L 388.8 25.92 
L 54 25.92 
z
" style="fill: #ffffff"/>
   </g>
   <g id="PolyCollection_1">
    <defs>
     <path id="m4ce7980e9a" d="M 69.218182 -33.00705 
L 69.218182 -23.76 
L 85.237321 -23.76 
L 101.256459 -23.76 
L 117.275598 -23.76 
L 133.294737 -23.76 
L 149.313876 -23.76 
L 165.333014 -23.76 
L 181.352153 -23.76 
L 197.371292 -23.76 
L 213.390431 -23.76 
L 229.409569 -23.76 
L 245.428708 -23.76 
L 261.447847 -23.76 
L 277.466986 -23.76 
L 293.486124 -23.76 
L 309.505263 -23.76 
L 325.524402 -23.76 
L 341.543541 -23.76 
L 357.562679 -23.76 
L 373.581818 -23.76 
L 373.581818 -30.505101 
L 373.581818 -30.505101 
L 357.562679 -30.577728 
L 341.543541 -30.424474 
L 325.524402 -30.881525 
L 309.505263 -31.049437 
L 293.486124 -31.148535 
L 277.466986 -31.74354 
L 261.447847 -32.152241 
L 245.428708 -33.088869 
L 229.409569 -32.941946 
L 213.390431 -33.835603 
L 197.371292 -34.011088 
L 181.352153 -33.909637 
L 165.333014 -34.874986 
L 149.313876 -34.487319 
L 133.294737 -34.326834 
L 117.275598 -34.27764 
L 101.256459 -34.373883 
L 85.237321 -33.665904 
L 69.218182 -33.00705 
z
" style="stroke: #1f77b4"/>
    </defs>
    <g clip-path="url(#p87e7a96661)">
     <use xlink:href="#m4ce7980e9a" x="0" y="216" style="fill: #1f77b4; stroke: #1f77b4"/>
    </g>
   </g>
   <g id="PolyCollection_2">
    <defs>
     <path id="mc4cffecd38" d="M 69.218182 -43.41384 
L 69.218182 -33.00705 
L 85.237321 -33.665904 
L 101.256459 -34.373883 
L 117.275598 -34.27764 
L 133.294737 -34.326834 
L 149.313876 -34.487319 
L 165.333014 -34.874986 
L 181.352153 -33.909637 
L 197.371292 -34.011088 
L 213.390431 -33.835603 
L 229.409569 -32.941946 
L 245.428708 -33.088869 
L 261.447847 -32.152241 
L 277.466986 -31.74354 
L 293.486124 -31.148535 
L 309.505263 -31.049437 
L 325.524402 -30.881525 
L 341.543541 -30.424474 
L 357.562679 -30.577728 
L 373.581818 -30.505101 
L 373.581818 -38.886036 
L 373.581818 -38.886036 
L 357.562679 -39.012643 
L 341.543541 -38.498718 
L 325.524402 -39.319403 
L 309.505263 -39.750834 
L 293.486124 -40.294038 
L 277.466986 -41.162428 
L 261.447847 -41.612926 
L 245.428708 -43.575745 
L 229.409569 -43.510962 
L 213.390431 -45.475265 
L 197.371292 -46.171383 
L 181.352153 -45.862155 
L 165.333014 -46.448781 
L 149.313876 -45.906196 
L 133.294737 -46.024585 
L 117.275598 -46.307473 
L 101.256459 -46.313098 
L 85.237321 -44.245417 
L 69.218182 -43.41384 
z
" style="stroke: #ff7f0e"/>
    </defs>
    <g clip-path="url(#p87e7a96661)">
     <use xlink:href="#mc4cffecd38" x="0" y="216" style="fill: #ff7f0e; stroke: #ff7f0e"/>
    </g>
   </g>
   <g id="PolyCollection_3">
    <defs>
     <path id="m8482f35e9f" d="M 69.218182 -57.164225 
L 69.218182 -43.41384 
L 85.237321 -44.245417 
L 101.256459 -46.313098 
L 117.275598 -46.307473 
L 133.294737 -46.024585 
L 149.313876 -45.906196 
L 165.333014 -46.448781 
L 181.352153 -45.862155 
L 197.371292 -46.171383 
L 213.390431 -45.475265 
L 229.409569 -43.510962 
L 245.428708 -43.575745 
L 261.447847 -41.612926 
L 277.466986 -41.162428 
L 293.486124 -40.294038 
L 309.505263 -39.750834 
L 325.524402 -39.319403 
L 341.543541 -38.498718 
L 357.562679 -39.012643 
L 373.581818 -38.886036 
L 373.581818 -57.04723 
L 373.581818 -57.04723 
L 357.562679 -57.585199 
L 341.543541 -57.754877 
L 325.524402 -57.273921 
L 309.505263 -58.299881 
L 293.486124 -55.640557 
L 277.466986 -55.541456 
L 261.447847 -56.393364 
L 245.428708 -56.807632 
L 229.409569 -56.374469 
L 213.390431 -57.625345 
L 197.371292 -57.699792 
L 181.352153 -57.128948 
L 165.333014 -58.473935 
L 149.313876 -58.025006 
L 133.294737 -57.650508 
L 117.275598 -59.055344 
L 101.256459 -58.705141 
L 85.237321 -56.643408 
L 69.218182 -57.164225 
z
" style="stroke: #2ca02c"/>
    </defs>
    <g clip-path="url(#p87e7a96661)">
     <use xlink:href="#m8482f35e9f" x="0" y="216" style="fill: #2ca02c; stroke: #2ca02c"/>
    </g>
   </g>
   <g id="PolyCollection_4">
    <defs>
     <path id="m6f62b892a2" d="M 69.218182 -69.264541 
L 69.218182 -57.164225 
L 85.237321 -56.643408 
L 101.256459 -58.705141 
L 117.275598 -59.055344 
L 133.294737 -57.650508 
L 149.313876 -58.025006 
L 165.333014 -58.473935 
L 181.352153 -57.128948 
L 197.371292 -57.699792 
L 213.390431 -57.625345 
L 229.409569 -56.374469 
L 245.428708 -56.807632 
L 261.447847 -56.393364 
L 277.466986 -55.541456 
L 293.486124 -55.640557 
L 309.505263 -58.299881 
L 325.524402 -57.273921 
L 341.543541 -57.754877 
L 357.562679 -57.585199 
L 373.581818 -57.04723 
L 373.581818 -66.23644 
L 373.581818 -66.23644 
L 357.562679 -65.958619 
L 341.543541 -66.50836 
L 325.524402 -65.714189 
L 309.505263 -66.700792 
L 293.486124 -64.561202 
L 277.466986 -64.684231 
L 261.447847 -65.779602 
L 245.428708 -67.441969 
L 229.409569 -67.706024 
L 213.390431 -68.639121 
L 197.371292 -69.04346 
L 181.352153 -69.250536 
L 165.333014 -70.6064 
L 149.313876 -70.056888 
L 133.294737 -69.476479 
L 117.275598 -70.792954 
L 101.256459 -70.608868 
L 85.237321 -68.676209 
L 69.218182 -69.264541 
z
" style="stroke: #d62728"/>
    </defs>
    <g clip-path="url(#p87e7a96661)">
     <use xlink:href="#m6f62b892a2" x="0" y="216" style="fill: #d62728; stroke: #d62728"/>
    </g>
   </g>
   <g id="PolyCollection_5">
    <defs>
     <path id="md12bbf853e" d="M 69.218182 -76.964041 
L 69.218182 -69.264541 
L 85.237321 -68.676209 
L 101.256459 -70.608868 
L 117.275598 -70.792954 
L 133.294737 -69.476479 
L 149.313876 -70.056888 
L 165.333014 -70.6064 
L 181.352153 -69.250536 
L 197.371292 -69.04346 
L 213.390431 -68.639121 
L 229.409569 -67.706024 
L 245.428708 -67.441969 
L 261.447847 -65.779602 
L 277.466986 -64.684231 
L 293.486124 -64.561202 
L 309.505263 -66.700792 
L 325.524402 -65.714189 
L 341.543541 -66.50836 
L 357.562679 -65.958619 
L 373.581818 -66.23644 
L 373.581818 -72.779363 
L 373.581818 -72.779363 
L 357.562679 -71.977116 
L 341.543541 -72.099139 
L 325.524402 -70.837434 
L 309.505263 -71.72225 
L 293.486124 -69.789569 
L 277.466986 -70.108254 
L 261.447847 -71.242693 
L 245.428708 -73.429758 
L 229.409569 -73.845501 
L 213.390431 -75.016867 
L 197.371292 -76.096873 
L 181.352153 -77.0565 
L 165.333014 -78.329115 
L 149.313876 -77.571709 
L 133.294737 -76.955131 
L 117.275598 -77.764932 
L 101.256459 -77.635496 
L 85.237321 -76.059909 
L 69.218182 -76.964041 
z
" style="stroke: #9467bd"/>
    </defs>
    <g clip-path="url(#p87e7a96661)">
     <use xlink:href="#md12bbf853e" x="0" y="216" style="fill: #9467bd; stroke: #9467bd"/>
    </g>
   </g>
   <g id="PolyCollection_6">
    <defs>
     <path id="m917ae13d29" d="M 69.218182 -86.483985 
L 69.218182 -76.964041 
L 85.237321 -76.059909 
L 101.256459 -77.635496 
L 117.275598 -77.764932 
L 133.294737 -76.955131 
L 149.313876 -77.571709 
L 165.333014 -78.329115 
L 181.352153 -77.0565 
L 197.371292 -76.096873 
L 213.390431 -75.016867 
L 229.409569 -73.845501 
L 245.428708 -73.429758 
L 261.447847 -71.242693 
L 277.466986 -70.108254 
L 293.486124 -69.789569 
L 309.505263 -71.72225 
L 325.524402 -70.837434 
L 341.543541 -72.099139 
L 357.562679 -71.977116 
L 373.581818 -72.779363 
L 373.581818 -83.424302 
L 373.581818 -83.424302 
L 357.562679 -82.914253 
L 341.543541 -82.692472 
L 325.524402 -81.602421 
L 309.505263 -83.053154 
L 293.486124 -80.623232 
L 277.466986 -81.391537 
L 261.447847 -82.917611 
L 245.428708 -85.160638 
L 229.409569 -85.448936 
L 213.390431 -86.999092 
L 197.371292 -88.04897 
L 181.352153 -88.347672 
L 165.333014 -90.132694 
L 149.313876 -88.600804 
L 133.294737 -87.45095 
L 117.275598 -87.952607 
L 101.256459 -88.195009 
L 85.237321 -86.260585 
L 69.218182 -86.483985 
z
" style="stroke: #8c564b"/>
    </defs>
    <g clip-path="url(#p87e7a96661)">
     <use xlink:href="#m917ae13d29" x="0" y="216" style="fill: #8c564b; stroke: #8c564b"/>
    </g>
   </g>
   <g id="PolyCollection_7">
    <defs>
     <path id="m309a9c88f0" d="M 69.218182 -96.627891 
L 69.218182 -86.483985 
L 85.237321 -86.260585 
L 101.256459 -88.195009 
L 117.275598 -87.952607 
L 133.294737 -87.45095 
L 149.313876 -88.600804 
L 165.333014 -90.132694 
L 181.352153 -88.347672 
L 197.371292 -88.04897 
L 213.390431 -86.999092 
L 229.409569 -85.448936 
L 245.428708 -85.160638 
L 261.447847 -82.917611 
L 277.466986 -81.391537 
L 293.486124 -80.623232 
L 309.505263 -83.053154 
L 325.524402 -81.602421 
L 341.543541 -82.692472 
L 357.562679 -82.914253 
L 373.581818 -83.424302 
L 373.581818 -92.78416 
L 373.581818 -92.78416 
L 357.562679 -92.557265 
L 341.543541 -92.412852 
L 325.524402 -90.765808 
L 309.505263 -92.040775 
L 293.486124 -89.817493 
L 277.466986 -90.54183 
L 261.447847 -92.213729 
L 245.428708 -94.903162 
L 229.409569 -95.28451 
L 213.390431 -96.460287 
L 197.371292 -97.981409 
L 181.352153 -98.632298 
L 165.333014 -100.410185 
L 149.313876 -99.200518 
L 133.294737 -98.021837 
L 117.275598 -97.227772 
L 101.256459 -97.156654 
L 85.237321 -95.986457 
L 69.218182 -96.627891 
z
" style="stroke: #e377c2"/>
    </defs>
    <g clip-path="url(#p87e7a96661)">
     <use xlink:href="#m309a9c88f0" x="0" y="216" style="fill: #e377c2; stroke: #e377c2"/>
    </g>
   </g>
   <g id="PolyCollection_8">
    <defs>
     <path id="mefc0634967" d="M 69.218182 -107.878477 
L 69.218182 -96.627891 
L 85.237321 -95.986457 
L 101.256459 -97.156654 
L 117.275598 -97.227772 
L 133.294737 -98.021837 
L 149.313876 -99.200518 
L 165.333014 -100.410185 
L 181.352153 -98.632298 
L 197.371292 -97.981409 
L 213.390431 -96.460287 
L 229.409569 -95.28451 
L 245.428708 -94.903162 
L 261.447847 -92.213729 
L 277.466986 -90.54183 
L 293.486124 -89.817493 
L 309.505263 -92.040775 
L 325.524402 -90.765808 
L 341.543541 -92.412852 
L 357.562679 -92.557265 
L 373.581818 -92.78416 
L 373.581818 -104.070571 
L 373.581818 -104.070571 
L 357.562679 -103.233154 
L 341.543541 -102.959474 
L 325.524402 -101.058146 
L 309.505263 -102.193671 
L 293.486124 -100.839678 
L 277.466986 -100.681676 
L 261.447847 -102.283691 
L 245.428708 -105.317963 
L 229.409569 -105.912271 
L 213.390431 -106.982858 
L 197.371292 -108.416728 
L 181.352153 -109.018842 
L 165.333014 -109.939797 
L 149.313876 -109.620007 
L 133.294737 -109.065012 
L 117.275598 -108.181281 
L 101.256459 -108.008402 
L 85.237321 -106.598979 
L 69.218182 -107.878477 
z
" style="stroke: #7f7f7f"/>
    </defs>
    <g clip-path="url(#p87e7a96661)">
     <use xlink:href="#mefc0634967" x="0" y="216" style="fill: #7f7f7f; stroke: #7f7f7f"/>
    </g>
   </g>
   <g id="PolyCollection_9">
    <defs>
     <path id="m2f88111faf" d="M 69.218182 -121.179188 
L 69.218182 -107.878477 
L 85.237321 -106.598979 
L 101.256459 -108.008402 
L 117.275598 -108.181281 
L 133.294737 -109.065012 
L 149.313876 -109.620007 
L 165.333014 -109.939797 
L 181.352153 -109.018842 
L 197.371292 -108.416728 
L 213.390431 -106.982858 
L 229.409569 -105.912271 
L 245.428708 -105.317963 
L 261.447847 -102.283691 
L 277.466986 -100.681676 
L 293.486124 -100.839678 
L 309.505263 -102.193671 
L 325.524402 -101.058146 
L 341.543541 -102.959474 
L 357.562679 -103.233154 
L 373.581818 -104.070571 
L 373.581818 -120.12387 
L 373.581818 -120.12387 
L 357.562679 -118.749003 
L 341.543541 -118.339199 
L 325.524402 -116.582512 
L 309.505263 -117.071185 
L 293.486124 -115.441569 
L 277.466986 -113.607907 
L 261.447847 -115.912053 
L 245.428708 -118.581144 
L 229.409569 -119.722345 
L 213.390431 -120.774481 
L 197.371292 -121.938821 
L 181.352153 -122.201903 
L 165.333014 -123.122339 
L 149.313876 -124.857505 
L 133.294737 -123.33694 
L 117.275598 -122.48655 
L 101.256459 -121.597293 
L 85.237321 -119.652631 
L 69.218182 -121.179188 
z
" style="stroke: #bcbd22"/>
    </defs>
    <g clip-path="url(#p87e7a96661)">
     <use xlink:href="#m2f88111faf" x="0" y="216" style="fill: #bcbd22; stroke: #bcbd22"/>
    </g>
   </g>
   <g id="PolyCollection_10">
    <defs>
     <path id="m1d2dc53a39" d="M 69.218182 -133.528096 
L 69.218182 -121.179188 
L 85.237321 -119.652631 
L 101.256459 -121.597293 
L 117.275598 -122.48655 
L 133.294737 -123.33694 
L 149.313876 -124.857505 
L 165.333014 -123.122339 
L 181.352153 -122.201903 
L 197.371292 -121.938821 
L 213.390431 -120.774481 
L 229.409569 -119.722345 
L 245.428708 -118.581144 
L 261.447847 -115.912053 
L 277.466986 -113.607907 
L 293.486124 -115.441569 
L 309.505263 -117.071185 
L 325.524402 -116.582512 
L 341.543541 -118.339199 
L 357.562679 -118.749003 
L 373.581818 -120.12387 
L 373.581818 -131.95835 
L 373.581818 -131.95835 
L 357.562679 -131.324026 
L 341.543541 -131.192809 
L 325.524402 -130.185916 
L 309.505263 -130.062046 
L 293.486124 -128.480778 
L 277.466986 -127.530517 
L 261.447847 -128.210825 
L 245.428708 -131.04244 
L 229.409569 -131.859736 
L 213.390431 -132.649029 
L 197.371292 -133.445459 
L 181.352153 -133.887986 
L 165.333014 -134.835547 
L 149.313876 -135.880224 
L 133.294737 -135.345649 
L 117.275598 -134.44031 
L 101.256459 -133.707133 
L 85.237321 -131.672201 
L 69.218182 -133.528096 
z
" style="stroke: #17becf"/>
    </defs>
    <g clip-path="url(#p87e7a96661)">
     <use xlink:href="#m1d2dc53a39" x="0" y="216" style="fill: #17becf; stroke: #17becf"/>
    </g>
   </g>
   <g id="PolyCollection_11">
    <defs>
     <path id="ma010a1dc8c" d="M 69.218182 -145.858808 
L 69.218182 -133.528096 
L 85.237321 -131.672201 
L 101.256459 -133.707133 
L 117.275598 -134.44031 
L 133.294737 -135.345649 
L 149.313876 -135.880224 
L 165.333014 -134.835547 
L 181.352153 -133.887986 
L 197.371292 -133.445459 
L 213.390431 -132.649029 
L 229.409569 -131.859736 
L 245.428708 -131.04244 
L 261.447847 -128.210825 
L 277.466986 -127.530517 
L 293.486124 -128.480778 
L 309.505263 -130.062046 
L 325.524402 -130.185916 
L 341.543541 -131.192809 
L 357.562679 -131.324026 
L 373.581818 -131.95835 
L 373.581818 -141.303077 
L 373.581818 -141.303077 
L 357.562679 -140.811519 
L 341.543541 -139.655083 
L 325.524402 -138.23801 
L 309.505263 -138.102278 
L 293.486124 -137.06218 
L 277.466986 -136.866968 
L 261.447847 -137.840803 
L 245.428708 -140.287116 
L 229.409569 -141.062168 
L 213.390431 -142.180848 
L 197.371292 -143.724816 
L 181.352153 -144.366646 
L 165.333014 -145.407413 
L 149.313876 -145.776668 
L 133.294737 -145.000349 
L 117.275598 -144.873462 
L 101.256459 -144.555625 
L 85.237321 -144.439063 
L 69.218182 -145.858808 
z
" style="stroke: #1f77b4"/>
    </defs>
    <g clip-path="url(#p87e7a96661)">
     <use xlink:href="#ma010a1dc8c" x="0" y="216" style="fill: #1f77b4; stroke: #1f77b4"/>
    </g>
   </g>
   <g id="PolyCollection_12">
    <defs>
     <path id="m36ef62387b" d="M 69.218182 -157.095385 
L 69.218182 -145.858808 
L 85.237321 -144.439063 
L 101.256459 -144.555625 
L 117.275598 -144.873462 
L 133.294737 -145.000349 
L 149.313876 -145.776668 
L 165.333014 -145.407413 
L 181.352153 -144.366646 
L 197.371292 -143.724816 
L 213.390431 -142.180848 
L 229.409569 -141.062168 
L 245.428708 -140.287116 
L 261.447847 -137.840803 
L 277.466986 -136.866968 
L 293.486124 -137.06218 
L 309.505263 -138.102278 
L 325.524402 -138.23801 
L 341.543541 -139.655083 
L 357.562679 -140.811519 
L 373.581818 -141.303077 
L 373.581818 -151.339114 
L 373.581818 -151.339114 
L 357.562679 -151.139589 
L 341.543541 -150.209642 
L 325.524402 -149.698908 
L 309.505263 -149.739601 
L 293.486124 -148.852522 
L 277.466986 -149.577534 
L 261.447847 -149.345201 
L 245.428708 -152.860305 
L 229.409569 -153.409838 
L 213.390431 -154.55939 
L 197.371292 -155.771789 
L 181.352153 -156.067953 
L 165.333014 -157.089929 
L 149.313876 -156.827635 
L 133.294737 -157.949194 
L 117.275598 -156.881556 
L 101.256459 -156.511551 
L 85.237321 -156.205525 
L 69.218182 -157.095385 
z
" style="stroke: #ff7f0e"/>
    </defs>
    <g clip-path="url(#p87e7a96661)">
     <use xlink:href="#m36ef62387b" x="0" y="216" style="fill: #ff7f0e; stroke: #ff7f0e"/>
    </g>
   </g>
   <g id="PolyCollection_13">
    <defs>
     <path id="me792113e26" d="M 69.218182 -167.546194 
L 69.218182 -157.095385 
L 85.237321 -156.205525 
L 101.256459 -156.511551 
L 117.275598 -156.881556 
L 133.294737 -157.949194 
L 149.313876 -156.827635 
L 165.333014 -157.089929 
L 181.352153 -156.067953 
L 197.371292 -155.771789 
L 213.390431 -154.55939 
L 229.409569 -153.409838 
L 245.428708 -152.860305 
L 261.447847 -149.345201 
L 277.466986 -149.577534 
L 293.486124 -148.852522 
L 309.505263 -149.739601 
L 325.524402 -149.698908 
L 341.543541 -150.209642 
L 357.562679 -151.139589 
L 373.581818 -151.339114 
L 373.581818 -164.847618 
L 373.581818 -164.847618 
L 357.562679 -163.744917 
L 341.543541 -163.705623 
L 325.524402 -162.701198 
L 309.505263 -162.595961 
L 293.486124 -162.063454 
L 277.466986 -160.635597 
L 261.447847 -161.263265 
L 245.428708 -163.622209 
L 229.409569 -163.949228 
L 213.390431 -164.236859 
L 197.371292 -164.964555 
L 181.352153 -165.276601 
L 165.333014 -165.70647 
L 149.313876 -166.064957 
L 133.294737 -166.689228 
L 117.275598 -166.070309 
L 101.256459 -165.631072 
L 85.237321 -166.152072 
L 69.218182 -167.546194 
z
" style="stroke: #2ca02c"/>
    </defs>
    <g clip-path="url(#p87e7a96661)">
     <use xlink:href="#me792113e26" x="0" y="216" style="fill: #2ca02c; stroke: #2ca02c"/>
    </g>
   </g>
   <g id="PolyCollection_14">
    <defs>
     <path id="mf07e79a892" d="M 69.218182 -173.522548 
L 69.218182 -167.546194 
L 85.237321 -166.152072 
L 101.256459 -165.631072 
L 117.275598 -166.070309 
L 133.294737 -166.689228 
L 149.313876 -166.064957 
L 165.333014 -165.70647 
L 181.352153 -165.276601 
L 197.371292 -164.964555 
L 213.390431 -164.236859 
L 229.409569 -163.949228 
L 245.428708 -163.622209 
L 261.447847 -161.263265 
L 277.466986 -160.635597 
L 293.486124 -162.063454 
L 309.505263 -162.595961 
L 325.524402 -162.701198 
L 341.543541 -163.705623 
L 357.562679 -163.744917 
L 373.581818 -164.847618 
L 373.581818 -171.03741 
L 373.581818 -171.03741 
L 357.562679 -170.639443 
L 341.543541 -171.585754 
L 325.524402 -171.277942 
L 309.505263 -171.435317 
L 293.486124 -172.844377 
L 277.466986 -172.828344 
L 261.447847 -172.663713 
L 245.428708 -172.998022 
L 229.409569 -173.127354 
L 213.390431 -172.801117 
L 197.371292 -172.946112 
L 181.352153 -173.051521 
L 165.333014 -172.485459 
L 149.313876 -172.315885 
L 133.294737 -172.834059 
L 117.275598 -172.436757 
L 101.256459 -172.13764 
L 85.237321 -171.980833 
L 69.218182 -173.522548 
z
" style="stroke: #d62728"/>
    </defs>
    <g clip-path="url(#p87e7a96661)">
     <use xlink:href="#mf07e79a892" x="0" y="216" style="fill: #d62728; stroke: #d62728"/>
    </g>
   </g>
   <g id="PolyCollection_15">
    <defs>
     <path id="md469d28154" d="M 69.218182 -182.16 
L 69.218182 -173.522548 
L 85.237321 -171.980833 
L 101.256459 -172.13764 
L 117.275598 -172.436757 
L 133.294737 -172.834059 
L 149.313876 -172.315885 
L 165.333014 -172.485459 
L 181.352153 -173.051521 
L 197.371292 -172.946112 
L 213.390431 -172.801117 
L 229.409569 -173.127354 
L 245.428708 -172.998022 
L 261.447847 -172.663713 
L 277.466986 -172.828344 
L 293.486124 -172.844377 
L 309.505263 -171.435317 
L 325.524402 -171.277942 
L 341.543541 -171.585754 
L 357.562679 -170.639443 
L 373.581818 -171.03741 
L 373.581818 -182.16 
L 373.581818 -182.16 
L 357.562679 -182.16 
L 341.543541 -182.16 
L 325.524402 -182.16 
L 309.505263 -182.16 
L 293.486124 -182.16 
L 277.466986 -182.16 
L 261.447847 -182.16 
L 245.428708 -182.16 
L 229.409569 -182.16 
L 213.390431 -182.16 
L 197.371292 -182.16 
L 181.352153 -182.16 
L 165.333014 -182.16 
L 149.313876 -182.16 
L 133.294737 -182.16 
L 117.275598 -182.16 
L 101.256459 -182.16 
L 85.237321 -182.16 
L 69.218182 -182.16 
z
" style="stroke: #9467bd"/>
    </defs>
    <g clip-path="url(#p87e7a96661)">
     <use xlink:href="#md469d28154" x="0" y="216" style="fill: #9467bd; stroke: #9467bd"/>
    </g>
   </g>
   <g id="matplotlib.axis_1">
    <g id="xtick_1">
     <g id="line2d_1">
      <defs>
       <path id="m77bbbcb613" d="M 0 0 
L 0 3.5 
" style="stroke: #000000; stroke-width: 0.8"/>
      </defs>
      <g>
       <use xlink:href="#m77bbbcb613" x="93.24689" y="192.24" style="stroke: #000000; stroke-width: 0.8"/>
      </g>
     </g>
     <g id="text_1">
      <!-- 2.5 -->
      <g transform="translate(85.295327 206.838437)scale(0.1 -0.1)">
       <defs>
        <path id="DejaVuSans-32" d="M 1228 531 
L 3431 531 
L 3431 0 
L 469 0 
L 469 531 
Q 828 903 1448 1529 
Q 2069 2156 2228 2338 
Q 2531 2678 2651 2914 
Q 2772 3150 2772 3378 
Q 2772 3750 2511 3984 
Q 2250 4219 1831 4219 
Q 1534 4219 1204 4116 
Q 875 4013 500 3803 
L 500 4441 
Q 881 4594 1212 4672 
Q 1544 4750 1819 4750 
Q 2544 4750 2975 4387 
Q 3406 4025 3406 3419 
Q 3406 3131 3298 2873 
Q 3191 2616 2906 2266 
Q 2828 2175 2409 1742 
Q 1991 1309 1228 531 
z
" transform="scale(0.015625)"/>
        <path id="DejaVuSans-2e" d="M 684 794 
L 1344 794 
L 1344 0 
L 684 0 
L 684 794 
z
" transform="scale(0.015625)"/>
        <path id="DejaVuSans-35" d="M 691 4666 
L 3169 4666 
L 3169 4134 
L 1269 4134 
L 1269 2991 
Q 1406 3038 1543 3061 
Q 1681 3084 1819 3084 
Q 2600 3084 3056 2656 
Q 3513 2228 3513 1497 
Q 3513 744 3044 326 
Q 2575 -91 1722 -91 
Q 1428 -91 1123 -41 
Q 819 9 494 109 
L 494 744 
Q 775 591 1075 516 
Q 1375 441 1709 441 
Q 2250 441 2565 725 
Q 2881 1009 2881 1497 
Q 2881 1984 2565 2268 
Q 2250 2553 1709 2553 
Q 1456 2553 1204 2497 
Q 953 2441 691 2322 
L 691 4666 
z
" transform="scale(0.015625)"/>
       </defs>
       <use xlink:href="#DejaVuSans-32"/>
       <use xlink:href="#DejaVuSans-2e" x="63.623047"/>
       <use xlink:href="#DejaVuSans-35" x="95.410156"/>
      </g>
     </g>
    </g>
    <g id="xtick_2">
     <g id="line2d_2">
      <g>
       <use xlink:href="#m77bbbcb613" x="133.294737" y="192.24" style="stroke: #000000; stroke-width: 0.8"/>
      </g>
     </g>
     <g id="text_2">
      <!-- 5.0 -->
      <g transform="translate(125.343174 206.838437)scale(0.1 -0.1)">
       <defs>
        <path id="DejaVuSans-30" d="M 2034 4250 
Q 1547 4250 1301 3770 
Q 1056 3291 1056 2328 
Q 1056 1369 1301 889 
Q 1547 409 2034 409 
Q 2525 409 2770 889 
Q 3016 1369 3016 2328 
Q 3016 3291 2770 3770 
Q 2525 4250 2034 4250 
z
M 2034 4750 
Q 2819 4750 3233 4129 
Q 3647 3509 3647 2328 
Q 3647 1150 3233 529 
Q 2819 -91 2034 -91 
Q 1250 -91 836 529 
Q 422 1150 422 2328 
Q 422 3509 836 4129 
Q 1250 4750 2034 4750 
z
" transform="scale(0.015625)"/>
       </defs>
       <use xlink:href="#DejaVuSans-35"/>
       <use xlink:href="#DejaVuSans-2e" x="63.623047"/>
       <use xlink:href="#DejaVuSans-30" x="95.410156"/>
      </g>
     </g>
    </g>
    <g id="xtick_3">
     <g id="line2d_3">
      <g>
       <use xlink:href="#m77bbbcb613" x="173.342584" y="192.24" style="stroke: #000000; stroke-width: 0.8"/>
      </g>
     </g>
     <g id="text_3">
      <!-- 7.5 -->
      <g transform="translate(165.391021 206.838437)scale(0.1 -0.1)">
       <defs>
        <path id="DejaVuSans-37" d="M 525 4666 
L 3525 4666 
L 3525 4397 
L 1831 0 
L 1172 0 
L 2766 4134 
L 525 4134 
L 525 4666 
z
" transform="scale(0.015625)"/>
       </defs>
       <use xlink:href="#DejaVuSans-37"/>
       <use xlink:href="#DejaVuSans-2e" x="63.623047"/>
       <use xlink:href="#DejaVuSans-35" x="95.410156"/>
      </g>
     </g>
    </g>
    <g id="xtick_4">
     <g id="line2d_4">
      <g>
       <use xlink:href="#m77bbbcb613" x="213.390431" y="192.24" style="stroke: #000000; stroke-width: 0.8"/>
      </g>
     </g>
     <g id="text_4">
      <!-- 10.0 -->
      <g transform="translate(202.257618 206.838437)scale(0.1 -0.1)">
       <defs>
        <path id="DejaVuSans-31" d="M 794 531 
L 1825 531 
L 1825 4091 
L 703 3866 
L 703 4441 
L 1819 4666 
L 2450 4666 
L 2450 531 
L 3481 531 
L 3481 0 
L 794 0 
L 794 531 
z
" transform="scale(0.015625)"/>
       </defs>
       <use xlink:href="#DejaVuSans-31"/>
       <use xlink:href="#DejaVuSans-30" x="63.623047"/>
       <use xlink:href="#DejaVuSans-2e" x="127.246094"/>
       <use xlink:href="#DejaVuSans-30" x="159.033203"/>
      </g>
     </g>
    </g>
    <g id="xtick_5">
     <g id="line2d_5">
      <g>
       <use xlink:href="#m77bbbcb613" x="253.438278" y="192.24" style="stroke: #000000; stroke-width: 0.8"/>
      </g>
     </g>
     <g id="text_5">
      <!-- 12.5 -->
      <g transform="translate(242.305465 206.838437)scale(0.1 -0.1)">
       <use xlink:href="#DejaVuSans-31"/>
       <use xlink:href="#DejaVuSans-32" x="63.623047"/>
       <use xlink:href="#DejaVuSans-2e" x="127.246094"/>
       <use xlink:href="#DejaVuSans-35" x="159.033203"/>
      </g>
     </g>
    </g>
    <g id="xtick_6">
     <g id="line2d_6">
      <g>
       <use xlink:href="#m77bbbcb613" x="293.486124" y="192.24" style="stroke: #000000; stroke-width: 0.8"/>
      </g>
     </g>
     <g id="text_6">
      <!-- 15.0 -->
      <g transform="translate(282.353312 206.838437)scale(0.1 -0.1)">
       <use xlink:href="#DejaVuSans-31"/>
       <use xlink:href="#DejaVuSans-35" x="63.623047"/>
       <use xlink:href="#DejaVuSans-2e" x="127.246094"/>
       <use xlink:href="#DejaVuSans-30" x="159.033203"/>
      </g>
     </g>
    </g>
    <g id="xtick_7">
     <g id="line2d_7">
      <g>
       <use xlink:href="#m77bbbcb613" x="333.533971" y="192.24" style="stroke: #000000; stroke-width: 0.8"/>
      </g>
     </g>
     <g id="text_7">
      <!-- 17.5 -->
      <g transform="translate(322.401159 206.838437)scale(0.1 -0.1)">
       <use xlink:href="#DejaVuSans-31"/>
       <use xlink:href="#DejaVuSans-37" x="63.623047"/>
       <use xlink:href="#DejaVuSans-2e" x="127.246094"/>
       <use xlink:href="#DejaVuSans-35" x="159.033203"/>
      </g>
     </g>
    </g>
    <g id="xtick_8">
     <g id="line2d_8">
      <g>
       <use xlink:href="#m77bbbcb613" x="373.581818" y="192.24" style="stroke: #000000; stroke-width: 0.8"/>
      </g>
     </g>
     <g id="text_8">
      <!-- 20.0 -->
      <g transform="translate(362.449006 206.838437)scale(0.1 -0.1)">
       <use xlink:href="#DejaVuSans-32"/>
       <use xlink:href="#DejaVuSans-30" x="63.623047"/>
       <use xlink:href="#DejaVuSans-2e" x="127.246094"/>
       <use xlink:href="#DejaVuSans-30" x="159.033203"/>
      </g>
     </g>
    </g>
    <g id="text_9">
     <!-- Rebalance Period -->
     <g transform="translate(178.210938 220.516562)scale(0.1 -0.1)">
      <defs>
       <path id="DejaVuSans-52" d="M 2841 2188 
Q 3044 2119 3236 1894 
Q 3428 1669 3622 1275 
L 4263 0 
L 3584 0 
L 2988 1197 
Q 2756 1666 2539 1819 
Q 2322 1972 1947 1972 
L 1259 1972 
L 1259 0 
L 628 0 
L 628 4666 
L 2053 4666 
Q 2853 4666 3247 4331 
Q 3641 3997 3641 3322 
Q 3641 2881 3436 2590 
Q 3231 2300 2841 2188 
z
M 1259 4147 
L 1259 2491 
L 2053 2491 
Q 2509 2491 2742 2702 
Q 2975 2913 2975 3322 
Q 2975 3731 2742 3939 
Q 2509 4147 2053 4147 
L 1259 4147 
z
" transform="scale(0.015625)"/>
       <path id="DejaVuSans-65" d="M 3597 1894 
L 3597 1613 
L 953 1613 
Q 991 1019 1311 708 
Q 1631 397 2203 397 
Q 2534 397 2845 478 
Q 3156 559 3463 722 
L 3463 178 
Q 3153 47 2828 -22 
Q 2503 -91 2169 -91 
Q 1331 -91 842 396 
Q 353 884 353 1716 
Q 353 2575 817 3079 
Q 1281 3584 2069 3584 
Q 2775 3584 3186 3129 
Q 3597 2675 3597 1894 
z
M 3022 2063 
Q 3016 2534 2758 2815 
Q 2500 3097 2075 3097 
Q 1594 3097 1305 2825 
Q 1016 2553 972 2059 
L 3022 2063 
z
" transform="scale(0.015625)"/>
       <path id="DejaVuSans-62" d="M 3116 1747 
Q 3116 2381 2855 2742 
Q 2594 3103 2138 3103 
Q 1681 3103 1420 2742 
Q 1159 2381 1159 1747 
Q 1159 1113 1420 752 
Q 1681 391 2138 391 
Q 2594 391 2855 752 
Q 3116 1113 3116 1747 
z
M 1159 2969 
Q 1341 3281 1617 3432 
Q 1894 3584 2278 3584 
Q 2916 3584 3314 3078 
Q 3713 2572 3713 1747 
Q 3713 922 3314 415 
Q 2916 -91 2278 -91 
Q 1894 -91 1617 61 
Q 1341 213 1159 525 
L 1159 0 
L 581 0 
L 581 4863 
L 1159 4863 
L 1159 2969 
z
" transform="scale(0.015625)"/>
       <path id="DejaVuSans-61" d="M 2194 1759 
Q 1497 1759 1228 1600 
Q 959 1441 959 1056 
Q 959 750 1161 570 
Q 1363 391 1709 391 
Q 2188 391 2477 730 
Q 2766 1069 2766 1631 
L 2766 1759 
L 2194 1759 
z
M 3341 1997 
L 3341 0 
L 2766 0 
L 2766 531 
Q 2569 213 2275 61 
Q 1981 -91 1556 -91 
Q 1019 -91 701 211 
Q 384 513 384 1019 
Q 384 1609 779 1909 
Q 1175 2209 1959 2209 
L 2766 2209 
L 2766 2266 
Q 2766 2663 2505 2880 
Q 2244 3097 1772 3097 
Q 1472 3097 1187 3025 
Q 903 2953 641 2809 
L 641 3341 
Q 956 3463 1253 3523 
Q 1550 3584 1831 3584 
Q 2591 3584 2966 3190 
Q 3341 2797 3341 1997 
z
" transform="scale(0.015625)"/>
       <path id="DejaVuSans-6c" d="M 603 4863 
L 1178 4863 
L 1178 0 
L 603 0 
L 603 4863 
z
" transform="scale(0.015625)"/>
       <path id="DejaVuSans-6e" d="M 3513 2113 
L 3513 0 
L 2938 0 
L 2938 2094 
Q 2938 2591 2744 2837 
Q 2550 3084 2163 3084 
Q 1697 3084 1428 2787 
Q 1159 2491 1159 1978 
L 1159 0 
L 581 0 
L 581 3500 
L 1159 3500 
L 1159 2956 
Q 1366 3272 1645 3428 
Q 1925 3584 2291 3584 
Q 2894 3584 3203 3211 
Q 3513 2838 3513 2113 
z
" transform="scale(0.015625)"/>
       <path id="DejaVuSans-63" d="M 3122 3366 
L 3122 2828 
Q 2878 2963 2633 3030 
Q 2388 3097 2138 3097 
Q 1578 3097 1268 2742 
Q 959 2388 959 1747 
Q 959 1106 1268 751 
Q 1578 397 2138 397 
Q 2388 397 2633 464 
Q 2878 531 3122 666 
L 3122 134 
Q 2881 22 2623 -34 
Q 2366 -91 2075 -91 
Q 1284 -91 818 406 
Q 353 903 353 1747 
Q 353 2603 823 3093 
Q 1294 3584 2113 3584 
Q 2378 3584 2631 3529 
Q 2884 3475 3122 3366 
z
" transform="scale(0.015625)"/>
       <path id="DejaVuSans-20" transform="scale(0.015625)"/>
       <path id="DejaVuSans-50" d="M 1259 4147 
L 1259 2394 
L 2053 2394 
Q 2494 2394 2734 2622 
Q 2975 2850 2975 3272 
Q 2975 3691 2734 3919 
Q 2494 4147 2053 4147 
L 1259 4147 
z
M 628 4666 
L 2053 4666 
Q 2838 4666 3239 4311 
Q 3641 3956 3641 3272 
Q 3641 2581 3239 2228 
Q 2838 1875 2053 1875 
L 1259 1875 
L 1259 0 
L 628 0 
L 628 4666 
z
" transform="scale(0.015625)"/>
       <path id="DejaVuSans-72" d="M 2631 2963 
Q 2534 3019 2420 3045 
Q 2306 3072 2169 3072 
Q 1681 3072 1420 2755 
Q 1159 2438 1159 1844 
L 1159 0 
L 581 0 
L 581 3500 
L 1159 3500 
L 1159 2956 
Q 1341 3275 1631 3429 
Q 1922 3584 2338 3584 
Q 2397 3584 2469 3576 
Q 2541 3569 2628 3553 
L 2631 2963 
z
" transform="scale(0.015625)"/>
       <path id="DejaVuSans-69" d="M 603 3500 
L 1178 3500 
L 1178 0 
L 603 0 
L 603 3500 
z
M 603 4863 
L 1178 4863 
L 1178 4134 
L 603 4134 
L 603 4863 
z
" transform="scale(0.015625)"/>
       <path id="DejaVuSans-6f" d="M 1959 3097 
Q 1497 3097 1228 2736 
Q 959 2375 959 1747 
Q 959 1119 1226 758 
Q 1494 397 1959 397 
Q 2419 397 2687 759 
Q 2956 1122 2956 1747 
Q 2956 2369 2687 2733 
Q 2419 3097 1959 3097 
z
M 1959 3584 
Q 2709 3584 3137 3096 
Q 3566 2609 3566 1747 
Q 3566 888 3137 398 
Q 2709 -91 1959 -91 
Q 1206 -91 779 398 
Q 353 888 353 1747 
Q 353 2609 779 3096 
Q 1206 3584 1959 3584 
z
" transform="scale(0.015625)"/>
       <path id="DejaVuSans-64" d="M 2906 2969 
L 2906 4863 
L 3481 4863 
L 3481 0 
L 2906 0 
L 2906 525 
Q 2725 213 2448 61 
Q 2172 -91 1784 -91 
Q 1150 -91 751 415 
Q 353 922 353 1747 
Q 353 2572 751 3078 
Q 1150 3584 1784 3584 
Q 2172 3584 2448 3432 
Q 2725 3281 2906 2969 
z
M 947 1747 
Q 947 1113 1208 752 
Q 1469 391 1925 391 
Q 2381 391 2643 752 
Q 2906 1113 2906 1747 
Q 2906 2381 2643 2742 
Q 2381 3103 1925 3103 
Q 1469 3103 1208 2742 
Q 947 2381 947 1747 
z
" transform="scale(0.015625)"/>
      </defs>
      <use xlink:href="#DejaVuSans-52"/>
      <use xlink:href="#DejaVuSans-65" x="64.982422"/>
      <use xlink:href="#DejaVuSans-62" x="126.505859"/>
      <use xlink:href="#DejaVuSans-61" x="189.982422"/>
      <use xlink:href="#DejaVuSans-6c" x="251.261719"/>
      <use xlink:href="#DejaVuSans-61" x="279.044922"/>
      <use xlink:href="#DejaVuSans-6e" x="340.324219"/>
      <use xlink:href="#DejaVuSans-63" x="403.703125"/>
      <use xlink:href="#DejaVuSans-65" x="458.683594"/>
      <use xlink:href="#DejaVuSans-20" x="520.207031"/>
      <use xlink:href="#DejaVuSans-50" x="551.994141"/>
      <use xlink:href="#DejaVuSans-65" x="608.671875"/>
      <use xlink:href="#DejaVuSans-72" x="670.195312"/>
      <use xlink:href="#DejaVuSans-69" x="711.308594"/>
      <use xlink:href="#DejaVuSans-6f" x="739.091797"/>
      <use xlink:href="#DejaVuSans-64" x="800.273438"/>
     </g>
    </g>
   </g>
   <g id="matplotlib.axis_2">
    <g id="ytick_1">
     <g id="line2d_9">
      <defs>
       <path id="m46acc80bcc" d="M 0 0 
L -3.5 0 
" style="stroke: #000000; stroke-width: 0.8"/>
      </defs>
      <g>
       <use xlink:href="#m46acc80bcc" x="54" y="192.24" style="stroke: #000000; stroke-width: 0.8"/>
      </g>
     </g>
     <g id="text_10">
      <!-- 0.0 -->
      <g transform="translate(31.096875 196.039219)scale(0.1 -0.1)">
       <use xlink:href="#DejaVuSans-30"/>
       <use xlink:href="#DejaVuSans-2e" x="63.623047"/>
       <use xlink:href="#DejaVuSans-30" x="95.410156"/>
      </g>
     </g>
    </g>
    <g id="ytick_2">
     <g id="line2d_10">
      <g>
       <use xlink:href="#m46acc80bcc" x="54" y="160.56" style="stroke: #000000; stroke-width: 0.8"/>
      </g>
     </g>
     <g id="text_11">
      <!-- 0.2 -->
      <g transform="translate(31.096875 164.359219)scale(0.1 -0.1)">
       <use xlink:href="#DejaVuSans-30"/>
       <use xlink:href="#DejaVuSans-2e" x="63.623047"/>
       <use xlink:href="#DejaVuSans-32" x="95.410156"/>
      </g>
     </g>
    </g>
    <g id="ytick_3">
     <g id="line2d_11">
      <g>
       <use xlink:href="#m46acc80bcc" x="54" y="128.88" style="stroke: #000000; stroke-width: 0.8"/>
      </g>
     </g>
     <g id="text_12">
      <!-- 0.4 -->
      <g transform="translate(31.096875 132.679219)scale(0.1 -0.1)">
       <defs>
        <path id="DejaVuSans-34" d="M 2419 4116 
L 825 1625 
L 2419 1625 
L 2419 4116 
z
M 2253 4666 
L 3047 4666 
L 3047 1625 
L 3713 1625 
L 3713 1100 
L 3047 1100 
L 3047 0 
L 2419 0 
L 2419 1100 
L 313 1100 
L 313 1709 
L 2253 4666 
z
" transform="scale(0.015625)"/>
       </defs>
       <use xlink:href="#DejaVuSans-30"/>
       <use xlink:href="#DejaVuSans-2e" x="63.623047"/>
       <use xlink:href="#DejaVuSans-34" x="95.410156"/>
      </g>
     </g>
    </g>
    <g id="ytick_4">
     <g id="line2d_12">
      <g>
       <use xlink:href="#m46acc80bcc" x="54" y="97.2" style="stroke: #000000; stroke-width: 0.8"/>
      </g>
     </g>
     <g id="text_13">
      <!-- 0.6 -->
      <g transform="translate(31.096875 100.999219)scale(0.1 -0.1)">
       <defs>
        <path id="DejaVuSans-36" d="M 2113 2584 
Q 1688 2584 1439 2293 
Q 1191 2003 1191 1497 
Q 1191 994 1439 701 
Q 1688 409 2113 409 
Q 2538 409 2786 701 
Q 3034 994 3034 1497 
Q 3034 2003 2786 2293 
Q 2538 2584 2113 2584 
z
M 3366 4563 
L 3366 3988 
Q 3128 4100 2886 4159 
Q 2644 4219 2406 4219 
Q 1781 4219 1451 3797 
Q 1122 3375 1075 2522 
Q 1259 2794 1537 2939 
Q 1816 3084 2150 3084 
Q 2853 3084 3261 2657 
Q 3669 2231 3669 1497 
Q 3669 778 3244 343 
Q 2819 -91 2113 -91 
Q 1303 -91 875 529 
Q 447 1150 447 2328 
Q 447 3434 972 4092 
Q 1497 4750 2381 4750 
Q 2619 4750 2861 4703 
Q 3103 4656 3366 4563 
z
" transform="scale(0.015625)"/>
       </defs>
       <use xlink:href="#DejaVuSans-30"/>
       <use xlink:href="#DejaVuSans-2e" x="63.623047"/>
       <use xlink:href="#DejaVuSans-36" x="95.410156"/>
      </g>
     </g>
    </g>
    <g id="ytick_5">
     <g id="line2d_13">
      <g>
       <use xlink:href="#m46acc80bcc" x="54" y="65.52" style="stroke: #000000; stroke-width: 0.8"/>
      </g>
     </g>
     <g id="text_14">
      <!-- 0.8 -->
      <g transform="translate(31.096875 69.319219)scale(0.1 -0.1)">
       <defs>
        <path id="DejaVuSans-38" d="M 2034 2216 
Q 1584 2216 1326 1975 
Q 1069 1734 1069 1313 
Q 1069 891 1326 650 
Q 1584 409 2034 409 
Q 2484 409 2743 651 
Q 3003 894 3003 1313 
Q 3003 1734 2745 1975 
Q 2488 2216 2034 2216 
z
M 1403 2484 
Q 997 2584 770 2862 
Q 544 3141 544 3541 
Q 544 4100 942 4425 
Q 1341 4750 2034 4750 
Q 2731 4750 3128 4425 
Q 3525 4100 3525 3541 
Q 3525 3141 3298 2862 
Q 3072 2584 2669 2484 
Q 3125 2378 3379 2068 
Q 3634 1759 3634 1313 
Q 3634 634 3220 271 
Q 2806 -91 2034 -91 
Q 1263 -91 848 271 
Q 434 634 434 1313 
Q 434 1759 690 2068 
Q 947 2378 1403 2484 
z
M 1172 3481 
Q 1172 3119 1398 2916 
Q 1625 2713 2034 2713 
Q 2441 2713 2670 2916 
Q 2900 3119 2900 3481 
Q 2900 3844 2670 4047 
Q 2441 4250 2034 4250 
Q 1625 4250 1398 4047 
Q 1172 3844 1172 3481 
z
" transform="scale(0.015625)"/>
       </defs>
       <use xlink:href="#DejaVuSans-30"/>
       <use xlink:href="#DejaVuSans-2e" x="63.623047"/>
       <use xlink:href="#DejaVuSans-38" x="95.410156"/>
      </g>
     </g>
    </g>
    <g id="ytick_6">
     <g id="line2d_14">
      <g>
       <use xlink:href="#m46acc80bcc" x="54" y="33.84" style="stroke: #000000; stroke-width: 0.8"/>
      </g>
     </g>
     <g id="text_15">
      <!-- 1.0 -->
      <g transform="translate(31.096875 37.639219)scale(0.1 -0.1)">
       <use xlink:href="#DejaVuSans-31"/>
       <use xlink:href="#DejaVuSans-2e" x="63.623047"/>
       <use xlink:href="#DejaVuSans-30" x="95.410156"/>
      </g>
     </g>
    </g>
    <g id="text_16">
     <!-- Weights -->
     <g transform="translate(25.017187 129.103437)rotate(-90)scale(0.1 -0.1)">
      <defs>
       <path id="DejaVuSans-57" d="M 213 4666 
L 850 4666 
L 1831 722 
L 2809 4666 
L 3519 4666 
L 4500 722 
L 5478 4666 
L 6119 4666 
L 4947 0 
L 4153 0 
L 3169 4050 
L 2175 0 
L 1381 0 
L 213 4666 
z
" transform="scale(0.015625)"/>
       <path id="DejaVuSans-67" d="M 2906 1791 
Q 2906 2416 2648 2759 
Q 2391 3103 1925 3103 
Q 1463 3103 1205 2759 
Q 947 2416 947 1791 
Q 947 1169 1205 825 
Q 1463 481 1925 481 
Q 2391 481 2648 825 
Q 2906 1169 2906 1791 
z
M 3481 434 
Q 3481 -459 3084 -895 
Q 2688 -1331 1869 -1331 
Q 1566 -1331 1297 -1286 
Q 1028 -1241 775 -1147 
L 775 -588 
Q 1028 -725 1275 -790 
Q 1522 -856 1778 -856 
Q 2344 -856 2625 -561 
Q 2906 -266 2906 331 
L 2906 616 
Q 2728 306 2450 153 
Q 2172 0 1784 0 
Q 1141 0 747 490 
Q 353 981 353 1791 
Q 353 2603 747 3093 
Q 1141 3584 1784 3584 
Q 2172 3584 2450 3431 
Q 2728 3278 2906 2969 
L 2906 3500 
L 3481 3500 
L 3481 434 
z
" transform="scale(0.015625)"/>
       <path id="DejaVuSans-68" d="M 3513 2113 
L 3513 0 
L 2938 0 
L 2938 2094 
Q 2938 2591 2744 2837 
Q 2550 3084 2163 3084 
Q 1697 3084 1428 2787 
Q 1159 2491 1159 1978 
L 1159 0 
L 581 0 
L 581 4863 
L 1159 4863 
L 1159 2956 
Q 1366 3272 1645 3428 
Q 1925 3584 2291 3584 
Q 2894 3584 3203 3211 
Q 3513 2838 3513 2113 
z
" transform="scale(0.015625)"/>
       <path id="DejaVuSans-74" d="M 1172 4494 
L 1172 3500 
L 2356 3500 
L 2356 3053 
L 1172 3053 
L 1172 1153 
Q 1172 725 1289 603 
Q 1406 481 1766 481 
L 2356 481 
L 2356 0 
L 1766 0 
Q 1100 0 847 248 
Q 594 497 594 1153 
L 594 3053 
L 172 3053 
L 172 3500 
L 594 3500 
L 594 4494 
L 1172 4494 
z
" transform="scale(0.015625)"/>
       <path id="DejaVuSans-73" d="M 2834 3397 
L 2834 2853 
Q 2591 2978 2328 3040 
Q 2066 3103 1784 3103 
Q 1356 3103 1142 2972 
Q 928 2841 928 2578 
Q 928 2378 1081 2264 
Q 1234 2150 1697 2047 
L 1894 2003 
Q 2506 1872 2764 1633 
Q 3022 1394 3022 966 
Q 3022 478 2636 193 
Q 2250 -91 1575 -91 
Q 1294 -91 989 -36 
Q 684 19 347 128 
L 347 722 
Q 666 556 975 473 
Q 1284 391 1588 391 
Q 1994 391 2212 530 
Q 2431 669 2431 922 
Q 2431 1156 2273 1281 
Q 2116 1406 1581 1522 
L 1381 1569 
Q 847 1681 609 1914 
Q 372 2147 372 2553 
Q 372 3047 722 3315 
Q 1072 3584 1716 3584 
Q 2034 3584 2315 3537 
Q 2597 3491 2834 3397 
z
" transform="scale(0.015625)"/>
      </defs>
      <use xlink:href="#DejaVuSans-57"/>
      <use xlink:href="#DejaVuSans-65" x="93.001953"/>
      <use xlink:href="#DejaVuSans-69" x="154.525391"/>
      <use xlink:href="#DejaVuSans-67" x="182.308594"/>
      <use xlink:href="#DejaVuSans-68" x="245.785156"/>
      <use xlink:href="#DejaVuSans-74" x="309.164062"/>
      <use xlink:href="#DejaVuSans-73" x="348.373047"/>
     </g>
    </g>
   </g>
   <g id="line2d_15">
    <path d="M 69.218182 182.99295 
L 85.237321 182.334096 
L 101.256459 181.626117 
L 117.275598 181.72236 
L 133.294737 181.673166 
L 149.313876 181.512681 
L 165.333014 181.125014 
L 181.352153 182.090363 
L 197.371292 181.988912 
L 213.390431 182.164397 
L 229.409569 183.058054 
L 245.428708 182.911131 
L 261.447847 183.847759 
L 277.466986 184.25646 
L 293.486124 184.851465 
L 309.505263 184.950563 
L 325.524402 185.118475 
L 341.543541 185.575526 
L 357.562679 185.422272 
L 373.581818 185.494899 
" clip-path="url(#p87e7a96661)" style="fill: none; stroke: #1f77b4; stroke-width: 1.5; stroke-linecap: square"/>
   </g>
   <g id="line2d_16">
    <path d="M 69.218182 172.58616 
L 85.237321 171.754583 
L 101.256459 169.686902 
L 117.275598 169.692527 
L 133.294737 169.975415 
L 149.313876 170.093804 
L 165.333014 169.551219 
L 181.352153 170.137845 
L 197.371292 169.828617 
L 213.390431 170.524735 
L 229.409569 172.489038 
L 245.428708 172.424255 
L 261.447847 174.387074 
L 277.466986 174.837572 
L 293.486124 175.705962 
L 309.505263 176.249166 
L 325.524402 176.680597 
L 341.543541 177.501282 
L 357.562679 176.987357 
L 373.581818 177.113964 
" clip-path="url(#p87e7a96661)" style="fill: none; stroke: #ff7f0e; stroke-width: 1.5; stroke-linecap: square"/>
   </g>
   <g id="line2d_17">
    <path d="M 69.218182 158.835775 
L 85.237321 159.356592 
L 101.256459 157.294859 
L 117.275598 156.944656 
L 133.294737 158.349492 
L 149.313876 157.974994 
L 165.333014 157.526065 
L 181.352153 158.871052 
L 197.371292 158.300208 
L 213.390431 158.374655 
L 229.409569 159.625531 
L 245.428708 159.192368 
L 261.447847 159.606636 
L 277.466986 160.458544 
L 293.486124 160.359443 
L 309.505263 157.700119 
L 325.524402 158.726079 
L 341.543541 158.245123 
L 357.562679 158.414801 
L 373.581818 158.95277 
" clip-path="url(#p87e7a96661)" style="fill: none; stroke: #2ca02c; stroke-width: 1.5; stroke-linecap: square"/>
   </g>
   <g id="line2d_18">
    <path d="M 69.218182 146.735459 
L 85.237321 147.323791 
L 101.256459 145.391132 
L 117.275598 145.207046 
L 133.294737 146.523521 
L 149.313876 145.943112 
L 165.333014 145.3936 
L 181.352153 146.749464 
L 197.371292 146.95654 
L 213.390431 147.360879 
L 229.409569 148.293976 
L 245.428708 148.558031 
L 261.447847 150.220398 
L 277.466986 151.315769 
L 293.486124 151.438798 
L 309.505263 149.299208 
L 325.524402 150.285811 
L 341.543541 149.49164 
L 357.562679 150.041381 
L 373.581818 149.76356 
" clip-path="url(#p87e7a96661)" style="fill: none; stroke: #d62728; stroke-width: 1.5; stroke-linecap: square"/>
   </g>
   <g id="line2d_19">
    <path d="M 69.218182 139.035959 
L 85.237321 139.940091 
L 101.256459 138.364504 
L 117.275598 138.235068 
L 133.294737 139.044869 
L 149.313876 138.428291 
L 165.333014 137.670885 
L 181.352153 138.9435 
L 197.371292 139.903127 
L 213.390431 140.983133 
L 229.409569 142.154499 
L 245.428708 142.570242 
L 261.447847 144.757307 
L 277.466986 145.891746 
L 293.486124 146.210431 
L 309.505263 144.27775 
L 325.524402 145.162566 
L 341.543541 143.900861 
L 357.562679 144.022884 
L 373.581818 143.220637 
" clip-path="url(#p87e7a96661)" style="fill: none; stroke: #9467bd; stroke-width: 1.5; stroke-linecap: square"/>
   </g>
   <g id="line2d_20">
    <path d="M 69.218182 129.516015 
L 85.237321 129.739415 
L 101.256459 127.804991 
L 117.275598 128.047393 
L 133.294737 128.54905 
L 149.313876 127.399196 
L 165.333014 125.867306 
L 181.352153 127.652328 
L 197.371292 127.95103 
L 213.390431 129.000908 
L 229.409569 130.551064 
L 245.428708 130.839362 
L 261.447847 133.082389 
L 277.466986 134.608463 
L 293.486124 135.376768 
L 309.505263 132.946846 
L 325.524402 134.397579 
L 341.543541 133.307528 
L 357.562679 133.085747 
L 373.581818 132.575698 
" clip-path="url(#p87e7a96661)" style="fill: none; stroke: #8c564b; stroke-width: 1.5; stroke-linecap: square"/>
   </g>
   <g id="line2d_21">
    <path d="M 69.218182 119.372109 
L 85.237321 120.013543 
L 101.256459 118.843346 
L 117.275598 118.772228 
L 133.294737 117.978163 
L 149.313876 116.799482 
L 165.333014 115.589815 
L 181.352153 117.367702 
L 197.371292 118.018591 
L 213.390431 119.539713 
L 229.409569 120.71549 
L 245.428708 121.096838 
L 261.447847 123.786271 
L 277.466986 125.45817 
L 293.486124 126.182507 
L 309.505263 123.959225 
L 325.524402 125.234192 
L 341.543541 123.587148 
L 357.562679 123.442735 
L 373.581818 123.21584 
" clip-path="url(#p87e7a96661)" style="fill: none; stroke: #e377c2; stroke-width: 1.5; stroke-linecap: square"/>
   </g>
   <g id="line2d_22">
    <path d="M 69.218182 108.121523 
L 85.237321 109.401021 
L 101.256459 107.991598 
L 117.275598 107.818719 
L 133.294737 106.934988 
L 149.313876 106.379993 
L 165.333014 106.060203 
L 181.352153 106.981158 
L 197.371292 107.583272 
L 213.390431 109.017142 
L 229.409569 110.087729 
L 245.428708 110.682037 
L 261.447847 113.716309 
L 277.466986 115.318324 
L 293.486124 115.160322 
L 309.505263 113.806329 
L 325.524402 114.941854 
L 341.543541 113.040526 
L 357.562679 112.766846 
L 373.581818 111.929429 
" clip-path="url(#p87e7a96661)" style="fill: none; stroke: #7f7f7f; stroke-width: 1.5; stroke-linecap: square"/>
   </g>
   <g id="line2d_23">
    <path d="M 69.218182 94.820812 
L 85.237321 96.347369 
L 101.256459 94.402707 
L 117.275598 93.51345 
L 133.294737 92.66306 
L 149.313876 91.142495 
L 165.333014 92.877661 
L 181.352153 93.798097 
L 197.371292 94.061179 
L 213.390431 95.225519 
L 229.409569 96.277655 
L 245.428708 97.418856 
L 261.447847 100.087947 
L 277.466986 102.392093 
L 293.486124 100.558431 
L 309.505263 98.928815 
L 325.524402 99.417488 
L 341.543541 97.660801 
L 357.562679 97.250997 
L 373.581818 95.87613 
" clip-path="url(#p87e7a96661)" style="fill: none; stroke: #bcbd22; stroke-width: 1.5; stroke-linecap: square"/>
   </g>
   <g id="line2d_24">
    <path d="M 69.218182 82.471904 
L 85.237321 84.327799 
L 101.256459 82.292867 
L 117.275598 81.55969 
L 133.294737 80.654351 
L 149.313876 80.119776 
L 165.333014 81.164453 
L 181.352153 82.112014 
L 197.371292 82.554541 
L 213.390431 83.350971 
L 229.409569 84.140264 
L 245.428708 84.95756 
L 261.447847 87.789175 
L 277.466986 88.469483 
L 293.486124 87.519222 
L 309.505263 85.937954 
L 325.524402 85.814084 
L 341.543541 84.807191 
L 357.562679 84.675974 
L 373.581818 84.04165 
" clip-path="url(#p87e7a96661)" style="fill: none; stroke: #17becf; stroke-width: 1.5; stroke-linecap: square"/>
   </g>
   <g id="line2d_25">
    <path d="M 69.218182 70.141192 
L 85.237321 71.560937 
L 101.256459 71.444375 
L 117.275598 71.126538 
L 133.294737 70.999651 
L 149.313876 70.223332 
L 165.333014 70.592587 
L 181.352153 71.633354 
L 197.371292 72.275184 
L 213.390431 73.819152 
L 229.409569 74.937832 
L 245.428708 75.712884 
L 261.447847 78.159197 
L 277.466986 79.133032 
L 293.486124 78.93782 
L 309.505263 77.897722 
L 325.524402 77.76199 
L 341.543541 76.344917 
L 357.562679 75.188481 
L 373.581818 74.696923 
" clip-path="url(#p87e7a96661)" style="fill: none; stroke: #1f77b4; stroke-width: 1.5; stroke-linecap: square"/>
   </g>
   <g id="line2d_26">
    <path d="M 69.218182 58.904615 
L 85.237321 59.794475 
L 101.256459 59.488449 
L 117.275598 59.118444 
L 133.294737 58.050806 
L 149.313876 59.172365 
L 165.333014 58.910071 
L 181.352153 59.932047 
L 197.371292 60.228211 
L 213.390431 61.44061 
L 229.409569 62.590162 
L 245.428708 63.139695 
L 261.447847 66.654799 
L 277.466986 66.422466 
L 293.486124 67.147478 
L 309.505263 66.260399 
L 325.524402 66.301092 
L 341.543541 65.790358 
L 357.562679 64.860411 
L 373.581818 64.660886 
" clip-path="url(#p87e7a96661)" style="fill: none; stroke: #ff7f0e; stroke-width: 1.5; stroke-linecap: square"/>
   </g>
   <g id="line2d_27">
    <path d="M 69.218182 48.453806 
L 85.237321 49.847928 
L 101.256459 50.368928 
L 117.275598 49.929691 
L 133.294737 49.310772 
L 149.313876 49.935043 
L 165.333014 50.29353 
L 181.352153 50.723399 
L 197.371292 51.035445 
L 213.390431 51.763141 
L 229.409569 52.050772 
L 245.428708 52.377791 
L 261.447847 54.736735 
L 277.466986 55.364403 
L 293.486124 53.936546 
L 309.505263 53.404039 
L 325.524402 53.298802 
L 341.543541 52.294377 
L 357.562679 52.255083 
L 373.581818 51.152382 
" clip-path="url(#p87e7a96661)" style="fill: none; stroke: #2ca02c; stroke-width: 1.5; stroke-linecap: square"/>
   </g>
   <g id="line2d_28">
    <path d="M 69.218182 42.477452 
L 85.237321 44.019167 
L 101.256459 43.86236 
L 117.275598 43.563243 
L 133.294737 43.165941 
L 149.313876 43.684115 
L 165.333014 43.514541 
L 181.352153 42.948479 
L 197.371292 43.053888 
L 213.390431 43.198883 
L 229.409569 42.872646 
L 245.428708 43.001978 
L 261.447847 43.336287 
L 277.466986 43.171656 
L 293.486124 43.155623 
L 309.505263 44.564683 
L 325.524402 44.722058 
L 341.543541 44.414246 
L 357.562679 45.360557 
L 373.581818 44.96259 
" clip-path="url(#p87e7a96661)" style="fill: none; stroke: #d62728; stroke-width: 1.5; stroke-linecap: square"/>
   </g>
   <g id="line2d_29">
    <path d="M 69.218182 33.84 
L 85.237321 33.84 
L 101.256459 33.84 
L 117.275598 33.84 
L 133.294737 33.84 
L 149.313876 33.84 
L 165.333014 33.84 
L 181.352153 33.84 
L 197.371292 33.84 
L 213.390431 33.84 
L 229.409569 33.84 
L 245.428708 33.84 
L 261.447847 33.84 
L 277.466986 33.84 
L 293.486124 33.84 
L 309.505263 33.84 
L 325.524402 33.84 
L 341.543541 33.84 
L 357.562679 33.84 
L 373.581818 33.84 
" clip-path="url(#p87e7a96661)" style="fill: none; stroke: #9467bd; stroke-width: 1.5; stroke-linecap: square"/>
   </g>
   <g id="patch_3">
    <path d="M 54 192.24 
L 54 25.92 
" style="fill: none; stroke: #000000; stroke-width: 0.8; stroke-linejoin: miter; stroke-linecap: square"/>
   </g>
   <g id="patch_4">
    <path d="M 388.8 192.24 
L 388.8 25.92 
" style="fill: none; stroke: #000000; stroke-width: 0.8; stroke-linejoin: miter; stroke-linecap: square"/>
   </g>
   <g id="patch_5">
    <path d="M 54 192.24 
L 388.8 192.24 
" style="fill: none; stroke: #000000; stroke-width: 0.8; stroke-linejoin: miter; stroke-linecap: square"/>
   </g>
   <g id="patch_6">
    <path d="M 54 25.92 
L 388.8 25.92 
" style="fill: none; stroke: #000000; stroke-width: 0.8; stroke-linejoin: miter; stroke-linecap: square"/>
   </g>
   <g id="text_17">
    <!-- Portfolio weights -->
    <g transform="translate(171.459375 19.92)scale(0.12 -0.12)">
     <defs>
      <path id="DejaVuSans-66" d="M 2375 4863 
L 2375 4384 
L 1825 4384 
Q 1516 4384 1395 4259 
Q 1275 4134 1275 3809 
L 1275 3500 
L 2222 3500 
L 2222 3053 
L 1275 3053 
L 1275 0 
L 697 0 
L 697 3053 
L 147 3053 
L 147 3500 
L 697 3500 
L 697 3744 
Q 697 4328 969 4595 
Q 1241 4863 1831 4863 
L 2375 4863 
z
" transform="scale(0.015625)"/>
      <path id="DejaVuSans-77" d="M 269 3500 
L 844 3500 
L 1563 769 
L 2278 3500 
L 2956 3500 
L 3675 769 
L 4391 3500 
L 4966 3500 
L 4050 0 
L 3372 0 
L 2619 2869 
L 1863 0 
L 1184 0 
L 269 3500 
z
" transform="scale(0.015625)"/>
     </defs>
     <use xlink:href="#DejaVuSans-50"/>
     <use xlink:href="#DejaVuSans-6f" x="56.677734"/>
     <use xlink:href="#DejaVuSans-72" x="117.859375"/>
     <use xlink:href="#DejaVuSans-74" x="158.972656"/>
     <use xlink:href="#DejaVuSans-66" x="198.181641"/>
     <use xlink:href="#DejaVuSans-6f" x="233.386719"/>
     <use xlink:href="#DejaVuSans-6c" x="294.568359"/>
     <use xlink:href="#DejaVuSans-69" x="322.351562"/>
     <use xlink:href="#DejaVuSans-6f" x="350.134766"/>
     <use xlink:href="#DejaVuSans-20" x="411.316406"/>
     <use xlink:href="#DejaVuSans-77" x="443.103516"/>
     <use xlink:href="#DejaVuSans-65" x="524.890625"/>
     <use xlink:href="#DejaVuSans-69" x="586.414062"/>
     <use xlink:href="#DejaVuSans-67" x="614.197266"/>
     <use xlink:href="#DejaVuSans-68" x="677.673828"/>
     <use xlink:href="#DejaVuSans-74" x="741.052734"/>
     <use xlink:href="#DejaVuSans-73" x="780.261719"/>
    </g>
   </g>
   <g id="legend_1">
    <g id="patch_7">
     <path d="M 395.8 220.665937 
L 440.525 220.665937 
Q 442.525 220.665937 442.525 218.665937 
L 442.525 -0.505937 
Q 442.525 -2.505937 440.525 -2.505937 
L 395.8 -2.505937 
Q 393.8 -2.505937 393.8 -0.505937 
L 393.8 218.665937 
Q 393.8 220.665937 395.8 220.665937 
z
" style="fill: #ffffff; opacity: 0.8; stroke: #cccccc; stroke-linejoin: miter"/>
    </g>
    <g id="patch_8">
     <path d="M 397.8 9.0925 
L 417.8 9.0925 
L 417.8 2.0925 
L 397.8 2.0925 
z
" style="fill: #1f77b4; stroke: #1f77b4; stroke-linejoin: miter"/>
    </g>
    <g id="text_18">
     <!-- 1 -->
     <g transform="translate(425.8 9.0925)scale(0.1 -0.1)">
      <use xlink:href="#DejaVuSans-31"/>
     </g>
    </g>
    <g id="patch_9">
     <path d="M 397.8 23.770625 
L 417.8 23.770625 
L 417.8 16.770625 
L 397.8 16.770625 
z
" style="fill: #ff7f0e; stroke: #ff7f0e; stroke-linejoin: miter"/>
    </g>
    <g id="text_19">
     <!-- 2 -->
     <g transform="translate(425.8 23.770625)scale(0.1 -0.1)">
      <use xlink:href="#DejaVuSans-32"/>
     </g>
    </g>
    <g id="patch_10">
     <path d="M 397.8 38.44875 
L 417.8 38.44875 
L 417.8 31.44875 
L 397.8 31.44875 
z
" style="fill: #2ca02c; stroke: #2ca02c; stroke-linejoin: miter"/>
    </g>
    <g id="text_20">
     <!-- 3 -->
     <g transform="translate(425.8 38.44875)scale(0.1 -0.1)">
      <defs>
       <path id="DejaVuSans-33" d="M 2597 2516 
Q 3050 2419 3304 2112 
Q 3559 1806 3559 1356 
Q 3559 666 3084 287 
Q 2609 -91 1734 -91 
Q 1441 -91 1130 -33 
Q 819 25 488 141 
L 488 750 
Q 750 597 1062 519 
Q 1375 441 1716 441 
Q 2309 441 2620 675 
Q 2931 909 2931 1356 
Q 2931 1769 2642 2001 
Q 2353 2234 1838 2234 
L 1294 2234 
L 1294 2753 
L 1863 2753 
Q 2328 2753 2575 2939 
Q 2822 3125 2822 3475 
Q 2822 3834 2567 4026 
Q 2313 4219 1838 4219 
Q 1578 4219 1281 4162 
Q 984 4106 628 3988 
L 628 4550 
Q 988 4650 1302 4700 
Q 1616 4750 1894 4750 
Q 2613 4750 3031 4423 
Q 3450 4097 3450 3541 
Q 3450 3153 3228 2886 
Q 3006 2619 2597 2516 
z
" transform="scale(0.015625)"/>
      </defs>
      <use xlink:href="#DejaVuSans-33"/>
     </g>
    </g>
    <g id="patch_11">
     <path d="M 397.8 53.126875 
L 417.8 53.126875 
L 417.8 46.126875 
L 397.8 46.126875 
z
" style="fill: #d62728; stroke: #d62728; stroke-linejoin: miter"/>
    </g>
    <g id="text_21">
     <!-- 4 -->
     <g transform="translate(425.8 53.126875)scale(0.1 -0.1)">
      <use xlink:href="#DejaVuSans-34"/>
     </g>
    </g>
    <g id="patch_12">
     <path d="M 397.8 67.805 
L 417.8 67.805 
L 417.8 60.805 
L 397.8 60.805 
z
" style="fill: #9467bd; stroke: #9467bd; stroke-linejoin: miter"/>
    </g>
    <g id="text_22">
     <!-- 5 -->
     <g transform="translate(425.8 67.805)scale(0.1 -0.1)">
      <use xlink:href="#DejaVuSans-35"/>
     </g>
    </g>
    <g id="patch_13">
     <path d="M 397.8 82.483125 
L 417.8 82.483125 
L 417.8 75.483125 
L 397.8 75.483125 
z
" style="fill: #8c564b; stroke: #8c564b; stroke-linejoin: miter"/>
    </g>
    <g id="text_23">
     <!-- 6 -->
     <g transform="translate(425.8 82.483125)scale(0.1 -0.1)">
      <use xlink:href="#DejaVuSans-36"/>
     </g>
    </g>
    <g id="patch_14">
     <path d="M 397.8 97.16125 
L 417.8 97.16125 
L 417.8 90.16125 
L 397.8 90.16125 
z
" style="fill: #e377c2; stroke: #e377c2; stroke-linejoin: miter"/>
    </g>
    <g id="text_24">
     <!-- 7 -->
     <g transform="translate(425.8 97.16125)scale(0.1 -0.1)">
      <use xlink:href="#DejaVuSans-37"/>
     </g>
    </g>
    <g id="patch_15">
     <path d="M 397.8 111.839375 
L 417.8 111.839375 
L 417.8 104.839375 
L 397.8 104.839375 
z
" style="fill: #7f7f7f; stroke: #7f7f7f; stroke-linejoin: miter"/>
    </g>
    <g id="text_25">
     <!-- 8 -->
     <g transform="translate(425.8 111.839375)scale(0.1 -0.1)">
      <use xlink:href="#DejaVuSans-38"/>
     </g>
    </g>
    <g id="patch_16">
     <path d="M 397.8 126.5175 
L 417.8 126.5175 
L 417.8 119.5175 
L 397.8 119.5175 
z
" style="fill: #bcbd22; stroke: #bcbd22; stroke-linejoin: miter"/>
    </g>
    <g id="text_26">
     <!-- 9 -->
     <g transform="translate(425.8 126.5175)scale(0.1 -0.1)">
      <defs>
       <path id="DejaVuSans-39" d="M 703 97 
L 703 672 
Q 941 559 1184 500 
Q 1428 441 1663 441 
Q 2288 441 2617 861 
Q 2947 1281 2994 2138 
Q 2813 1869 2534 1725 
Q 2256 1581 1919 1581 
Q 1219 1581 811 2004 
Q 403 2428 403 3163 
Q 403 3881 828 4315 
Q 1253 4750 1959 4750 
Q 2769 4750 3195 4129 
Q 3622 3509 3622 2328 
Q 3622 1225 3098 567 
Q 2575 -91 1691 -91 
Q 1453 -91 1209 -44 
Q 966 3 703 97 
z
M 1959 2075 
Q 2384 2075 2632 2365 
Q 2881 2656 2881 3163 
Q 2881 3666 2632 3958 
Q 2384 4250 1959 4250 
Q 1534 4250 1286 3958 
Q 1038 3666 1038 3163 
Q 1038 2656 1286 2365 
Q 1534 2075 1959 2075 
z
" transform="scale(0.015625)"/>
      </defs>
      <use xlink:href="#DejaVuSans-39"/>
     </g>
    </g>
    <g id="patch_17">
     <path d="M 397.8 141.195625 
L 417.8 141.195625 
L 417.8 134.195625 
L 397.8 134.195625 
z
" style="fill: #17becf; stroke: #17becf; stroke-linejoin: miter"/>
    </g>
    <g id="text_27">
     <!-- 10 -->
     <g transform="translate(425.8 141.195625)scale(0.1 -0.1)">
      <use xlink:href="#DejaVuSans-31"/>
      <use xlink:href="#DejaVuSans-30" x="63.623047"/>
     </g>
    </g>
    <g id="patch_18">
     <path d="M 397.8 155.87375 
L 417.8 155.87375 
L 417.8 148.87375 
L 397.8 148.87375 
z
" style="fill: #1f77b4; stroke: #1f77b4; stroke-linejoin: miter"/>
    </g>
    <g id="text_28">
     <!-- 11 -->
     <g transform="translate(425.8 155.87375)scale(0.1 -0.1)">
      <use xlink:href="#DejaVuSans-31"/>
      <use xlink:href="#DejaVuSans-31" x="63.623047"/>
     </g>
    </g>
    <g id="patch_19">
     <path d="M 397.8 170.551875 
L 417.8 170.551875 
L 417.8 163.551875 
L 397.8 163.551875 
z
" style="fill: #ff7f0e; stroke: #ff7f0e; stroke-linejoin: miter"/>
    </g>
    <g id="text_29">
     <!-- 12 -->
     <g transform="translate(425.8 170.551875)scale(0.1 -0.1)">
      <use xlink:href="#DejaVuSans-31"/>
      <use xlink:href="#DejaVuSans-32" x="63.623047"/>
     </g>
    </g>
    <g id="patch_20">
     <path d="M 397.8 185.23 
L 417.8 185.23 
L 417.8 178.23 
L 397.8 178.23 
z
" style="fill: #2ca02c; stroke: #2ca02c; stroke-linejoin: miter"/>
    </g>
    <g id="text_30">
     <!-- 13 -->
     <g transform="translate(425.8 185.23)scale(0.1 -0.1)">
      <use xlink:href="#DejaVuSans-31"/>
      <use xlink:href="#DejaVuSans-33" x="63.623047"/>
     </g>
    </g>
    <g id="patch_21">
     <path d="M 397.8 199.908125 
L 417.8 199.908125 
L 417.8 192.908125 
L 397.8 192.908125 
z
" style="fill: #d62728; stroke: #d62728; stroke-linejoin: miter"/>
    </g>
    <g id="text_31">
     <!-- 14 -->
     <g transform="translate(425.8 199.908125)scale(0.1 -0.1)">
      <use xlink:href="#DejaVuSans-31"/>
      <use xlink:href="#DejaVuSans-34" x="63.623047"/>
     </g>
    </g>
    <g id="patch_22">
     <path d="M 397.8 214.58625 
L 417.8 214.58625 
L 417.8 207.58625 
L 397.8 207.58625 
z
" style="fill: #9467bd; stroke: #9467bd; stroke-linejoin: miter"/>
    </g>
    <g id="text_32">
     <!-- 15 -->
     <g transform="translate(425.8 214.58625)scale(0.1 -0.1)">
      <use xlink:href="#DejaVuSans-31"/>
      <use xlink:href="#DejaVuSans-35" x="63.623047"/>
     </g>
    </g>
   </g>
  </g>
 </g>
 <defs>
  <clipPath id="p87e7a96661">
   <rect x="54" y="25.92" width="334.8" height="166.32"/>
  </clipPath>
 </defs>
</svg>
