<?xml version="1.0" encoding="utf-8" standalone="no"?>
<!DOCTYPE svg PUBLIC "-//W3C//DTD SVG 1.1//EN"
  "http://www.w3.org/Graphics/SVG/1.1/DTD/svg11.dtd">
<svg xmlns:xlink="http://www.w3.org/1999/xlink" width="432pt" height="216pt" viewBox="0 0 432 216" xmlns="http://www.w3.org/2000/svg" version="1.1">
 <metadata>
  <rdf:RDF xmlns:dc="http://purl.org/dc/elements/1.1/" xmlns:cc="http://creativecommons.org/ns#" xmlns:rdf="http://www.w3.org/1999/02/22-rdf-syntax-ns#">
   <cc:Work>
    <dc:type rdf:resource="http://purl.org/dc/dcmitype/StillImage"/>
    <dc:date>2024-04-11T14:35:12.509491</dc:date>
    <dc:format>image/svg+xml</dc:format>
    <dc:creator>
     <cc:Agent>
      <dc:title>Matplotlib v3.5.2, https://matplotlib.org/</dc:title>
     </cc:Agent>
    </dc:creator>
   </cc:Work>
  </rdf:RDF>
 </metadata>
 <defs>
  <style type="text/css">*{stroke-linejoin: round; stroke-linecap: butt}</style>
 </defs>
 <g id="figure_1">
  <g id="patch_1">
   <path d="M 0 216 
L 432 216 
L 432 0 
L 0 0 
z
" style="fill: #ffffff"/>
  </g>
  <g id="axes_1">
   <g id="patch_2">
    <path d="M 54 192.24 
L 388.8 192.24 
L 388.8 25.92 
L 54 25.92 
z
" style="fill: #ffffff"/>
   </g>
   <g id="PolyCollection_1">
    <defs>
     <path id="m085022208c" d="M 69.218182 -26.10404 
L 69.218182 -23.76 
L 85.237321 -23.76 
L 101.256459 -23.76 
L 117.275598 -23.76 
L 133.294737 -23.76 
L 149.313876 -23.76 
L 165.333014 -23.76 
L 181.352153 -23.76 
L 197.371292 -23.76 
L 213.390431 -23.76 
L 229.409569 -23.76 
L 245.428708 -23.76 
L 261.447847 -23.76 
L 277.466986 -23.76 
L 293.486124 -23.76 
L 309.505263 -23.76 
L 325.524402 -23.76 
L 341.543541 -23.76 
L 357.562679 -23.76 
L 373.581818 -23.76 
L 373.581818 -27.437548 
L 373.581818 -27.437548 
L 357.562679 -27.483566 
L 341.543541 -26.50606 
L 325.524402 -26.361041 
L 309.505263 -26.129568 
L 293.486124 -26.145895 
L 277.466986 -25.763299 
L 261.447847 -25.083482 
L 245.428708 -25.1543 
L 229.409569 -25.199952 
L 213.390431 -25.167736 
L 197.371292 -25.168232 
L 181.352153 -25.161184 
L 165.333014 -25.070701 
L 149.313876 -25.074951 
L 133.294737 -25.698205 
L 117.275598 -38.285861 
L 101.256459 -27.084542 
L 85.237321 -26.941769 
L 69.218182 -26.10404 
z
" style="stroke: #1f77b4"/>
    </defs>
    <g clip-path="url(#pa7ed800bc2)">
     <use xlink:href="#m085022208c" x="0" y="216" style="fill: #1f77b4; stroke: #1f77b4"/>
    </g>
   </g>
   <g id="PolyCollection_2">
    <defs>
     <path id="mfa058cc803" d="M 69.218182 -29.547639 
L 69.218182 -26.10404 
L 85.237321 -26.941769 
L 101.256459 -27.084542 
L 117.275598 -38.285861 
L 133.294737 -25.698205 
L 149.313876 -25.074951 
L 165.333014 -25.070701 
L 181.352153 -25.161184 
L 197.371292 -25.168232 
L 213.390431 -25.167736 
L 229.409569 -25.199952 
L 245.428708 -25.1543 
L 261.447847 -25.083482 
L 277.466986 -25.763299 
L 293.486124 -26.145895 
L 309.505263 -26.129568 
L 325.524402 -26.361041 
L 341.543541 -26.50606 
L 357.562679 -27.483566 
L 373.581818 -27.437548 
L 373.581818 -28.743902 
L 373.581818 -28.743902 
L 357.562679 -30.716274 
L 341.543541 -29.059998 
L 325.524402 -28.779098 
L 309.505263 -28.510482 
L 293.486124 -28.496706 
L 277.466986 -27.665899 
L 261.447847 -27.25184 
L 245.428708 -27.485174 
L 229.409569 -27.939323 
L 213.390431 -28.155486 
L 197.371292 -28.155475 
L 181.352153 -28.320154 
L 165.333014 -28.118356 
L 149.313876 -28.308466 
L 133.294737 -29.479231 
L 117.275598 -60.044761 
L 101.256459 -30.65173 
L 85.237321 -29.996216 
L 69.218182 -29.547639 
z
" style="stroke: #ff7f0e"/>
    </defs>
    <g clip-path="url(#pa7ed800bc2)">
     <use xlink:href="#mfa058cc803" x="0" y="216" style="fill: #ff7f0e; stroke: #ff7f0e"/>
    </g>
   </g>
   <g id="PolyCollection_3">
    <defs>
     <path id="mfff0dafdc9" d="M 69.218182 -35.878654 
L 69.218182 -29.547639 
L 85.237321 -29.996216 
L 101.256459 -30.65173 
L 117.275598 -60.044761 
L 133.294737 -29.479231 
L 149.313876 -28.308466 
L 165.333014 -28.118356 
L 181.352153 -28.320154 
L 197.371292 -28.155475 
L 213.390431 -28.155486 
L 229.409569 -27.939323 
L 245.428708 -27.485174 
L 261.447847 -27.25184 
L 277.466986 -27.665899 
L 293.486124 -28.496706 
L 309.505263 -28.510482 
L 325.524402 -28.779098 
L 341.543541 -29.059998 
L 357.562679 -30.716274 
L 373.581818 -28.743902 
L 373.581818 -34.506504 
L 373.581818 -34.506504 
L 357.562679 -36.019411 
L 341.543541 -33.447023 
L 325.524402 -32.9539 
L 309.505263 -32.854144 
L 293.486124 -32.468453 
L 277.466986 -31.920273 
L 261.447847 -30.997078 
L 245.428708 -31.46766 
L 229.409569 -32.337985 
L 213.390431 -32.925763 
L 197.371292 -33.015335 
L 181.352153 -33.203302 
L 165.333014 -33.159142 
L 149.313876 -33.504327 
L 133.294737 -37.655171 
L 117.275598 -60.078602 
L 101.256459 -37.674913 
L 85.237321 -36.418346 
L 69.218182 -35.878654 
z
" style="stroke: #2ca02c"/>
    </defs>
    <g clip-path="url(#pa7ed800bc2)">
     <use xlink:href="#mfff0dafdc9" x="0" y="216" style="fill: #2ca02c; stroke: #2ca02c"/>
    </g>
   </g>
   <g id="PolyCollection_4">
    <defs>
     <path id="m9557c7dff6" d="M 69.218182 -39.773756 
L 69.218182 -35.878654 
L 85.237321 -36.418346 
L 101.256459 -37.674913 
L 117.275598 -60.078602 
L 133.294737 -37.655171 
L 149.313876 -33.504327 
L 165.333014 -33.159142 
L 181.352153 -33.203302 
L 197.371292 -33.015335 
L 213.390431 -32.925763 
L 229.409569 -32.337985 
L 245.428708 -31.46766 
L 261.447847 -30.997078 
L 277.466986 -31.920273 
L 293.486124 -32.468453 
L 309.505263 -32.854144 
L 325.524402 -32.9539 
L 341.543541 -33.447023 
L 357.562679 -36.019411 
L 373.581818 -34.506504 
L 373.581818 -47.658006 
L 373.581818 -47.658006 
L 357.562679 -45.355709 
L 341.543541 -44.345175 
L 325.524402 -45.228453 
L 309.505263 -47.146365 
L 293.486124 -46.175498 
L 277.466986 -45.470364 
L 261.447847 -43.144812 
L 245.428708 -44.321948 
L 229.409569 -45.280078 
L 213.390431 -45.112326 
L 197.371292 -44.852954 
L 181.352153 -44.241411 
L 165.333014 -44.409161 
L 149.313876 -43.41716 
L 133.294737 -44.534067 
L 117.275598 -85.032135 
L 101.256459 -42.137091 
L 85.237321 -41.652952 
L 69.218182 -39.773756 
z
" style="stroke: #d62728"/>
    </defs>
    <g clip-path="url(#pa7ed800bc2)">
     <use xlink:href="#m9557c7dff6" x="0" y="216" style="fill: #d62728; stroke: #d62728"/>
    </g>
   </g>
   <g id="PolyCollection_5">
    <defs>
     <path id="m203e8e1937" d="M 69.218182 -47.807641 
L 69.218182 -39.773756 
L 85.237321 -41.652952 
L 101.256459 -42.137091 
L 117.275598 -85.032135 
L 133.294737 -44.534067 
L 149.313876 -43.41716 
L 165.333014 -44.409161 
L 181.352153 -44.241411 
L 197.371292 -44.852954 
L 213.390431 -45.112326 
L 229.409569 -45.280078 
L 245.428708 -44.321948 
L 261.447847 -43.144812 
L 277.466986 -45.470364 
L 293.486124 -46.175498 
L 309.505263 -47.146365 
L 325.524402 -45.228453 
L 341.543541 -44.345175 
L 357.562679 -45.355709 
L 373.581818 -47.658006 
L 373.581818 -58.945692 
L 373.581818 -58.945692 
L 357.562679 -55.586157 
L 341.543541 -55.035344 
L 325.524402 -56.911002 
L 309.505263 -58.125862 
L 293.486124 -57.788729 
L 277.466986 -57.406686 
L 261.447847 -53.713453 
L 245.428708 -53.484277 
L 229.409569 -54.846437 
L 213.390431 -54.340672 
L 197.371292 -53.963313 
L 181.352153 -53.788349 
L 165.333014 -54.004228 
L 149.313876 -53.049664 
L 133.294737 -53.156658 
L 117.275598 -85.056226 
L 101.256459 -51.678062 
L 85.237321 -50.930898 
L 69.218182 -47.807641 
z
" style="stroke: #9467bd"/>
    </defs>
    <g clip-path="url(#pa7ed800bc2)">
     <use xlink:href="#m203e8e1937" x="0" y="216" style="fill: #9467bd; stroke: #9467bd"/>
    </g>
   </g>
   <g id="PolyCollection_6">
    <defs>
     <path id="m1f60028d8b" d="M 69.218182 -63.1153 
L 69.218182 -47.807641 
L 85.237321 -50.930898 
L 101.256459 -51.678062 
L 117.275598 -85.056226 
L 133.294737 -53.156658 
L 149.313876 -53.049664 
L 165.333014 -54.004228 
L 181.352153 -53.788349 
L 197.371292 -53.963313 
L 213.390431 -54.340672 
L 229.409569 -54.846437 
L 245.428708 -53.484277 
L 261.447847 -53.713453 
L 277.466986 -57.406686 
L 293.486124 -57.788729 
L 309.505263 -58.125862 
L 325.524402 -56.911002 
L 341.543541 -55.035344 
L 357.562679 -55.586157 
L 373.581818 -58.945692 
L 373.581818 -76.164188 
L 373.581818 -76.164188 
L 357.562679 -68.776777 
L 341.543541 -67.522849 
L 325.524402 -70.067671 
L 309.505263 -71.047198 
L 293.486124 -69.824317 
L 277.466986 -71.281254 
L 261.447847 -66.922264 
L 245.428708 -62.940173 
L 229.409569 -64.805982 
L 213.390431 -64.636402 
L 197.371292 -64.058292 
L 181.352153 -63.828884 
L 165.333014 -64.501195 
L 149.313876 -63.486005 
L 133.294737 -62.679553 
L 117.275598 -85.069 
L 101.256459 -66.991247 
L 85.237321 -66.505671 
L 69.218182 -63.1153 
z
" style="stroke: #8c564b"/>
    </defs>
    <g clip-path="url(#pa7ed800bc2)">
     <use xlink:href="#m1f60028d8b" x="0" y="216" style="fill: #8c564b; stroke: #8c564b"/>
    </g>
   </g>
   <g id="PolyCollection_7">
    <defs>
     <path id="mefbbcaaf68" d="M 69.218182 -75.419451 
L 69.218182 -63.1153 
L 85.237321 -66.505671 
L 101.256459 -66.991247 
L 117.275598 -85.069 
L 133.294737 -62.679553 
L 149.313876 -63.486005 
L 165.333014 -64.501195 
L 181.352153 -63.828884 
L 197.371292 -64.058292 
L 213.390431 -64.636402 
L 229.409569 -64.805982 
L 245.428708 -62.940173 
L 261.447847 -66.922264 
L 277.466986 -71.281254 
L 293.486124 -69.824317 
L 309.505263 -71.047198 
L 325.524402 -70.067671 
L 341.543541 -67.522849 
L 357.562679 -68.776777 
L 373.581818 -76.164188 
L 373.581818 -86.548253 
L 373.581818 -86.548253 
L 357.562679 -83.919153 
L 341.543541 -78.170793 
L 325.524402 -79.314257 
L 309.505263 -80.534917 
L 293.486124 -79.418717 
L 277.466986 -82.120416 
L 261.447847 -77.519305 
L 245.428708 -74.148512 
L 229.409569 -75.873973 
L 213.390431 -76.409878 
L 197.371292 -76.422021 
L 181.352153 -76.309334 
L 165.333014 -77.449311 
L 149.313876 -77.003 
L 133.294737 -79.320825 
L 117.275598 -91.393234 
L 101.256459 -82.575915 
L 85.237321 -79.086779 
L 69.218182 -75.419451 
z
" style="stroke: #e377c2"/>
    </defs>
    <g clip-path="url(#pa7ed800bc2)">
     <use xlink:href="#mefbbcaaf68" x="0" y="216" style="fill: #e377c2; stroke: #e377c2"/>
    </g>
   </g>
   <g id="PolyCollection_8">
    <defs>
     <path id="m9c7eb6f739" d="M 69.218182 -84.84001 
L 69.218182 -75.419451 
L 85.237321 -79.086779 
L 101.256459 -82.575915 
L 117.275598 -91.393234 
L 133.294737 -79.320825 
L 149.313876 -77.003 
L 165.333014 -77.449311 
L 181.352153 -76.309334 
L 197.371292 -76.422021 
L 213.390431 -76.409878 
L 229.409569 -75.873973 
L 245.428708 -74.148512 
L 261.447847 -77.519305 
L 277.466986 -82.120416 
L 293.486124 -79.418717 
L 309.505263 -80.534917 
L 325.524402 -79.314257 
L 341.543541 -78.170793 
L 357.562679 -83.919153 
L 373.581818 -86.548253 
L 373.581818 -88.862129 
L 373.581818 -88.862129 
L 357.562679 -86.799337 
L 341.543541 -80.178587 
L 325.524402 -81.242658 
L 309.505263 -82.496065 
L 293.486124 -81.410417 
L 277.466986 -83.561543 
L 261.447847 -78.827306 
L 245.428708 -75.604469 
L 229.409569 -77.520067 
L 213.390431 -78.074784 
L 197.371292 -78.072152 
L 181.352153 -77.950242 
L 165.333014 -79.030217 
L 149.313876 -78.729373 
L 133.294737 -82.790494 
L 117.275598 -112.448607 
L 101.256459 -89.696673 
L 85.237321 -89.589828 
L 69.218182 -84.84001 
z
" style="stroke: #7f7f7f"/>
    </defs>
    <g clip-path="url(#pa7ed800bc2)">
     <use xlink:href="#m9c7eb6f739" x="0" y="216" style="fill: #7f7f7f; stroke: #7f7f7f"/>
    </g>
   </g>
   <g id="PolyCollection_9">
    <defs>
     <path id="mc37fcce49c" d="M 69.218182 -97.30686 
L 69.218182 -84.84001 
L 85.237321 -89.589828 
L 101.256459 -89.696673 
L 117.275598 -112.448607 
L 133.294737 -82.790494 
L 149.313876 -78.729373 
L 165.333014 -79.030217 
L 181.352153 -77.950242 
L 197.371292 -78.072152 
L 213.390431 -78.074784 
L 229.409569 -77.520067 
L 245.428708 -75.604469 
L 261.447847 -78.827306 
L 277.466986 -83.561543 
L 293.486124 -81.410417 
L 309.505263 -82.496065 
L 325.524402 -81.242658 
L 341.543541 -80.178587 
L 357.562679 -86.799337 
L 373.581818 -88.862129 
L 373.581818 -102.559933 
L 373.581818 -102.559933 
L 357.562679 -93.632304 
L 341.543541 -85.834528 
L 325.524402 -86.692794 
L 309.505263 -86.761052 
L 293.486124 -85.151505 
L 277.466986 -87.458376 
L 261.447847 -80.942342 
L 245.428708 -78.015851 
L 229.409569 -80.203602 
L 213.390431 -80.716075 
L 197.371292 -80.710789 
L 181.352153 -80.628739 
L 165.333014 -81.684234 
L 149.313876 -81.366456 
L 133.294737 -91.716925 
L 117.275598 -112.46783 
L 101.256459 -102.218978 
L 85.237321 -102.47925 
L 69.218182 -97.30686 
z
" style="stroke: #bcbd22"/>
    </defs>
    <g clip-path="url(#pa7ed800bc2)">
     <use xlink:href="#mc37fcce49c" x="0" y="216" style="fill: #bcbd22; stroke: #bcbd22"/>
    </g>
   </g>
   <g id="PolyCollection_10">
    <defs>
     <path id="mc8cd612524" d="M 69.218182 -103.099203 
L 69.218182 -97.30686 
L 85.237321 -102.47925 
L 101.256459 -102.218978 
L 117.275598 -112.46783 
L 133.294737 -91.716925 
L 149.313876 -81.366456 
L 165.333014 -81.684234 
L 181.352153 -80.628739 
L 197.371292 -80.710789 
L 213.390431 -80.716075 
L 229.409569 -80.203602 
L 245.428708 -78.015851 
L 261.447847 -80.942342 
L 277.466986 -87.458376 
L 293.486124 -85.151505 
L 309.505263 -86.761052 
L 325.524402 -86.692794 
L 341.543541 -85.834528 
L 357.562679 -93.632304 
L 373.581818 -102.559933 
L 373.581818 -108.116387 
L 373.581818 -108.116387 
L 357.562679 -96.947044 
L 341.543541 -88.226195 
L 325.524402 -89.016528 
L 309.505263 -89.079506 
L 293.486124 -87.562803 
L 277.466986 -89.717644 
L 261.447847 -83.532254 
L 245.428708 -80.858383 
L 229.409569 -83.401845 
L 213.390431 -84.118923 
L 197.371292 -84.122907 
L 181.352153 -84.07944 
L 165.333014 -85.048131 
L 149.313876 -84.883828 
L 133.294737 -97.882089 
L 117.275598 -112.539047 
L 101.256459 -110.283345 
L 85.237321 -111.393914 
L 69.218182 -103.099203 
z
" style="stroke: #17becf"/>
    </defs>
    <g clip-path="url(#pa7ed800bc2)">
     <use xlink:href="#mc8cd612524" x="0" y="216" style="fill: #17becf; stroke: #17becf"/>
    </g>
   </g>
   <g id="PolyCollection_11">
    <defs>
     <path id="m633a675d52" d="M 69.218182 -105.048006 
L 69.218182 -103.099203 
L 85.237321 -111.393914 
L 101.256459 -110.283345 
L 117.275598 -112.539047 
L 133.294737 -97.882089 
L 149.313876 -84.883828 
L 165.333014 -85.048131 
L 181.352153 -84.07944 
L 197.371292 -84.122907 
L 213.390431 -84.118923 
L 229.409569 -83.401845 
L 245.428708 -80.858383 
L 261.447847 -83.532254 
L 277.466986 -89.717644 
L 293.486124 -87.562803 
L 309.505263 -89.079506 
L 325.524402 -89.016528 
L 341.543541 -88.226195 
L 357.562679 -96.947044 
L 373.581818 -108.116387 
L 373.581818 -112.372878 
L 373.581818 -112.372878 
L 357.562679 -100.740668 
L 341.543541 -93.477019 
L 325.524402 -93.672254 
L 309.505263 -93.846742 
L 293.486124 -92.275575 
L 277.466986 -94.497525 
L 261.447847 -88.631652 
L 245.428708 -85.983985 
L 229.409569 -88.405677 
L 213.390431 -89.007164 
L 197.371292 -88.907719 
L 181.352153 -88.789367 
L 165.333014 -89.621021 
L 149.313876 -89.337299 
L 133.294737 -100.861307 
L 117.275598 -123.71158 
L 101.256459 -111.96961 
L 85.237321 -113.123266 
L 69.218182 -105.048006 
z
" style="stroke: #1f77b4"/>
    </defs>
    <g clip-path="url(#pa7ed800bc2)">
     <use xlink:href="#m633a675d52" x="0" y="216" style="fill: #1f77b4; stroke: #1f77b4"/>
    </g>
   </g>
   <g id="PolyCollection_12">
    <defs>
     <path id="m29b25912c9" d="M 69.218182 -111.419857 
L 69.218182 -105.048006 
L 85.237321 -113.123266 
L 101.256459 -111.96961 
L 117.275598 -123.71158 
L 133.294737 -100.861307 
L 149.313876 -89.337299 
L 165.333014 -89.621021 
L 181.352153 -88.789367 
L 197.371292 -88.907719 
L 213.390431 -89.007164 
L 229.409569 -88.405677 
L 245.428708 -85.983985 
L 261.447847 -88.631652 
L 277.466986 -94.497525 
L 293.486124 -92.275575 
L 309.505263 -93.846742 
L 325.524402 -93.672254 
L 341.543541 -93.477019 
L 357.562679 -100.740668 
L 373.581818 -112.372878 
L 373.581818 -118.584321 
L 373.581818 -118.584321 
L 357.562679 -106.604415 
L 341.543541 -99.768111 
L 325.524402 -99.755022 
L 309.505263 -100.005797 
L 293.486124 -99.174984 
L 277.466986 -101.571362 
L 261.447847 -99.562563 
L 245.428708 -93.842574 
L 229.409569 -97.195128 
L 213.390431 -97.554381 
L 197.371292 -97.365074 
L 181.352153 -97.322314 
L 165.333014 -97.988125 
L 149.313876 -97.657534 
L 133.294737 -106.392088 
L 117.275598 -123.793535 
L 101.256459 -117.253417 
L 85.237321 -119.056641 
L 69.218182 -111.419857 
z
" style="stroke: #ff7f0e"/>
    </defs>
    <g clip-path="url(#pa7ed800bc2)">
     <use xlink:href="#m29b25912c9" x="0" y="216" style="fill: #ff7f0e; stroke: #ff7f0e"/>
    </g>
   </g>
   <g id="PolyCollection_13">
    <defs>
     <path id="m757183bf1f" d="M 69.218182 -118.002101 
L 69.218182 -111.419857 
L 85.237321 -119.056641 
L 101.256459 -117.253417 
L 117.275598 -123.793535 
L 133.294737 -106.392088 
L 149.313876 -97.657534 
L 165.333014 -97.988125 
L 181.352153 -97.322314 
L 197.371292 -97.365074 
L 213.390431 -97.554381 
L 229.409569 -97.195128 
L 245.428708 -93.842574 
L 261.447847 -99.562563 
L 277.466986 -101.571362 
L 293.486124 -99.174984 
L 309.505263 -100.005797 
L 325.524402 -99.755022 
L 341.543541 -99.768111 
L 357.562679 -106.604415 
L 373.581818 -118.584321 
L 373.581818 -128.743292 
L 373.581818 -128.743292 
L 357.562679 -114.634872 
L 341.543541 -106.8979 
L 325.524402 -106.611694 
L 309.505263 -107.085354 
L 293.486124 -106.375838 
L 277.466986 -109.687579 
L 261.447847 -105.577734 
L 245.428708 -100.774278 
L 229.409569 -104.656236 
L 213.390431 -105.331728 
L 197.371292 -105.047011 
L 181.352153 -104.80981 
L 165.333014 -105.085314 
L 149.313876 -104.96867 
L 133.294737 -115.798601 
L 117.275598 -123.824981 
L 101.256459 -122.867417 
L 85.237321 -124.67302 
L 69.218182 -118.002101 
z
" style="stroke: #2ca02c"/>
    </defs>
    <g clip-path="url(#pa7ed800bc2)">
     <use xlink:href="#m757183bf1f" x="0" y="216" style="fill: #2ca02c; stroke: #2ca02c"/>
    </g>
   </g>
   <g id="PolyCollection_14">
    <defs>
     <path id="ma8bd2859a2" d="M 69.218182 -144.143486 
L 69.218182 -118.002101 
L 85.237321 -124.67302 
L 101.256459 -122.867417 
L 117.275598 -123.824981 
L 133.294737 -115.798601 
L 149.313876 -104.96867 
L 165.333014 -105.085314 
L 181.352153 -104.80981 
L 197.371292 -105.047011 
L 213.390431 -105.331728 
L 229.409569 -104.656236 
L 245.428708 -100.774278 
L 261.447847 -105.577734 
L 277.466986 -109.687579 
L 293.486124 -106.375838 
L 309.505263 -107.085354 
L 325.524402 -106.611694 
L 341.543541 -106.8979 
L 357.562679 -114.634872 
L 373.581818 -128.743292 
L 373.581818 -142.76295 
L 373.581818 -142.76295 
L 357.562679 -122.671048 
L 341.543541 -116.077964 
L 325.524402 -115.417059 
L 309.505263 -116.843352 
L 293.486124 -116.188061 
L 277.466986 -121.475374 
L 261.447847 -115.978389 
L 245.428708 -110.578375 
L 229.409569 -115.292322 
L 213.390431 -115.834353 
L 197.371292 -115.559969 
L 181.352153 -114.998149 
L 165.333014 -115.741728 
L 149.313876 -116.540238 
L 133.294737 -129.368564 
L 117.275598 -123.838125 
L 101.256459 -141.15462 
L 85.237321 -141.654162 
L 69.218182 -144.143486 
z
" style="stroke: #d62728"/>
    </defs>
    <g clip-path="url(#pa7ed800bc2)">
     <use xlink:href="#ma8bd2859a2" x="0" y="216" style="fill: #d62728; stroke: #d62728"/>
    </g>
   </g>
   <g id="PolyCollection_15">
    <defs>
     <path id="md77951df1f" d="M 69.218182 -148.381247 
L 69.218182 -144.143486 
L 85.237321 -141.654162 
L 101.256459 -141.15462 
L 117.275598 -123.838125 
L 133.294737 -129.368564 
L 149.313876 -116.540238 
L 165.333014 -115.741728 
L 181.352153 -114.998149 
L 197.371292 -115.559969 
L 213.390431 -115.834353 
L 229.409569 -115.292322 
L 245.428708 -110.578375 
L 261.447847 -115.978389 
L 277.466986 -121.475374 
L 293.486124 -116.188061 
L 309.505263 -116.843352 
L 325.524402 -115.417059 
L 341.543541 -116.077964 
L 357.562679 -122.671048 
L 373.581818 -142.76295 
L 373.581818 -152.237794 
L 373.581818 -152.237794 
L 357.562679 -128.031716 
L 341.543541 -122.143415 
L 325.524402 -120.717308 
L 309.505263 -122.454251 
L 293.486124 -121.722479 
L 277.466986 -128.245312 
L 261.447847 -124.792964 
L 245.428708 -121.157629 
L 229.409569 -126.442243 
L 213.390431 -127.909465 
L 197.371292 -128.106273 
L 181.352153 -127.913181 
L 165.333014 -128.956249 
L 149.313876 -128.452256 
L 133.294737 -135.780434 
L 117.275598 -147.079757 
L 101.256459 -144.825426 
L 85.237321 -145.184794 
L 69.218182 -148.381247 
z
" style="stroke: #9467bd"/>
    </defs>
    <g clip-path="url(#pa7ed800bc2)">
     <use xlink:href="#md77951df1f" x="0" y="216" style="fill: #9467bd; stroke: #9467bd"/>
    </g>
   </g>
   <g id="PolyCollection_16">
    <defs>
     <path id="m443ad832c7" d="M 69.218182 -151.597275 
L 69.218182 -148.381247 
L 85.237321 -145.184794 
L 101.256459 -144.825426 
L 117.275598 -147.079757 
L 133.294737 -135.780434 
L 149.313876 -128.452256 
L 165.333014 -128.956249 
L 181.352153 -127.913181 
L 197.371292 -128.106273 
L 213.390431 -127.909465 
L 229.409569 -126.442243 
L 245.428708 -121.157629 
L 261.447847 -124.792964 
L 277.466986 -128.245312 
L 293.486124 -121.722479 
L 309.505263 -122.454251 
L 325.524402 -120.717308 
L 341.543541 -122.143415 
L 357.562679 -128.031716 
L 373.581818 -152.237794 
L 373.581818 -152.237794 
L 373.581818 -152.237794 
L 357.562679 -130.088008 
L 341.543541 -124.675143 
L 325.524402 -123.095254 
L 309.505263 -125.069213 
L 293.486124 -124.590213 
L 277.466986 -131.330708 
L 261.447847 -128.639747 
L 245.428708 -124.927854 
L 229.409569 -131.007542 
L 213.390431 -133.207459 
L 197.371292 -133.360879 
L 181.352153 -133.400655 
L 165.333014 -133.929484 
L 149.313876 -133.146314 
L 133.294737 -139.180335 
L 117.275598 -167.247509 
L 101.256459 -147.198435 
L 85.237321 -147.604969 
L 69.218182 -151.597275 
z
" style="stroke: #8c564b"/>
    </defs>
    <g clip-path="url(#pa7ed800bc2)">
     <use xlink:href="#m443ad832c7" x="0" y="216" style="fill: #8c564b; stroke: #8c564b"/>
    </g>
   </g>
   <g id="PolyCollection_17">
    <defs>
     <path id="mee7eeaa03d" d="M 69.218182 -160.047186 
L 69.218182 -151.597275 
L 85.237321 -147.604969 
L 101.256459 -147.198435 
L 117.275598 -167.247509 
L 133.294737 -139.180335 
L 149.313876 -133.146314 
L 165.333014 -133.929484 
L 181.352153 -133.400655 
L 197.371292 -133.360879 
L 213.390431 -133.207459 
L 229.409569 -131.007542 
L 245.428708 -124.927854 
L 261.447847 -128.639747 
L 277.466986 -131.330708 
L 293.486124 -124.590213 
L 309.505263 -125.069213 
L 325.524402 -123.095254 
L 341.543541 -124.675143 
L 357.562679 -130.088008 
L 373.581818 -152.237794 
L 373.581818 -161.522349 
L 373.581818 -161.522349 
L 357.562679 -150.294147 
L 341.543541 -144.274903 
L 325.524402 -140.843999 
L 309.505263 -145.289121 
L 293.486124 -146.00264 
L 277.466986 -146.91421 
L 261.447847 -146.472924 
L 245.428708 -144.643701 
L 229.409569 -146.348648 
L 213.390431 -147.602647 
L 197.371292 -147.721556 
L 181.352153 -147.669267 
L 165.333014 -148.468113 
L 149.313876 -148.491084 
L 133.294737 -154.935121 
L 117.275598 -167.276798 
L 101.256459 -157.941271 
L 85.237321 -157.914747 
L 69.218182 -160.047186 
z
" style="stroke: #e377c2"/>
    </defs>
    <g clip-path="url(#pa7ed800bc2)">
     <use xlink:href="#mee7eeaa03d" x="0" y="216" style="fill: #e377c2; stroke: #e377c2"/>
    </g>
   </g>
   <g id="PolyCollection_18">
    <defs>
     <path id="m2b771a2361" d="M 69.218182 -165.323476 
L 69.218182 -160.047186 
L 85.237321 -157.914747 
L 101.256459 -157.941271 
L 117.275598 -167.276798 
L 133.294737 -154.935121 
L 149.313876 -148.491084 
L 165.333014 -148.468113 
L 181.352153 -147.669267 
L 197.371292 -147.721556 
L 213.390431 -147.602647 
L 229.409569 -146.348648 
L 245.428708 -144.643701 
L 261.447847 -146.472924 
L 277.466986 -146.91421 
L 293.486124 -146.00264 
L 309.505263 -145.289121 
L 325.524402 -140.843999 
L 341.543541 -144.274903 
L 357.562679 -150.294147 
L 373.581818 -161.522349 
L 373.581818 -173.002498 
L 373.581818 -173.002498 
L 357.562679 -161.764199 
L 341.543541 -155.751566 
L 325.524402 -153.642912 
L 309.505263 -156.417285 
L 293.486124 -156.532276 
L 277.466986 -158.047552 
L 261.447847 -155.852668 
L 245.428708 -155.867658 
L 229.409569 -155.955139 
L 213.390431 -156.944452 
L 197.371292 -156.882365 
L 181.352153 -156.837012 
L 165.333014 -157.616116 
L 149.313876 -157.721861 
L 133.294737 -163.004407 
L 117.275598 -167.355271 
L 101.256459 -166.147478 
L 85.237321 -166.234936 
L 69.218182 -165.323476 
z
" style="stroke: #7f7f7f"/>
    </defs>
    <g clip-path="url(#pa7ed800bc2)">
     <use xlink:href="#m2b771a2361" x="0" y="216" style="fill: #7f7f7f; stroke: #7f7f7f"/>
    </g>
   </g>
   <g id="PolyCollection_19">
    <defs>
     <path id="m25b5d18520" d="M 69.218182 -172.861297 
L 69.218182 -165.323476 
L 85.237321 -166.234936 
L 101.256459 -166.147478 
L 117.275598 -167.355271 
L 133.294737 -163.004407 
L 149.313876 -157.721861 
L 165.333014 -157.616116 
L 181.352153 -156.837012 
L 197.371292 -156.882365 
L 213.390431 -156.944452 
L 229.409569 -155.955139 
L 245.428708 -155.867658 
L 261.447847 -155.852668 
L 277.466986 -158.047552 
L 293.486124 -156.532276 
L 309.505263 -156.417285 
L 325.524402 -153.642912 
L 341.543541 -155.751566 
L 357.562679 -161.764199 
L 373.581818 -173.002498 
L 373.581818 -182.16 
L 373.581818 -182.16 
L 357.562679 -172.952134 
L 341.543541 -170.390801 
L 325.524402 -170.289967 
L 309.505263 -167.447026 
L 293.486124 -166.31073 
L 277.466986 -168.493152 
L 261.447847 -166.054528 
L 245.428708 -167.468554 
L 229.409569 -165.870553 
L 213.390431 -166.293954 
L 197.371292 -165.813154 
L 181.352153 -166.839534 
L 165.333014 -167.540836 
L 149.313876 -167.45736 
L 133.294737 -170.790302 
L 117.275598 -175.354735 
L 101.256459 -172.819447 
L 85.237321 -172.898019 
L 69.218182 -172.861297 
z
" style="stroke: #bcbd22"/>
    </defs>
    <g clip-path="url(#pa7ed800bc2)">
     <use xlink:href="#m25b5d18520" x="0" y="216" style="fill: #bcbd22; stroke: #bcbd22"/>
    </g>
   </g>
   <g id="PolyCollection_20">
    <defs>
     <path id="m971a5ceee7" d="M 69.218182 -175.392307 
L 69.218182 -172.861297 
L 85.237321 -172.898019 
L 101.256459 -172.819447 
L 117.275598 -175.354735 
L 133.294737 -170.790302 
L 149.313876 -167.45736 
L 165.333014 -167.540836 
L 181.352153 -166.839534 
L 197.371292 -165.813154 
L 213.390431 -166.293954 
L 229.409569 -165.870553 
L 245.428708 -167.468554 
L 261.447847 -166.054528 
L 277.466986 -168.493152 
L 293.486124 -166.31073 
L 309.505263 -167.447026 
L 325.524402 -170.289967 
L 341.543541 -170.390801 
L 357.562679 -172.952134 
L 373.581818 -182.16 
L 373.581818 -182.16 
L 373.581818 -182.16 
L 357.562679 -175.392307 
L 341.543541 -175.392307 
L 325.524402 -175.392307 
L 309.505263 -175.392307 
L 293.486124 -175.392307 
L 277.466986 -175.392307 
L 261.447847 -175.392307 
L 245.428708 -175.392307 
L 229.409569 -175.392307 
L 213.390431 -175.392307 
L 197.371292 -175.392307 
L 181.352153 -175.392307 
L 165.333014 -175.392307 
L 149.313876 -175.392307 
L 133.294737 -175.392307 
L 117.275598 -175.392307 
L 101.256459 -175.392307 
L 85.237321 -175.392307 
L 69.218182 -175.392307 
z
" style="stroke: #17becf"/>
    </defs>
    <g clip-path="url(#pa7ed800bc2)">
     <use xlink:href="#m971a5ceee7" x="0" y="216" style="fill: #17becf; stroke: #17becf"/>
    </g>
   </g>
   <g id="matplotlib.axis_1">
    <g id="xtick_1">
     <g id="line2d_1">
      <defs>
       <path id="m1eb58e37ac" d="M 0 0 
L 0 3.5 
" style="stroke: #000000; stroke-width: 0.8"/>
      </defs>
      <g>
       <use xlink:href="#m1eb58e37ac" x="93.24689" y="192.24" style="stroke: #000000; stroke-width: 0.8"/>
      </g>
     </g>
     <g id="text_1">
      <!-- 2.5 -->
      <g transform="translate(85.295327 206.838437)scale(0.1 -0.1)">
       <defs>
        <path id="DejaVuSans-32" d="M 1228 531 
L 3431 531 
L 3431 0 
L 469 0 
L 469 531 
Q 828 903 1448 1529 
Q 2069 2156 2228 2338 
Q 2531 2678 2651 2914 
Q 2772 3150 2772 3378 
Q 2772 3750 2511 3984 
Q 2250 4219 1831 4219 
Q 1534 4219 1204 4116 
Q 875 4013 500 3803 
L 500 4441 
Q 881 4594 1212 4672 
Q 1544 4750 1819 4750 
Q 2544 4750 2975 4387 
Q 3406 4025 3406 3419 
Q 3406 3131 3298 2873 
Q 3191 2616 2906 2266 
Q 2828 2175 2409 1742 
Q 1991 1309 1228 531 
z
" transform="scale(0.015625)"/>
        <path id="DejaVuSans-2e" d="M 684 794 
L 1344 794 
L 1344 0 
L 684 0 
L 684 794 
z
" transform="scale(0.015625)"/>
        <path id="DejaVuSans-35" d="M 691 4666 
L 3169 4666 
L 3169 4134 
L 1269 4134 
L 1269 2991 
Q 1406 3038 1543 3061 
Q 1681 3084 1819 3084 
Q 2600 3084 3056 2656 
Q 3513 2228 3513 1497 
Q 3513 744 3044 326 
Q 2575 -91 1722 -91 
Q 1428 -91 1123 -41 
Q 819 9 494 109 
L 494 744 
Q 775 591 1075 516 
Q 1375 441 1709 441 
Q 2250 441 2565 725 
Q 2881 1009 2881 1497 
Q 2881 1984 2565 2268 
Q 2250 2553 1709 2553 
Q 1456 2553 1204 2497 
Q 953 2441 691 2322 
L 691 4666 
z
" transform="scale(0.015625)"/>
       </defs>
       <use xlink:href="#DejaVuSans-32"/>
       <use xlink:href="#DejaVuSans-2e" x="63.623047"/>
       <use xlink:href="#DejaVuSans-35" x="95.410156"/>
      </g>
     </g>
    </g>
    <g id="xtick_2">
     <g id="line2d_2">
      <g>
       <use xlink:href="#m1eb58e37ac" x="133.294737" y="192.24" style="stroke: #000000; stroke-width: 0.8"/>
      </g>
     </g>
     <g id="text_2">
      <!-- 5.0 -->
      <g transform="translate(125.343174 206.838437)scale(0.1 -0.1)">
       <defs>
        <path id="DejaVuSans-30" d="M 2034 4250 
Q 1547 4250 1301 3770 
Q 1056 3291 1056 2328 
Q 1056 1369 1301 889 
Q 1547 409 2034 409 
Q 2525 409 2770 889 
Q 3016 1369 3016 2328 
Q 3016 3291 2770 3770 
Q 2525 4250 2034 4250 
z
M 2034 4750 
Q 2819 4750 3233 4129 
Q 3647 3509 3647 2328 
Q 3647 1150 3233 529 
Q 2819 -91 2034 -91 
Q 1250 -91 836 529 
Q 422 1150 422 2328 
Q 422 3509 836 4129 
Q 1250 4750 2034 4750 
z
" transform="scale(0.015625)"/>
       </defs>
       <use xlink:href="#DejaVuSans-35"/>
       <use xlink:href="#DejaVuSans-2e" x="63.623047"/>
       <use xlink:href="#DejaVuSans-30" x="95.410156"/>
      </g>
     </g>
    </g>
    <g id="xtick_3">
     <g id="line2d_3">
      <g>
       <use xlink:href="#m1eb58e37ac" x="173.342584" y="192.24" style="stroke: #000000; stroke-width: 0.8"/>
      </g>
     </g>
     <g id="text_3">
      <!-- 7.5 -->
      <g transform="translate(165.391021 206.838437)scale(0.1 -0.1)">
       <defs>
        <path id="DejaVuSans-37" d="M 525 4666 
L 3525 4666 
L 3525 4397 
L 1831 0 
L 1172 0 
L 2766 4134 
L 525 4134 
L 525 4666 
z
" transform="scale(0.015625)"/>
       </defs>
       <use xlink:href="#DejaVuSans-37"/>
       <use xlink:href="#DejaVuSans-2e" x="63.623047"/>
       <use xlink:href="#DejaVuSans-35" x="95.410156"/>
      </g>
     </g>
    </g>
    <g id="xtick_4">
     <g id="line2d_4">
      <g>
       <use xlink:href="#m1eb58e37ac" x="213.390431" y="192.24" style="stroke: #000000; stroke-width: 0.8"/>
      </g>
     </g>
     <g id="text_4">
      <!-- 10.0 -->
      <g transform="translate(202.257618 206.838437)scale(0.1 -0.1)">
       <defs>
        <path id="DejaVuSans-31" d="M 794 531 
L 1825 531 
L 1825 4091 
L 703 3866 
L 703 4441 
L 1819 4666 
L 2450 4666 
L 2450 531 
L 3481 531 
L 3481 0 
L 794 0 
L 794 531 
z
" transform="scale(0.015625)"/>
       </defs>
       <use xlink:href="#DejaVuSans-31"/>
       <use xlink:href="#DejaVuSans-30" x="63.623047"/>
       <use xlink:href="#DejaVuSans-2e" x="127.246094"/>
       <use xlink:href="#DejaVuSans-30" x="159.033203"/>
      </g>
     </g>
    </g>
    <g id="xtick_5">
     <g id="line2d_5">
      <g>
       <use xlink:href="#m1eb58e37ac" x="253.438278" y="192.24" style="stroke: #000000; stroke-width: 0.8"/>
      </g>
     </g>
     <g id="text_5">
      <!-- 12.5 -->
      <g transform="translate(242.305465 206.838437)scale(0.1 -0.1)">
       <use xlink:href="#DejaVuSans-31"/>
       <use xlink:href="#DejaVuSans-32" x="63.623047"/>
       <use xlink:href="#DejaVuSans-2e" x="127.246094"/>
       <use xlink:href="#DejaVuSans-35" x="159.033203"/>
      </g>
     </g>
    </g>
    <g id="xtick_6">
     <g id="line2d_6">
      <g>
       <use xlink:href="#m1eb58e37ac" x="293.486124" y="192.24" style="stroke: #000000; stroke-width: 0.8"/>
      </g>
     </g>
     <g id="text_6">
      <!-- 15.0 -->
      <g transform="translate(282.353312 206.838437)scale(0.1 -0.1)">
       <use xlink:href="#DejaVuSans-31"/>
       <use xlink:href="#DejaVuSans-35" x="63.623047"/>
       <use xlink:href="#DejaVuSans-2e" x="127.246094"/>
       <use xlink:href="#DejaVuSans-30" x="159.033203"/>
      </g>
     </g>
    </g>
    <g id="xtick_7">
     <g id="line2d_7">
      <g>
       <use xlink:href="#m1eb58e37ac" x="333.533971" y="192.24" style="stroke: #000000; stroke-width: 0.8"/>
      </g>
     </g>
     <g id="text_7">
      <!-- 17.5 -->
      <g transform="translate(322.401159 206.838437)scale(0.1 -0.1)">
       <use xlink:href="#DejaVuSans-31"/>
       <use xlink:href="#DejaVuSans-37" x="63.623047"/>
       <use xlink:href="#DejaVuSans-2e" x="127.246094"/>
       <use xlink:href="#DejaVuSans-35" x="159.033203"/>
      </g>
     </g>
    </g>
    <g id="xtick_8">
     <g id="line2d_8">
      <g>
       <use xlink:href="#m1eb58e37ac" x="373.581818" y="192.24" style="stroke: #000000; stroke-width: 0.8"/>
      </g>
     </g>
     <g id="text_8">
      <!-- 20.0 -->
      <g transform="translate(362.449006 206.838437)scale(0.1 -0.1)">
       <use xlink:href="#DejaVuSans-32"/>
       <use xlink:href="#DejaVuSans-30" x="63.623047"/>
       <use xlink:href="#DejaVuSans-2e" x="127.246094"/>
       <use xlink:href="#DejaVuSans-30" x="159.033203"/>
      </g>
     </g>
    </g>
    <g id="text_9">
     <!-- Rebalance Period -->
     <g transform="translate(178.210938 220.516562)scale(0.1 -0.1)">
      <defs>
       <path id="DejaVuSans-52" d="M 2841 2188 
Q 3044 2119 3236 1894 
Q 3428 1669 3622 1275 
L 4263 0 
L 3584 0 
L 2988 1197 
Q 2756 1666 2539 1819 
Q 2322 1972 1947 1972 
L 1259 1972 
L 1259 0 
L 628 0 
L 628 4666 
L 2053 4666 
Q 2853 4666 3247 4331 
Q 3641 3997 3641 3322 
Q 3641 2881 3436 2590 
Q 3231 2300 2841 2188 
z
M 1259 4147 
L 1259 2491 
L 2053 2491 
Q 2509 2491 2742 2702 
Q 2975 2913 2975 3322 
Q 2975 3731 2742 3939 
Q 2509 4147 2053 4147 
L 1259 4147 
z
" transform="scale(0.015625)"/>
       <path id="DejaVuSans-65" d="M 3597 1894 
L 3597 1613 
L 953 1613 
Q 991 1019 1311 708 
Q 1631 397 2203 397 
Q 2534 397 2845 478 
Q 3156 559 3463 722 
L 3463 178 
Q 3153 47 2828 -22 
Q 2503 -91 2169 -91 
Q 1331 -91 842 396 
Q 353 884 353 1716 
Q 353 2575 817 3079 
Q 1281 3584 2069 3584 
Q 2775 3584 3186 3129 
Q 3597 2675 3597 1894 
z
M 3022 2063 
Q 3016 2534 2758 2815 
Q 2500 3097 2075 3097 
Q 1594 3097 1305 2825 
Q 1016 2553 972 2059 
L 3022 2063 
z
" transform="scale(0.015625)"/>
       <path id="DejaVuSans-62" d="M 3116 1747 
Q 3116 2381 2855 2742 
Q 2594 3103 2138 3103 
Q 1681 3103 1420 2742 
Q 1159 2381 1159 1747 
Q 1159 1113 1420 752 
Q 1681 391 2138 391 
Q 2594 391 2855 752 
Q 3116 1113 3116 1747 
z
M 1159 2969 
Q 1341 3281 1617 3432 
Q 1894 3584 2278 3584 
Q 2916 3584 3314 3078 
Q 3713 2572 3713 1747 
Q 3713 922 3314 415 
Q 2916 -91 2278 -91 
Q 1894 -91 1617 61 
Q 1341 213 1159 525 
L 1159 0 
L 581 0 
L 581 4863 
L 1159 4863 
L 1159 2969 
z
" transform="scale(0.015625)"/>
       <path id="DejaVuSans-61" d="M 2194 1759 
Q 1497 1759 1228 1600 
Q 959 1441 959 1056 
Q 959 750 1161 570 
Q 1363 391 1709 391 
Q 2188 391 2477 730 
Q 2766 1069 2766 1631 
L 2766 1759 
L 2194 1759 
z
M 3341 1997 
L 3341 0 
L 2766 0 
L 2766 531 
Q 2569 213 2275 61 
Q 1981 -91 1556 -91 
Q 1019 -91 701 211 
Q 384 513 384 1019 
Q 384 1609 779 1909 
Q 1175 2209 1959 2209 
L 2766 2209 
L 2766 2266 
Q 2766 2663 2505 2880 
Q 2244 3097 1772 3097 
Q 1472 3097 1187 3025 
Q 903 2953 641 2809 
L 641 3341 
Q 956 3463 1253 3523 
Q 1550 3584 1831 3584 
Q 2591 3584 2966 3190 
Q 3341 2797 3341 1997 
z
" transform="scale(0.015625)"/>
       <path id="DejaVuSans-6c" d="M 603 4863 
L 1178 4863 
L 1178 0 
L 603 0 
L 603 4863 
z
" transform="scale(0.015625)"/>
       <path id="DejaVuSans-6e" d="M 3513 2113 
L 3513 0 
L 2938 0 
L 2938 2094 
Q 2938 2591 2744 2837 
Q 2550 3084 2163 3084 
Q 1697 3084 1428 2787 
Q 1159 2491 1159 1978 
L 1159 0 
L 581 0 
L 581 3500 
L 1159 3500 
L 1159 2956 
Q 1366 3272 1645 3428 
Q 1925 3584 2291 3584 
Q 2894 3584 3203 3211 
Q 3513 2838 3513 2113 
z
" transform="scale(0.015625)"/>
       <path id="DejaVuSans-63" d="M 3122 3366 
L 3122 2828 
Q 2878 2963 2633 3030 
Q 2388 3097 2138 3097 
Q 1578 3097 1268 2742 
Q 959 2388 959 1747 
Q 959 1106 1268 751 
Q 1578 397 2138 397 
Q 2388 397 2633 464 
Q 2878 531 3122 666 
L 3122 134 
Q 2881 22 2623 -34 
Q 2366 -91 2075 -91 
Q 1284 -91 818 406 
Q 353 903 353 1747 
Q 353 2603 823 3093 
Q 1294 3584 2113 3584 
Q 2378 3584 2631 3529 
Q 2884 3475 3122 3366 
z
" transform="scale(0.015625)"/>
       <path id="DejaVuSans-20" transform="scale(0.015625)"/>
       <path id="DejaVuSans-50" d="M 1259 4147 
L 1259 2394 
L 2053 2394 
Q 2494 2394 2734 2622 
Q 2975 2850 2975 3272 
Q 2975 3691 2734 3919 
Q 2494 4147 2053 4147 
L 1259 4147 
z
M 628 4666 
L 2053 4666 
Q 2838 4666 3239 4311 
Q 3641 3956 3641 3272 
Q 3641 2581 3239 2228 
Q 2838 1875 2053 1875 
L 1259 1875 
L 1259 0 
L 628 0 
L 628 4666 
z
" transform="scale(0.015625)"/>
       <path id="DejaVuSans-72" d="M 2631 2963 
Q 2534 3019 2420 3045 
Q 2306 3072 2169 3072 
Q 1681 3072 1420 2755 
Q 1159 2438 1159 1844 
L 1159 0 
L 581 0 
L 581 3500 
L 1159 3500 
L 1159 2956 
Q 1341 3275 1631 3429 
Q 1922 3584 2338 3584 
Q 2397 3584 2469 3576 
Q 2541 3569 2628 3553 
L 2631 2963 
z
" transform="scale(0.015625)"/>
       <path id="DejaVuSans-69" d="M 603 3500 
L 1178 3500 
L 1178 0 
L 603 0 
L 603 3500 
z
M 603 4863 
L 1178 4863 
L 1178 4134 
L 603 4134 
L 603 4863 
z
" transform="scale(0.015625)"/>
       <path id="DejaVuSans-6f" d="M 1959 3097 
Q 1497 3097 1228 2736 
Q 959 2375 959 1747 
Q 959 1119 1226 758 
Q 1494 397 1959 397 
Q 2419 397 2687 759 
Q 2956 1122 2956 1747 
Q 2956 2369 2687 2733 
Q 2419 3097 1959 3097 
z
M 1959 3584 
Q 2709 3584 3137 3096 
Q 3566 2609 3566 1747 
Q 3566 888 3137 398 
Q 2709 -91 1959 -91 
Q 1206 -91 779 398 
Q 353 888 353 1747 
Q 353 2609 779 3096 
Q 1206 3584 1959 3584 
z
" transform="scale(0.015625)"/>
       <path id="DejaVuSans-64" d="M 2906 2969 
L 2906 4863 
L 3481 4863 
L 3481 0 
L 2906 0 
L 2906 525 
Q 2725 213 2448 61 
Q 2172 -91 1784 -91 
Q 1150 -91 751 415 
Q 353 922 353 1747 
Q 353 2572 751 3078 
Q 1150 3584 1784 3584 
Q 2172 3584 2448 3432 
Q 2725 3281 2906 2969 
z
M 947 1747 
Q 947 1113 1208 752 
Q 1469 391 1925 391 
Q 2381 391 2643 752 
Q 2906 1113 2906 1747 
Q 2906 2381 2643 2742 
Q 2381 3103 1925 3103 
Q 1469 3103 1208 2742 
Q 947 2381 947 1747 
z
" transform="scale(0.015625)"/>
      </defs>
      <use xlink:href="#DejaVuSans-52"/>
      <use xlink:href="#DejaVuSans-65" x="64.982422"/>
      <use xlink:href="#DejaVuSans-62" x="126.505859"/>
      <use xlink:href="#DejaVuSans-61" x="189.982422"/>
      <use xlink:href="#DejaVuSans-6c" x="251.261719"/>
      <use xlink:href="#DejaVuSans-61" x="279.044922"/>
      <use xlink:href="#DejaVuSans-6e" x="340.324219"/>
      <use xlink:href="#DejaVuSans-63" x="403.703125"/>
      <use xlink:href="#DejaVuSans-65" x="458.683594"/>
      <use xlink:href="#DejaVuSans-20" x="520.207031"/>
      <use xlink:href="#DejaVuSans-50" x="551.994141"/>
      <use xlink:href="#DejaVuSans-65" x="608.671875"/>
      <use xlink:href="#DejaVuSans-72" x="670.195312"/>
      <use xlink:href="#DejaVuSans-69" x="711.308594"/>
      <use xlink:href="#DejaVuSans-6f" x="739.091797"/>
      <use xlink:href="#DejaVuSans-64" x="800.273438"/>
     </g>
    </g>
   </g>
   <g id="matplotlib.axis_2">
    <g id="ytick_1">
     <g id="line2d_9">
      <defs>
       <path id="m832a40f565" d="M 0 0 
L -3.5 0 
" style="stroke: #000000; stroke-width: 0.8"/>
      </defs>
      <g>
       <use xlink:href="#m832a40f565" x="54" y="192.24" style="stroke: #000000; stroke-width: 0.8"/>
      </g>
     </g>
     <g id="text_10">
      <!-- 0.0 -->
      <g transform="translate(31.096875 196.039219)scale(0.1 -0.1)">
       <use xlink:href="#DejaVuSans-30"/>
       <use xlink:href="#DejaVuSans-2e" x="63.623047"/>
       <use xlink:href="#DejaVuSans-30" x="95.410156"/>
      </g>
     </g>
    </g>
    <g id="ytick_2">
     <g id="line2d_10">
      <g>
       <use xlink:href="#m832a40f565" x="54" y="161.913539" style="stroke: #000000; stroke-width: 0.8"/>
      </g>
     </g>
     <g id="text_11">
      <!-- 0.2 -->
      <g transform="translate(31.096875 165.712757)scale(0.1 -0.1)">
       <use xlink:href="#DejaVuSans-30"/>
       <use xlink:href="#DejaVuSans-2e" x="63.623047"/>
       <use xlink:href="#DejaVuSans-32" x="95.410156"/>
      </g>
     </g>
    </g>
    <g id="ytick_3">
     <g id="line2d_11">
      <g>
       <use xlink:href="#m832a40f565" x="54" y="131.587077" style="stroke: #000000; stroke-width: 0.8"/>
      </g>
     </g>
     <g id="text_12">
      <!-- 0.4 -->
      <g transform="translate(31.096875 135.386296)scale(0.1 -0.1)">
       <defs>
        <path id="DejaVuSans-34" d="M 2419 4116 
L 825 1625 
L 2419 1625 
L 2419 4116 
z
M 2253 4666 
L 3047 4666 
L 3047 1625 
L 3713 1625 
L 3713 1100 
L 3047 1100 
L 3047 0 
L 2419 0 
L 2419 1100 
L 313 1100 
L 313 1709 
L 2253 4666 
z
" transform="scale(0.015625)"/>
       </defs>
       <use xlink:href="#DejaVuSans-30"/>
       <use xlink:href="#DejaVuSans-2e" x="63.623047"/>
       <use xlink:href="#DejaVuSans-34" x="95.410156"/>
      </g>
     </g>
    </g>
    <g id="ytick_4">
     <g id="line2d_12">
      <g>
       <use xlink:href="#m832a40f565" x="54" y="101.260616" style="stroke: #000000; stroke-width: 0.8"/>
      </g>
     </g>
     <g id="text_13">
      <!-- 0.6 -->
      <g transform="translate(31.096875 105.059835)scale(0.1 -0.1)">
       <defs>
        <path id="DejaVuSans-36" d="M 2113 2584 
Q 1688 2584 1439 2293 
Q 1191 2003 1191 1497 
Q 1191 994 1439 701 
Q 1688 409 2113 409 
Q 2538 409 2786 701 
Q 3034 994 3034 1497 
Q 3034 2003 2786 2293 
Q 2538 2584 2113 2584 
z
M 3366 4563 
L 3366 3988 
Q 3128 4100 2886 4159 
Q 2644 4219 2406 4219 
Q 1781 4219 1451 3797 
Q 1122 3375 1075 2522 
Q 1259 2794 1537 2939 
Q 1816 3084 2150 3084 
Q 2853 3084 3261 2657 
Q 3669 2231 3669 1497 
Q 3669 778 3244 343 
Q 2819 -91 2113 -91 
Q 1303 -91 875 529 
Q 447 1150 447 2328 
Q 447 3434 972 4092 
Q 1497 4750 2381 4750 
Q 2619 4750 2861 4703 
Q 3103 4656 3366 4563 
z
" transform="scale(0.015625)"/>
       </defs>
       <use xlink:href="#DejaVuSans-30"/>
       <use xlink:href="#DejaVuSans-2e" x="63.623047"/>
       <use xlink:href="#DejaVuSans-36" x="95.410156"/>
      </g>
     </g>
    </g>
    <g id="ytick_5">
     <g id="line2d_13">
      <g>
       <use xlink:href="#m832a40f565" x="54" y="70.934155" style="stroke: #000000; stroke-width: 0.8"/>
      </g>
     </g>
     <g id="text_14">
      <!-- 0.8 -->
      <g transform="translate(31.096875 74.733373)scale(0.1 -0.1)">
       <defs>
        <path id="DejaVuSans-38" d="M 2034 2216 
Q 1584 2216 1326 1975 
Q 1069 1734 1069 1313 
Q 1069 891 1326 650 
Q 1584 409 2034 409 
Q 2484 409 2743 651 
Q 3003 894 3003 1313 
Q 3003 1734 2745 1975 
Q 2488 2216 2034 2216 
z
M 1403 2484 
Q 997 2584 770 2862 
Q 544 3141 544 3541 
Q 544 4100 942 4425 
Q 1341 4750 2034 4750 
Q 2731 4750 3128 4425 
Q 3525 4100 3525 3541 
Q 3525 3141 3298 2862 
Q 3072 2584 2669 2484 
Q 3125 2378 3379 2068 
Q 3634 1759 3634 1313 
Q 3634 634 3220 271 
Q 2806 -91 2034 -91 
Q 1263 -91 848 271 
Q 434 634 434 1313 
Q 434 1759 690 2068 
Q 947 2378 1403 2484 
z
M 1172 3481 
Q 1172 3119 1398 2916 
Q 1625 2713 2034 2713 
Q 2441 2713 2670 2916 
Q 2900 3119 2900 3481 
Q 2900 3844 2670 4047 
Q 2441 4250 2034 4250 
Q 1625 4250 1398 4047 
Q 1172 3844 1172 3481 
z
" transform="scale(0.015625)"/>
       </defs>
       <use xlink:href="#DejaVuSans-30"/>
       <use xlink:href="#DejaVuSans-2e" x="63.623047"/>
       <use xlink:href="#DejaVuSans-38" x="95.410156"/>
      </g>
     </g>
    </g>
    <g id="ytick_6">
     <g id="line2d_14">
      <g>
       <use xlink:href="#m832a40f565" x="54" y="40.607693" style="stroke: #000000; stroke-width: 0.8"/>
      </g>
     </g>
     <g id="text_15">
      <!-- 1.0 -->
      <g transform="translate(31.096875 44.406912)scale(0.1 -0.1)">
       <use xlink:href="#DejaVuSans-31"/>
       <use xlink:href="#DejaVuSans-2e" x="63.623047"/>
       <use xlink:href="#DejaVuSans-30" x="95.410156"/>
      </g>
     </g>
    </g>
    <g id="text_16">
     <!-- Weights -->
     <g transform="translate(25.017187 129.103437)rotate(-90)scale(0.1 -0.1)">
      <defs>
       <path id="DejaVuSans-57" d="M 213 4666 
L 850 4666 
L 1831 722 
L 2809 4666 
L 3519 4666 
L 4500 722 
L 5478 4666 
L 6119 4666 
L 4947 0 
L 4153 0 
L 3169 4050 
L 2175 0 
L 1381 0 
L 213 4666 
z
" transform="scale(0.015625)"/>
       <path id="DejaVuSans-67" d="M 2906 1791 
Q 2906 2416 2648 2759 
Q 2391 3103 1925 3103 
Q 1463 3103 1205 2759 
Q 947 2416 947 1791 
Q 947 1169 1205 825 
Q 1463 481 1925 481 
Q 2391 481 2648 825 
Q 2906 1169 2906 1791 
z
M 3481 434 
Q 3481 -459 3084 -895 
Q 2688 -1331 1869 -1331 
Q 1566 -1331 1297 -1286 
Q 1028 -1241 775 -1147 
L 775 -588 
Q 1028 -725 1275 -790 
Q 1522 -856 1778 -856 
Q 2344 -856 2625 -561 
Q 2906 -266 2906 331 
L 2906 616 
Q 2728 306 2450 153 
Q 2172 0 1784 0 
Q 1141 0 747 490 
Q 353 981 353 1791 
Q 353 2603 747 3093 
Q 1141 3584 1784 3584 
Q 2172 3584 2450 3431 
Q 2728 3278 2906 2969 
L 2906 3500 
L 3481 3500 
L 3481 434 
z
" transform="scale(0.015625)"/>
       <path id="DejaVuSans-68" d="M 3513 2113 
L 3513 0 
L 2938 0 
L 2938 2094 
Q 2938 2591 2744 2837 
Q 2550 3084 2163 3084 
Q 1697 3084 1428 2787 
Q 1159 2491 1159 1978 
L 1159 0 
L 581 0 
L 581 4863 
L 1159 4863 
L 1159 2956 
Q 1366 3272 1645 3428 
Q 1925 3584 2291 3584 
Q 2894 3584 3203 3211 
Q 3513 2838 3513 2113 
z
" transform="scale(0.015625)"/>
       <path id="DejaVuSans-74" d="M 1172 4494 
L 1172 3500 
L 2356 3500 
L 2356 3053 
L 1172 3053 
L 1172 1153 
Q 1172 725 1289 603 
Q 1406 481 1766 481 
L 2356 481 
L 2356 0 
L 1766 0 
Q 1100 0 847 248 
Q 594 497 594 1153 
L 594 3053 
L 172 3053 
L 172 3500 
L 594 3500 
L 594 4494 
L 1172 4494 
z
" transform="scale(0.015625)"/>
       <path id="DejaVuSans-73" d="M 2834 3397 
L 2834 2853 
Q 2591 2978 2328 3040 
Q 2066 3103 1784 3103 
Q 1356 3103 1142 2972 
Q 928 2841 928 2578 
Q 928 2378 1081 2264 
Q 1234 2150 1697 2047 
L 1894 2003 
Q 2506 1872 2764 1633 
Q 3022 1394 3022 966 
Q 3022 478 2636 193 
Q 2250 -91 1575 -91 
Q 1294 -91 989 -36 
Q 684 19 347 128 
L 347 722 
Q 666 556 975 473 
Q 1284 391 1588 391 
Q 1994 391 2212 530 
Q 2431 669 2431 922 
Q 2431 1156 2273 1281 
Q 2116 1406 1581 1522 
L 1381 1569 
Q 847 1681 609 1914 
Q 372 2147 372 2553 
Q 372 3047 722 3315 
Q 1072 3584 1716 3584 
Q 2034 3584 2315 3537 
Q 2597 3491 2834 3397 
z
" transform="scale(0.015625)"/>
      </defs>
      <use xlink:href="#DejaVuSans-57"/>
      <use xlink:href="#DejaVuSans-65" x="93.001953"/>
      <use xlink:href="#DejaVuSans-69" x="154.525391"/>
      <use xlink:href="#DejaVuSans-67" x="182.308594"/>
      <use xlink:href="#DejaVuSans-68" x="245.785156"/>
      <use xlink:href="#DejaVuSans-74" x="309.164062"/>
      <use xlink:href="#DejaVuSans-73" x="348.373047"/>
     </g>
    </g>
   </g>
   <g id="line2d_15">
    <path d="M 69.218182 189.89596 
L 85.237321 189.058231 
L 101.256459 188.915458 
L 117.275598 177.714139 
L 133.294737 190.301795 
L 149.313876 190.925049 
L 165.333014 190.929299 
L 181.352153 190.838816 
L 197.371292 190.831768 
L 213.390431 190.832264 
L 229.409569 190.800048 
L 245.428708 190.8457 
L 261.447847 190.916518 
L 277.466986 190.236701 
L 293.486124 189.854105 
L 309.505263 189.870432 
L 325.524402 189.638959 
L 341.543541 189.49394 
L 357.562679 188.516434 
L 373.581818 188.562452 
" clip-path="url(#pa7ed800bc2)" style="fill: none; stroke: #1f77b4; stroke-width: 1.5; stroke-linecap: square"/>
   </g>
   <g id="line2d_16">
    <path d="M 69.218182 186.452361 
L 85.237321 186.003784 
L 101.256459 185.34827 
L 117.275598 155.955239 
L 133.294737 186.520769 
L 149.313876 187.691534 
L 165.333014 187.881644 
L 181.352153 187.679846 
L 197.371292 187.844525 
L 213.390431 187.844514 
L 229.409569 188.060677 
L 245.428708 188.514826 
L 261.447847 188.74816 
L 277.466986 188.334101 
L 293.486124 187.503294 
L 309.505263 187.489518 
L 325.524402 187.220902 
L 341.543541 186.940002 
L 357.562679 185.283726 
L 373.581818 187.256098 
" clip-path="url(#pa7ed800bc2)" style="fill: none; stroke: #ff7f0e; stroke-width: 1.5; stroke-linecap: square"/>
   </g>
   <g id="line2d_17">
    <path d="M 69.218182 180.121346 
L 85.237321 179.581654 
L 101.256459 178.325087 
L 117.275598 155.921398 
L 133.294737 178.344829 
L 149.313876 182.495673 
L 165.333014 182.840858 
L 181.352153 182.796698 
L 197.371292 182.984665 
L 213.390431 183.074237 
L 229.409569 183.662015 
L 245.428708 184.53234 
L 261.447847 185.002922 
L 277.466986 184.079727 
L 293.486124 183.531547 
L 309.505263 183.145856 
L 325.524402 183.0461 
L 341.543541 182.552977 
L 357.562679 179.980589 
L 373.581818 181.493496 
" clip-path="url(#pa7ed800bc2)" style="fill: none; stroke: #2ca02c; stroke-width: 1.5; stroke-linecap: square"/>
   </g>
   <g id="line2d_18">
    <path d="M 69.218182 176.226244 
L 85.237321 174.347048 
L 101.256459 173.862909 
L 117.275598 130.967865 
L 133.294737 171.465933 
L 149.313876 172.58284 
L 165.333014 171.590839 
L 181.352153 171.758589 
L 197.371292 171.147046 
L 213.390431 170.887674 
L 229.409569 170.719922 
L 245.428708 171.678052 
L 261.447847 172.855188 
L 277.466986 170.529636 
L 293.486124 169.824502 
L 309.505263 168.853635 
L 325.524402 170.771547 
L 341.543541 171.654825 
L 357.562679 170.644291 
L 373.581818 168.341994 
" clip-path="url(#pa7ed800bc2)" style="fill: none; stroke: #d62728; stroke-width: 1.5; stroke-linecap: square"/>
   </g>
   <g id="line2d_19">
    <path d="M 69.218182 168.192359 
L 85.237321 165.069102 
L 101.256459 164.321938 
L 117.275598 130.943774 
L 133.294737 162.843342 
L 149.313876 162.950336 
L 165.333014 161.995772 
L 181.352153 162.211651 
L 197.371292 162.036687 
L 213.390431 161.659328 
L 229.409569 161.153563 
L 245.428708 162.515723 
L 261.447847 162.286547 
L 277.466986 158.593314 
L 293.486124 158.211271 
L 309.505263 157.874138 
L 325.524402 159.088998 
L 341.543541 160.964656 
L 357.562679 160.413843 
L 373.581818 157.054308 
" clip-path="url(#pa7ed800bc2)" style="fill: none; stroke: #9467bd; stroke-width: 1.5; stroke-linecap: square"/>
   </g>
   <g id="line2d_20">
    <path d="M 69.218182 152.8847 
L 85.237321 149.494329 
L 101.256459 149.008753 
L 117.275598 130.931 
L 133.294737 153.320447 
L 149.313876 152.513995 
L 165.333014 151.498805 
L 181.352153 152.171116 
L 197.371292 151.941708 
L 213.390431 151.363598 
L 229.409569 151.194018 
L 245.428708 153.059827 
L 261.447847 149.077736 
L 277.466986 144.718746 
L 293.486124 146.175683 
L 309.505263 144.952802 
L 325.524402 145.932329 
L 341.543541 148.477151 
L 357.562679 147.223223 
L 373.581818 139.835812 
" clip-path="url(#pa7ed800bc2)" style="fill: none; stroke: #8c564b; stroke-width: 1.5; stroke-linecap: square"/>
   </g>
   <g id="line2d_21">
    <path d="M 69.218182 140.580549 
L 85.237321 136.913221 
L 101.256459 133.424085 
L 117.275598 124.606766 
L 133.294737 136.679175 
L 149.313876 138.997 
L 165.333014 138.550689 
L 181.352153 139.690666 
L 197.371292 139.577979 
L 213.390431 139.590122 
L 229.409569 140.126027 
L 245.428708 141.851488 
L 261.447847 138.480695 
L 277.466986 133.879584 
L 293.486124 136.581283 
L 309.505263 135.465083 
L 325.524402 136.685743 
L 341.543541 137.829207 
L 357.562679 132.080847 
L 373.581818 129.451747 
" clip-path="url(#pa7ed800bc2)" style="fill: none; stroke: #e377c2; stroke-width: 1.5; stroke-linecap: square"/>
   </g>
   <g id="line2d_22">
    <path d="M 69.218182 131.15999 
L 85.237321 126.410172 
L 101.256459 126.303327 
L 117.275598 103.551393 
L 133.294737 133.209506 
L 149.313876 137.270627 
L 165.333014 136.969783 
L 181.352153 138.049758 
L 197.371292 137.927848 
L 213.390431 137.925216 
L 229.409569 138.479933 
L 245.428708 140.395531 
L 261.447847 137.172694 
L 277.466986 132.438457 
L 293.486124 134.589583 
L 309.505263 133.503935 
L 325.524402 134.757342 
L 341.543541 135.821413 
L 357.562679 129.200663 
L 373.581818 127.137871 
" clip-path="url(#pa7ed800bc2)" style="fill: none; stroke: #7f7f7f; stroke-width: 1.5; stroke-linecap: square"/>
   </g>
   <g id="line2d_23">
    <path d="M 69.218182 118.69314 
L 85.237321 113.52075 
L 101.256459 113.781022 
L 117.275598 103.53217 
L 133.294737 124.283075 
L 149.313876 134.633544 
L 165.333014 134.315766 
L 181.352153 135.371261 
L 197.371292 135.289211 
L 213.390431 135.283925 
L 229.409569 135.796398 
L 245.428708 137.984149 
L 261.447847 135.057658 
L 277.466986 128.541624 
L 293.486124 130.848495 
L 309.505263 129.238948 
L 325.524402 129.307206 
L 341.543541 130.165472 
L 357.562679 122.367696 
L 373.581818 113.440067 
" clip-path="url(#pa7ed800bc2)" style="fill: none; stroke: #bcbd22; stroke-width: 1.5; stroke-linecap: square"/>
   </g>
   <g id="line2d_24">
    <path d="M 69.218182 112.900797 
L 85.237321 104.606086 
L 101.256459 105.716655 
L 117.275598 103.460953 
L 133.294737 118.117911 
L 149.313876 131.116172 
L 165.333014 130.951869 
L 181.352153 131.92056 
L 197.371292 131.877093 
L 213.390431 131.881077 
L 229.409569 132.598155 
L 245.428708 135.141617 
L 261.447847 132.467746 
L 277.466986 126.282356 
L 293.486124 128.437197 
L 309.505263 126.920494 
L 325.524402 126.983472 
L 341.543541 127.773805 
L 357.562679 119.052956 
L 373.581818 107.883613 
" clip-path="url(#pa7ed800bc2)" style="fill: none; stroke: #17becf; stroke-width: 1.5; stroke-linecap: square"/>
   </g>
   <g id="line2d_25">
    <path d="M 69.218182 110.951994 
L 85.237321 102.876734 
L 101.256459 104.03039 
L 117.275598 92.28842 
L 133.294737 115.138693 
L 149.313876 126.662701 
L 165.333014 126.378979 
L 181.352153 127.210633 
L 197.371292 127.092281 
L 213.390431 126.992836 
L 229.409569 127.594323 
L 245.428708 130.016015 
L 261.447847 127.368348 
L 277.466986 121.502475 
L 293.486124 123.724425 
L 309.505263 122.153258 
L 325.524402 122.327746 
L 341.543541 122.522981 
L 357.562679 115.259332 
L 373.581818 103.627122 
" clip-path="url(#pa7ed800bc2)" style="fill: none; stroke: #1f77b4; stroke-width: 1.5; stroke-linecap: square"/>
   </g>
   <g id="line2d_26">
    <path d="M 69.218182 104.580143 
L 85.237321 96.943359 
L 101.256459 98.746583 
L 117.275598 92.206465 
L 133.294737 109.607912 
L 149.313876 118.342466 
L 165.333014 118.011875 
L 181.352153 118.677686 
L 197.371292 118.634926 
L 213.390431 118.445619 
L 229.409569 118.804872 
L 245.428708 122.157426 
L 261.447847 116.437437 
L 277.466986 114.428638 
L 293.486124 116.825016 
L 309.505263 115.994203 
L 325.524402 116.244978 
L 341.543541 116.231889 
L 357.562679 109.395585 
L 373.581818 97.415679 
" clip-path="url(#pa7ed800bc2)" style="fill: none; stroke: #ff7f0e; stroke-width: 1.5; stroke-linecap: square"/>
   </g>
   <g id="line2d_27">
    <path d="M 69.218182 97.997899 
L 85.237321 91.32698 
L 101.256459 93.132583 
L 117.275598 92.175019 
L 133.294737 100.201399 
L 149.313876 111.03133 
L 165.333014 110.914686 
L 181.352153 111.19019 
L 197.371292 110.952989 
L 213.390431 110.668272 
L 229.409569 111.343764 
L 245.428708 115.225722 
L 261.447847 110.422266 
L 277.466986 106.312421 
L 293.486124 109.624162 
L 309.505263 108.914646 
L 325.524402 109.388306 
L 341.543541 109.1021 
L 357.562679 101.365128 
L 373.581818 87.256708 
" clip-path="url(#pa7ed800bc2)" style="fill: none; stroke: #2ca02c; stroke-width: 1.5; stroke-linecap: square"/>
   </g>
   <g id="line2d_28">
    <path d="M 69.218182 71.856514 
L 85.237321 74.345838 
L 101.256459 74.84538 
L 117.275598 92.161875 
L 133.294737 86.631436 
L 149.313876 99.459762 
L 165.333014 100.258272 
L 181.352153 101.001851 
L 197.371292 100.440031 
L 213.390431 100.165647 
L 229.409569 100.707678 
L 245.428708 105.421625 
L 261.447847 100.021611 
L 277.466986 94.524626 
L 293.486124 99.811939 
L 309.505263 99.156648 
L 325.524402 100.582941 
L 341.543541 99.922036 
L 357.562679 93.328952 
L 373.581818 73.23705 
" clip-path="url(#pa7ed800bc2)" style="fill: none; stroke: #d62728; stroke-width: 1.5; stroke-linecap: square"/>
   </g>
   <g id="line2d_29">
    <path d="M 69.218182 67.618753 
L 85.237321 70.815206 
L 101.256459 71.174574 
L 117.275598 68.920243 
L 133.294737 80.219566 
L 149.313876 87.547744 
L 165.333014 87.043751 
L 181.352153 88.086819 
L 197.371292 87.893727 
L 213.390431 88.090535 
L 229.409569 89.557757 
L 245.428708 94.842371 
L 261.447847 91.207036 
L 277.466986 87.754688 
L 293.486124 94.277521 
L 309.505263 93.545749 
L 325.524402 95.282692 
L 341.543541 93.856585 
L 357.562679 87.968284 
L 373.581818 63.762206 
" clip-path="url(#pa7ed800bc2)" style="fill: none; stroke: #9467bd; stroke-width: 1.5; stroke-linecap: square"/>
   </g>
   <g id="line2d_30">
    <path d="M 69.218182 64.402725 
L 85.237321 68.395031 
L 101.256459 68.801565 
L 117.275598 48.752491 
L 133.294737 76.819665 
L 149.313876 82.853686 
L 165.333014 82.070516 
L 181.352153 82.599345 
L 197.371292 82.639121 
L 213.390431 82.792541 
L 229.409569 84.992458 
L 245.428708 91.072146 
L 261.447847 87.360253 
L 277.466986 84.669292 
L 293.486124 91.409787 
L 309.505263 90.930787 
L 325.524402 92.904746 
L 341.543541 91.324857 
L 357.562679 85.911992 
L 373.581818 63.762206 
" clip-path="url(#pa7ed800bc2)" style="fill: none; stroke: #8c564b; stroke-width: 1.5; stroke-linecap: square"/>
   </g>
   <g id="line2d_31">
    <path d="M 69.218182 55.952814 
L 85.237321 58.085253 
L 101.256459 58.058729 
L 117.275598 48.723202 
L 133.294737 61.064879 
L 149.313876 67.508916 
L 165.333014 67.531887 
L 181.352153 68.330733 
L 197.371292 68.278444 
L 213.390431 68.397353 
L 229.409569 69.651352 
L 245.428708 71.356299 
L 261.447847 69.527076 
L 277.466986 69.08579 
L 293.486124 69.99736 
L 309.505263 70.710879 
L 325.524402 75.156001 
L 341.543541 71.725097 
L 357.562679 65.705853 
L 373.581818 54.477651 
" clip-path="url(#pa7ed800bc2)" style="fill: none; stroke: #e377c2; stroke-width: 1.5; stroke-linecap: square"/>
   </g>
   <g id="line2d_32">
    <path d="M 69.218182 50.676524 
L 85.237321 49.765064 
L 101.256459 49.852522 
L 117.275598 48.644729 
L 133.294737 52.995593 
L 149.313876 58.278139 
L 165.333014 58.383884 
L 181.352153 59.162988 
L 197.371292 59.117635 
L 213.390431 59.055548 
L 229.409569 60.044861 
L 245.428708 60.132342 
L 261.447847 60.147332 
L 277.466986 57.952448 
L 293.486124 59.467724 
L 309.505263 59.582715 
L 325.524402 62.357088 
L 341.543541 60.248434 
L 357.562679 54.235801 
L 373.581818 42.997502 
" clip-path="url(#pa7ed800bc2)" style="fill: none; stroke: #7f7f7f; stroke-width: 1.5; stroke-linecap: square"/>
   </g>
   <g id="line2d_33">
    <path d="M 69.218182 43.138703 
L 85.237321 43.101981 
L 101.256459 43.180553 
L 117.275598 40.645265 
L 133.294737 45.209698 
L 149.313876 48.54264 
L 165.333014 48.459164 
L 181.352153 49.160466 
L 197.371292 50.186846 
L 213.390431 49.706046 
L 229.409569 50.129447 
L 245.428708 48.531446 
L 261.447847 49.945472 
L 277.466986 47.506848 
L 293.486124 49.68927 
L 309.505263 48.552974 
L 325.524402 45.710033 
L 341.543541 45.609199 
L 357.562679 43.047866 
L 373.581818 33.84 
" clip-path="url(#pa7ed800bc2)" style="fill: none; stroke: #bcbd22; stroke-width: 1.5; stroke-linecap: square"/>
   </g>
   <g id="line2d_34">
    <path d="M 69.218182 40.607693 
L 85.237321 40.607693 
L 101.256459 40.607693 
L 117.275598 40.607693 
L 133.294737 40.607693 
L 149.313876 40.607693 
L 165.333014 40.607693 
L 181.352153 40.607693 
L 197.371292 40.607693 
L 213.390431 40.607693 
L 229.409569 40.607693 
L 245.428708 40.607693 
L 261.447847 40.607693 
L 277.466986 40.607693 
L 293.486124 40.607693 
L 309.505263 40.607693 
L 325.524402 40.607693 
L 341.543541 40.607693 
L 357.562679 40.607693 
L 373.581818 33.84 
" clip-path="url(#pa7ed800bc2)" style="fill: none; stroke: #17becf; stroke-width: 1.5; stroke-linecap: square"/>
   </g>
   <g id="patch_3">
    <path d="M 54 192.24 
L 54 25.92 
" style="fill: none; stroke: #000000; stroke-width: 0.8; stroke-linejoin: miter; stroke-linecap: square"/>
   </g>
   <g id="patch_4">
    <path d="M 388.8 192.24 
L 388.8 25.92 
" style="fill: none; stroke: #000000; stroke-width: 0.8; stroke-linejoin: miter; stroke-linecap: square"/>
   </g>
   <g id="patch_5">
    <path d="M 54 192.24 
L 388.8 192.24 
" style="fill: none; stroke: #000000; stroke-width: 0.8; stroke-linejoin: miter; stroke-linecap: square"/>
   </g>
   <g id="patch_6">
    <path d="M 54 25.92 
L 388.8 25.92 
" style="fill: none; stroke: #000000; stroke-width: 0.8; stroke-linejoin: miter; stroke-linecap: square"/>
   </g>
   <g id="text_17">
    <!-- Portfolio weights -->
    <g transform="translate(171.459375 19.92)scale(0.12 -0.12)">
     <defs>
      <path id="DejaVuSans-66" d="M 2375 4863 
L 2375 4384 
L 1825 4384 
Q 1516 4384 1395 4259 
Q 1275 4134 1275 3809 
L 1275 3500 
L 2222 3500 
L 2222 3053 
L 1275 3053 
L 1275 0 
L 697 0 
L 697 3053 
L 147 3053 
L 147 3500 
L 697 3500 
L 697 3744 
Q 697 4328 969 4595 
Q 1241 4863 1831 4863 
L 2375 4863 
z
" transform="scale(0.015625)"/>
      <path id="DejaVuSans-77" d="M 269 3500 
L 844 3500 
L 1563 769 
L 2278 3500 
L 2956 3500 
L 3675 769 
L 4391 3500 
L 4966 3500 
L 4050 0 
L 3372 0 
L 2619 2869 
L 1863 0 
L 1184 0 
L 269 3500 
z
" transform="scale(0.015625)"/>
     </defs>
     <use xlink:href="#DejaVuSans-50"/>
     <use xlink:href="#DejaVuSans-6f" x="56.677734"/>
     <use xlink:href="#DejaVuSans-72" x="117.859375"/>
     <use xlink:href="#DejaVuSans-74" x="158.972656"/>
     <use xlink:href="#DejaVuSans-66" x="198.181641"/>
     <use xlink:href="#DejaVuSans-6f" x="233.386719"/>
     <use xlink:href="#DejaVuSans-6c" x="294.568359"/>
     <use xlink:href="#DejaVuSans-69" x="322.351562"/>
     <use xlink:href="#DejaVuSans-6f" x="350.134766"/>
     <use xlink:href="#DejaVuSans-20" x="411.316406"/>
     <use xlink:href="#DejaVuSans-77" x="443.103516"/>
     <use xlink:href="#DejaVuSans-65" x="524.890625"/>
     <use xlink:href="#DejaVuSans-69" x="586.414062"/>
     <use xlink:href="#DejaVuSans-67" x="614.197266"/>
     <use xlink:href="#DejaVuSans-68" x="677.673828"/>
     <use xlink:href="#DejaVuSans-74" x="741.052734"/>
     <use xlink:href="#DejaVuSans-73" x="780.261719"/>
    </g>
   </g>
   <g id="legend_1">
    <g id="patch_7">
     <path d="M 395.8 257.36125 
L 453.357813 257.36125 
Q 455.357813 257.36125 455.357813 255.36125 
L 455.357813 -37.20125 
Q 455.357813 -39.20125 453.357813 -39.20125 
L 395.8 -39.20125 
Q 393.8 -39.20125 393.8 -37.20125 
L 393.8 255.36125 
Q 393.8 257.36125 395.8 257.36125 
z
" style="fill: #ffffff; opacity: 0.8; stroke: #cccccc; stroke-linejoin: miter"/>
    </g>
    <g id="patch_8">
     <path d="M 397.8 -27.602813 
L 417.8 -27.602813 
L 417.8 -34.602813 
L 397.8 -34.602813 
z
" style="fill: #1f77b4; stroke: #1f77b4; stroke-linejoin: miter"/>
    </g>
    <g id="text_18">
     <!-- F -->
     <g transform="translate(425.8 -27.602813)scale(0.1 -0.1)">
      <defs>
       <path id="DejaVuSans-46" d="M 628 4666 
L 3309 4666 
L 3309 4134 
L 1259 4134 
L 1259 2759 
L 3109 2759 
L 3109 2228 
L 1259 2228 
L 1259 0 
L 628 0 
L 628 4666 
z
" transform="scale(0.015625)"/>
      </defs>
      <use xlink:href="#DejaVuSans-46"/>
     </g>
    </g>
    <g id="patch_9">
     <path d="M 397.8 -12.924688 
L 417.8 -12.924688 
L 417.8 -19.924688 
L 397.8 -19.924688 
z
" style="fill: #ff7f0e; stroke: #ff7f0e; stroke-linejoin: miter"/>
    </g>
    <g id="text_19">
     <!-- CAT -->
     <g transform="translate(425.8 -12.924688)scale(0.1 -0.1)">
      <defs>
       <path id="DejaVuSans-43" d="M 4122 4306 
L 4122 3641 
Q 3803 3938 3442 4084 
Q 3081 4231 2675 4231 
Q 1875 4231 1450 3742 
Q 1025 3253 1025 2328 
Q 1025 1406 1450 917 
Q 1875 428 2675 428 
Q 3081 428 3442 575 
Q 3803 722 4122 1019 
L 4122 359 
Q 3791 134 3420 21 
Q 3050 -91 2638 -91 
Q 1578 -91 968 557 
Q 359 1206 359 2328 
Q 359 3453 968 4101 
Q 1578 4750 2638 4750 
Q 3056 4750 3426 4639 
Q 3797 4528 4122 4306 
z
" transform="scale(0.015625)"/>
       <path id="DejaVuSans-41" d="M 2188 4044 
L 1331 1722 
L 3047 1722 
L 2188 4044 
z
M 1831 4666 
L 2547 4666 
L 4325 0 
L 3669 0 
L 3244 1197 
L 1141 1197 
L 716 0 
L 50 0 
L 1831 4666 
z
" transform="scale(0.015625)"/>
       <path id="DejaVuSans-54" d="M -19 4666 
L 3928 4666 
L 3928 4134 
L 2272 4134 
L 2272 0 
L 1638 0 
L 1638 4134 
L -19 4134 
L -19 4666 
z
" transform="scale(0.015625)"/>
      </defs>
      <use xlink:href="#DejaVuSans-43"/>
      <use xlink:href="#DejaVuSans-41" x="69.824219"/>
      <use xlink:href="#DejaVuSans-54" x="130.482422"/>
     </g>
    </g>
    <g id="patch_10">
     <path d="M 397.8 1.753437 
L 417.8 1.753437 
L 417.8 -5.246563 
L 397.8 -5.246563 
z
" style="fill: #2ca02c; stroke: #2ca02c; stroke-linejoin: miter"/>
    </g>
    <g id="text_20">
     <!-- DIS -->
     <g transform="translate(425.8 1.753437)scale(0.1 -0.1)">
      <defs>
       <path id="DejaVuSans-44" d="M 1259 4147 
L 1259 519 
L 2022 519 
Q 2988 519 3436 956 
Q 3884 1394 3884 2338 
Q 3884 3275 3436 3711 
Q 2988 4147 2022 4147 
L 1259 4147 
z
M 628 4666 
L 1925 4666 
Q 3281 4666 3915 4102 
Q 4550 3538 4550 2338 
Q 4550 1131 3912 565 
Q 3275 0 1925 0 
L 628 0 
L 628 4666 
z
" transform="scale(0.015625)"/>
       <path id="DejaVuSans-49" d="M 628 4666 
L 1259 4666 
L 1259 0 
L 628 0 
L 628 4666 
z
" transform="scale(0.015625)"/>
       <path id="DejaVuSans-53" d="M 3425 4513 
L 3425 3897 
Q 3066 4069 2747 4153 
Q 2428 4238 2131 4238 
Q 1616 4238 1336 4038 
Q 1056 3838 1056 3469 
Q 1056 3159 1242 3001 
Q 1428 2844 1947 2747 
L 2328 2669 
Q 3034 2534 3370 2195 
Q 3706 1856 3706 1288 
Q 3706 609 3251 259 
Q 2797 -91 1919 -91 
Q 1588 -91 1214 -16 
Q 841 59 441 206 
L 441 856 
Q 825 641 1194 531 
Q 1563 422 1919 422 
Q 2459 422 2753 634 
Q 3047 847 3047 1241 
Q 3047 1584 2836 1778 
Q 2625 1972 2144 2069 
L 1759 2144 
Q 1053 2284 737 2584 
Q 422 2884 422 3419 
Q 422 4038 858 4394 
Q 1294 4750 2059 4750 
Q 2388 4750 2728 4690 
Q 3069 4631 3425 4513 
z
" transform="scale(0.015625)"/>
      </defs>
      <use xlink:href="#DejaVuSans-44"/>
      <use xlink:href="#DejaVuSans-49" x="77.001953"/>
      <use xlink:href="#DejaVuSans-53" x="106.494141"/>
     </g>
    </g>
    <g id="patch_11">
     <path d="M 397.8 16.431562 
L 417.8 16.431562 
L 417.8 9.431562 
L 397.8 9.431562 
z
" style="fill: #d62728; stroke: #d62728; stroke-linejoin: miter"/>
    </g>
    <g id="text_21">
     <!-- MCD -->
     <g transform="translate(425.8 16.431562)scale(0.1 -0.1)">
      <defs>
       <path id="DejaVuSans-4d" d="M 628 4666 
L 1569 4666 
L 2759 1491 
L 3956 4666 
L 4897 4666 
L 4897 0 
L 4281 0 
L 4281 4097 
L 3078 897 
L 2444 897 
L 1241 4097 
L 1241 0 
L 628 0 
L 628 4666 
z
" transform="scale(0.015625)"/>
      </defs>
      <use xlink:href="#DejaVuSans-4d"/>
      <use xlink:href="#DejaVuSans-43" x="86.279297"/>
      <use xlink:href="#DejaVuSans-44" x="156.103516"/>
     </g>
    </g>
    <g id="patch_12">
     <path d="M 397.8 31.109688 
L 417.8 31.109688 
L 417.8 24.109688 
L 397.8 24.109688 
z
" style="fill: #9467bd; stroke: #9467bd; stroke-linejoin: miter"/>
    </g>
    <g id="text_22">
     <!-- KO -->
     <g transform="translate(425.8 31.109688)scale(0.1 -0.1)">
      <defs>
       <path id="DejaVuSans-4b" d="M 628 4666 
L 1259 4666 
L 1259 2694 
L 3353 4666 
L 4166 4666 
L 1850 2491 
L 4331 0 
L 3500 0 
L 1259 2247 
L 1259 0 
L 628 0 
L 628 4666 
z
" transform="scale(0.015625)"/>
       <path id="DejaVuSans-4f" d="M 2522 4238 
Q 1834 4238 1429 3725 
Q 1025 3213 1025 2328 
Q 1025 1447 1429 934 
Q 1834 422 2522 422 
Q 3209 422 3611 934 
Q 4013 1447 4013 2328 
Q 4013 3213 3611 3725 
Q 3209 4238 2522 4238 
z
M 2522 4750 
Q 3503 4750 4090 4092 
Q 4678 3434 4678 2328 
Q 4678 1225 4090 567 
Q 3503 -91 2522 -91 
Q 1538 -91 948 565 
Q 359 1222 359 2328 
Q 359 3434 948 4092 
Q 1538 4750 2522 4750 
z
" transform="scale(0.015625)"/>
      </defs>
      <use xlink:href="#DejaVuSans-4b"/>
      <use xlink:href="#DejaVuSans-4f" x="60.076172"/>
     </g>
    </g>
    <g id="patch_13">
     <path d="M 397.8 45.787812 
L 417.8 45.787812 
L 417.8 38.787812 
L 397.8 38.787812 
z
" style="fill: #8c564b; stroke: #8c564b; stroke-linejoin: miter"/>
    </g>
    <g id="text_23">
     <!-- PEP -->
     <g transform="translate(425.8 45.787812)scale(0.1 -0.1)">
      <defs>
       <path id="DejaVuSans-45" d="M 628 4666 
L 3578 4666 
L 3578 4134 
L 1259 4134 
L 1259 2753 
L 3481 2753 
L 3481 2222 
L 1259 2222 
L 1259 531 
L 3634 531 
L 3634 0 
L 628 0 
L 628 4666 
z
" transform="scale(0.015625)"/>
      </defs>
      <use xlink:href="#DejaVuSans-50"/>
      <use xlink:href="#DejaVuSans-45" x="60.302734"/>
      <use xlink:href="#DejaVuSans-50" x="123.486328"/>
     </g>
    </g>
    <g id="patch_14">
     <path d="M 397.8 60.465937 
L 417.8 60.465937 
L 417.8 53.465937 
L 397.8 53.465937 
z
" style="fill: #e377c2; stroke: #e377c2; stroke-linejoin: miter"/>
    </g>
    <g id="text_24">
     <!-- WMT -->
     <g transform="translate(425.8 60.465937)scale(0.1 -0.1)">
      <use xlink:href="#DejaVuSans-57"/>
      <use xlink:href="#DejaVuSans-4d" x="98.876953"/>
      <use xlink:href="#DejaVuSans-54" x="185.15625"/>
     </g>
    </g>
    <g id="patch_15">
     <path d="M 397.8 75.144062 
L 417.8 75.144062 
L 417.8 68.144062 
L 397.8 68.144062 
z
" style="fill: #7f7f7f; stroke: #7f7f7f; stroke-linejoin: miter"/>
    </g>
    <g id="text_25">
     <!-- C -->
     <g transform="translate(425.8 75.144062)scale(0.1 -0.1)">
      <use xlink:href="#DejaVuSans-43"/>
     </g>
    </g>
    <g id="patch_16">
     <path d="M 397.8 89.822187 
L 417.8 89.822187 
L 417.8 82.822187 
L 397.8 82.822187 
z
" style="fill: #bcbd22; stroke: #bcbd22; stroke-linejoin: miter"/>
    </g>
    <g id="text_26">
     <!-- WFC -->
     <g transform="translate(425.8 89.822187)scale(0.1 -0.1)">
      <use xlink:href="#DejaVuSans-57"/>
      <use xlink:href="#DejaVuSans-46" x="98.876953"/>
      <use xlink:href="#DejaVuSans-43" x="156.396484"/>
     </g>
    </g>
    <g id="patch_17">
     <path d="M 397.8 104.500312 
L 417.8 104.500312 
L 417.8 97.500312 
L 397.8 97.500312 
z
" style="fill: #17becf; stroke: #17becf; stroke-linejoin: miter"/>
    </g>
    <g id="text_27">
     <!-- JPM -->
     <g transform="translate(425.8 104.500312)scale(0.1 -0.1)">
      <defs>
       <path id="DejaVuSans-4a" d="M 628 4666 
L 1259 4666 
L 1259 325 
Q 1259 -519 939 -900 
Q 619 -1281 -91 -1281 
L -331 -1281 
L -331 -750 
L -134 -750 
Q 284 -750 456 -515 
Q 628 -281 628 325 
L 628 4666 
z
" transform="scale(0.015625)"/>
      </defs>
      <use xlink:href="#DejaVuSans-4a"/>
      <use xlink:href="#DejaVuSans-50" x="29.492188"/>
      <use xlink:href="#DejaVuSans-4d" x="89.794922"/>
     </g>
    </g>
    <g id="patch_18">
     <path d="M 397.8 119.178437 
L 417.8 119.178437 
L 417.8 112.178437 
L 397.8 112.178437 
z
" style="fill: #1f77b4; stroke: #1f77b4; stroke-linejoin: miter"/>
    </g>
    <g id="text_28">
     <!-- AAPL -->
     <g transform="translate(425.8 119.178437)scale(0.1 -0.1)">
      <defs>
       <path id="DejaVuSans-4c" d="M 628 4666 
L 1259 4666 
L 1259 531 
L 3531 531 
L 3531 0 
L 628 0 
L 628 4666 
z
" transform="scale(0.015625)"/>
      </defs>
      <use xlink:href="#DejaVuSans-41"/>
      <use xlink:href="#DejaVuSans-41" x="71.158203"/>
      <use xlink:href="#DejaVuSans-50" x="139.566406"/>
      <use xlink:href="#DejaVuSans-4c" x="199.869141"/>
     </g>
    </g>
    <g id="patch_19">
     <path d="M 397.8 133.856562 
L 417.8 133.856562 
L 417.8 126.856562 
L 397.8 126.856562 
z
" style="fill: #ff7f0e; stroke: #ff7f0e; stroke-linejoin: miter"/>
    </g>
    <g id="text_29">
     <!-- IBM -->
     <g transform="translate(425.8 133.856562)scale(0.1 -0.1)">
      <defs>
       <path id="DejaVuSans-42" d="M 1259 2228 
L 1259 519 
L 2272 519 
Q 2781 519 3026 730 
Q 3272 941 3272 1375 
Q 3272 1813 3026 2020 
Q 2781 2228 2272 2228 
L 1259 2228 
z
M 1259 4147 
L 1259 2741 
L 2194 2741 
Q 2656 2741 2882 2914 
Q 3109 3088 3109 3444 
Q 3109 3797 2882 3972 
Q 2656 4147 2194 4147 
L 1259 4147 
z
M 628 4666 
L 2241 4666 
Q 2963 4666 3353 4366 
Q 3744 4066 3744 3513 
Q 3744 3084 3544 2831 
Q 3344 2578 2956 2516 
Q 3422 2416 3680 2098 
Q 3938 1781 3938 1306 
Q 3938 681 3513 340 
Q 3088 0 2303 0 
L 628 0 
L 628 4666 
z
" transform="scale(0.015625)"/>
      </defs>
      <use xlink:href="#DejaVuSans-49"/>
      <use xlink:href="#DejaVuSans-42" x="29.492188"/>
      <use xlink:href="#DejaVuSans-4d" x="98.095703"/>
     </g>
    </g>
    <g id="patch_20">
     <path d="M 397.8 148.534687 
L 417.8 148.534687 
L 417.8 141.534687 
L 397.8 141.534687 
z
" style="fill: #2ca02c; stroke: #2ca02c; stroke-linejoin: miter"/>
    </g>
    <g id="text_30">
     <!-- PFE -->
     <g transform="translate(425.8 148.534687)scale(0.1 -0.1)">
      <use xlink:href="#DejaVuSans-50"/>
      <use xlink:href="#DejaVuSans-46" x="60.302734"/>
      <use xlink:href="#DejaVuSans-45" x="117.822266"/>
     </g>
    </g>
    <g id="patch_21">
     <path d="M 397.8 163.212812 
L 417.8 163.212812 
L 417.8 156.212812 
L 397.8 156.212812 
z
" style="fill: #d62728; stroke: #d62728; stroke-linejoin: miter"/>
    </g>
    <g id="text_31">
     <!-- JNJ -->
     <g transform="translate(425.8 163.212812)scale(0.1 -0.1)">
      <defs>
       <path id="DejaVuSans-4e" d="M 628 4666 
L 1478 4666 
L 3547 763 
L 3547 4666 
L 4159 4666 
L 4159 0 
L 3309 0 
L 1241 3903 
L 1241 0 
L 628 0 
L 628 4666 
z
" transform="scale(0.015625)"/>
      </defs>
      <use xlink:href="#DejaVuSans-4a"/>
      <use xlink:href="#DejaVuSans-4e" x="29.492188"/>
      <use xlink:href="#DejaVuSans-4a" x="104.296875"/>
     </g>
    </g>
    <g id="patch_22">
     <path d="M 397.8 177.890937 
L 417.8 177.890937 
L 417.8 170.890937 
L 397.8 170.890937 
z
" style="fill: #9467bd; stroke: #9467bd; stroke-linejoin: miter"/>
    </g>
    <g id="text_32">
     <!-- XOM -->
     <g transform="translate(425.8 177.890937)scale(0.1 -0.1)">
      <defs>
       <path id="DejaVuSans-58" d="M 403 4666 
L 1081 4666 
L 2241 2931 
L 3406 4666 
L 4084 4666 
L 2584 2425 
L 4184 0 
L 3506 0 
L 2194 1984 
L 872 0 
L 191 0 
L 1856 2491 
L 403 4666 
z
" transform="scale(0.015625)"/>
      </defs>
      <use xlink:href="#DejaVuSans-58"/>
      <use xlink:href="#DejaVuSans-4f" x="62.130859"/>
      <use xlink:href="#DejaVuSans-4d" x="140.841797"/>
     </g>
    </g>
    <g id="patch_23">
     <path d="M 397.8 192.569062 
L 417.8 192.569062 
L 417.8 185.569062 
L 397.8 185.569062 
z
" style="fill: #8c564b; stroke: #8c564b; stroke-linejoin: miter"/>
    </g>
    <g id="text_33">
     <!-- MRO -->
     <g transform="translate(425.8 192.569062)scale(0.1 -0.1)">
      <use xlink:href="#DejaVuSans-4d"/>
      <use xlink:href="#DejaVuSans-52" x="86.279297"/>
      <use xlink:href="#DejaVuSans-4f" x="155.761719"/>
     </g>
    </g>
    <g id="patch_24">
     <path d="M 397.8 207.247187 
L 417.8 207.247187 
L 417.8 200.247187 
L 397.8 200.247187 
z
" style="fill: #e377c2; stroke: #e377c2; stroke-linejoin: miter"/>
    </g>
    <g id="text_34">
     <!-- ED -->
     <g transform="translate(425.8 207.247187)scale(0.1 -0.1)">
      <use xlink:href="#DejaVuSans-45"/>
      <use xlink:href="#DejaVuSans-44" x="63.183594"/>
     </g>
    </g>
    <g id="patch_25">
     <path d="M 397.8 221.925312 
L 417.8 221.925312 
L 417.8 214.925312 
L 397.8 214.925312 
z
" style="fill: #7f7f7f; stroke: #7f7f7f; stroke-linejoin: miter"/>
    </g>
    <g id="text_35">
     <!-- T -->
     <g transform="translate(425.8 221.925312)scale(0.1 -0.1)">
      <use xlink:href="#DejaVuSans-54"/>
     </g>
    </g>
    <g id="patch_26">
     <path d="M 397.8 236.603437 
L 417.8 236.603437 
L 417.8 229.603437 
L 397.8 229.603437 
z
" style="fill: #bcbd22; stroke: #bcbd22; stroke-linejoin: miter"/>
    </g>
    <g id="text_36">
     <!-- VZ -->
     <g transform="translate(425.8 236.603437)scale(0.1 -0.1)">
      <defs>
       <path id="DejaVuSans-56" d="M 1831 0 
L 50 4666 
L 709 4666 
L 2188 738 
L 3669 4666 
L 4325 4666 
L 2547 0 
L 1831 0 
z
" transform="scale(0.015625)"/>
       <path id="DejaVuSans-5a" d="M 359 4666 
L 4025 4666 
L 4025 4184 
L 1075 531 
L 4097 531 
L 4097 0 
L 288 0 
L 288 481 
L 3238 4134 
L 359 4134 
L 359 4666 
z
" transform="scale(0.015625)"/>
      </defs>
      <use xlink:href="#DejaVuSans-56"/>
      <use xlink:href="#DejaVuSans-5a" x="68.408203"/>
     </g>
    </g>
    <g id="patch_27">
     <path d="M 397.8 251.281562 
L 417.8 251.281562 
L 417.8 244.281562 
L 397.8 244.281562 
z
" style="fill: #17becf; stroke: #17becf; stroke-linejoin: miter"/>
    </g>
    <g id="text_37">
     <!-- NEM -->
     <g transform="translate(425.8 251.281562)scale(0.1 -0.1)">
      <use xlink:href="#DejaVuSans-4e"/>
      <use xlink:href="#DejaVuSans-45" x="74.804688"/>
      <use xlink:href="#DejaVuSans-4d" x="137.988281"/>
     </g>
    </g>
   </g>
  </g>
 </g>
 <defs>
  <clipPath id="pa7ed800bc2">
   <rect x="54" y="25.92" width="334.8" height="166.32"/>
  </clipPath>
 </defs>
</svg>
