<?xml version="1.0" encoding="utf-8" standalone="no"?>
<!DOCTYPE svg PUBLIC "-//W3C//DTD SVG 1.1//EN"
  "http://www.w3.org/Graphics/SVG/1.1/DTD/svg11.dtd">
<svg height="216pt" version="1.1" viewBox="0 0 432 216" width="432pt" xmlns="http://www.w3.org/2000/svg" xmlns:xlink="http://www.w3.org/1999/xlink">
 <metadata>
  <rdf:RDF xmlns:cc="http://creativecommons.org/ns#" xmlns:dc="http://purl.org/dc/elements/1.1/" xmlns:rdf="http://www.w3.org/1999/02/22-rdf-syntax-ns#">
   <cc:Work>
    <dc:type rdf:resource="http://purl.org/dc/dcmitype/StillImage"/>
    <dc:date>2024-04-10T21:00:52.585285</dc:date>
    <dc:format>image/svg+xml</dc:format>
    <dc:creator>
     <cc:Agent>
      <dc:title>Matplotlib v3.4.3, https://matplotlib.org/</dc:title>
     </cc:Agent>
    </dc:creator>
   </cc:Work>
  </rdf:RDF>
 </metadata>
 <defs>
  <style type="text/css">*{stroke-linecap:butt;stroke-linejoin:round;}</style>
 </defs>
 <g id="figure_1">
  <g id="patch_1">
   <path d="M 0 216 
L 432 216 
L 432 0 
L 0 0 
z
" style="fill:none;"/>
  </g>
  <g id="axes_1">
   <g id="patch_2">
    <path d="M 54 189 
L 388.8 189 
L 388.8 25.92 
L 54 25.92 
z
" style="fill:#ffffff;"/>
   </g>
   <g id="PolyCollection_1">
    <defs>
     <path d="M 69.218182 -38.016447 
L 69.218182 -27 
L 85.237321 -27 
L 101.256459 -27 
L 117.275598 -27 
L 133.294737 -27 
L 149.313876 -27 
L 165.333014 -27 
L 181.352153 -27 
L 197.371292 -27 
L 213.390431 -27 
L 229.409569 -27 
L 245.428708 -27 
L 261.447847 -27 
L 277.466986 -27 
L 293.486124 -27 
L 309.505263 -27 
L 325.524402 -27 
L 341.543541 -27 
L 357.562679 -27 
L 373.581818 -27 
L 373.581818 -37.793225 
L 373.581818 -37.793225 
L 357.562679 -37.928811 
L 341.543541 -37.81579 
L 325.524402 -37.251371 
L 309.505263 -37.463838 
L 293.486124 -37.213505 
L 277.466986 -37.354286 
L 261.447847 -37.354286 
L 245.428708 -37.354286 
L 229.409569 -37.453105 
L 213.390431 -37.427056 
L 197.371292 -37.528712 
L 181.352153 -37.344238 
L 165.333014 -37.281554 
L 149.313876 -37.104846 
L 133.294737 -36.966683 
L 117.275598 -36.843083 
L 101.256459 -37.871566 
L 85.237321 -38.465715 
L 69.218182 -38.016447 
z
" id="m5f3484eb30" style="stroke:#1f77b4;"/>
    </defs>
    <g clip-path="url(#pfde6848a6d)">
     <use style="fill:#1f77b4;stroke:#1f77b4;" x="0" xlink:href="#m5f3484eb30" y="216"/>
    </g>
   </g>
   <g id="PolyCollection_2">
    <defs>
     <path d="M 69.218182 -49.597503 
L 69.218182 -38.016447 
L 85.237321 -38.465715 
L 101.256459 -37.871566 
L 117.275598 -36.843083 
L 133.294737 -36.966683 
L 149.313876 -37.104846 
L 165.333014 -37.281554 
L 181.352153 -37.344238 
L 197.371292 -37.528712 
L 213.390431 -37.427056 
L 229.409569 -37.453105 
L 245.428708 -37.354286 
L 261.447847 -37.354286 
L 277.466986 -37.354286 
L 293.486124 -37.213505 
L 309.505263 -37.463838 
L 325.524402 -37.251371 
L 341.543541 -37.81579 
L 357.562679 -37.928811 
L 373.581818 -37.793225 
L 373.581818 -48.235133 
L 373.581818 -48.235133 
L 357.562679 -48.470623 
L 341.543541 -48.460079 
L 325.524402 -47.317221 
L 309.505263 -47.626803 
L 293.486124 -47.247985 
L 277.466986 -47.708572 
L 261.447847 -47.708572 
L 245.428708 -47.708571 
L 229.409569 -47.821817 
L 213.390431 -47.99272 
L 197.371292 -48.692179 
L 181.352153 -48.228161 
L 165.333014 -48.593443 
L 149.313876 -48.887229 
L 133.294737 -48.411387 
L 117.275598 -48.9412 
L 101.256459 -50.078374 
L 85.237321 -50.630653 
L 69.218182 -49.597503 
z
" id="m8e054f4b19" style="stroke:#ff7f0e;"/>
    </defs>
    <g clip-path="url(#pfde6848a6d)">
     <use style="fill:#ff7f0e;stroke:#ff7f0e;" x="0" xlink:href="#m8e054f4b19" y="216"/>
    </g>
   </g>
   <g id="PolyCollection_3">
    <defs>
     <path d="M 69.218182 -59.725836 
L 69.218182 -49.597503 
L 85.237321 -50.630653 
L 101.256459 -50.078374 
L 117.275598 -48.9412 
L 133.294737 -48.411387 
L 149.313876 -48.887229 
L 165.333014 -48.593443 
L 181.352153 -48.228161 
L 197.371292 -48.692179 
L 213.390431 -47.99272 
L 229.409569 -47.821817 
L 245.428708 -47.708571 
L 261.447847 -47.708572 
L 277.466986 -47.708572 
L 293.486124 -47.247985 
L 309.505263 -47.626803 
L 325.524402 -47.317221 
L 341.543541 -48.460079 
L 357.562679 -48.470623 
L 373.581818 -48.235133 
L 373.581818 -58.947646 
L 373.581818 -58.947646 
L 357.562679 -59.359612 
L 341.543541 -58.992414 
L 325.524402 -57.620506 
L 309.505263 -57.755667 
L 293.486124 -57.569123 
L 277.466986 -58.062858 
L 261.447847 -58.062858 
L 245.428708 -58.062857 
L 229.409569 -58.200493 
L 213.390431 -58.438286 
L 197.371292 -59.140744 
L 181.352153 -58.706072 
L 165.333014 -58.785121 
L 149.313876 -59.001301 
L 133.294737 -58.321253 
L 117.275598 -58.575327 
L 101.256459 -59.730493 
L 85.237321 -60.307267 
L 69.218182 -59.725836 
z
" id="me416ff4d72" style="stroke:#2ca02c;"/>
    </defs>
    <g clip-path="url(#pfde6848a6d)">
     <use style="fill:#2ca02c;stroke:#2ca02c;" x="0" xlink:href="#me416ff4d72" y="216"/>
    </g>
   </g>
   <g id="PolyCollection_4">
    <defs>
     <path d="M 69.218182 -70.438262 
L 69.218182 -59.725836 
L 85.237321 -60.307267 
L 101.256459 -59.730493 
L 117.275598 -58.575327 
L 133.294737 -58.321253 
L 149.313876 -59.001301 
L 165.333014 -58.785121 
L 181.352153 -58.706072 
L 197.371292 -59.140744 
L 213.390431 -58.438286 
L 229.409569 -58.200493 
L 245.428708 -58.062857 
L 261.447847 -58.062858 
L 277.466986 -58.062858 
L 293.486124 -57.569123 
L 309.505263 -57.755667 
L 325.524402 -57.620506 
L 341.543541 -58.992414 
L 357.562679 -59.359612 
L 373.581818 -58.947646 
L 373.581818 -69.753586 
L 373.581818 -69.753586 
L 357.562679 -70.648633 
L 341.543541 -69.476454 
L 325.524402 -68.959967 
L 309.505263 -68.799105 
L 293.486124 -68.363012 
L 277.466986 -68.417144 
L 261.447847 -68.417143 
L 245.428708 -68.417143 
L 229.409569 -68.686748 
L 213.390431 -68.79236 
L 197.371292 -69.469816 
L 181.352153 -68.63267 
L 165.333014 -68.304616 
L 149.313876 -68.315631 
L 133.294737 -68.094231 
L 117.275598 -68.517611 
L 101.256459 -69.758824 
L 85.237321 -71.529066 
L 69.218182 -70.438262 
z
" id="m5eeae69b39" style="stroke:#d62728;"/>
    </defs>
    <g clip-path="url(#pfde6848a6d)">
     <use style="fill:#d62728;stroke:#d62728;" x="0" xlink:href="#m5eeae69b39" y="216"/>
    </g>
   </g>
   <g id="PolyCollection_5">
    <defs>
     <path d="M 69.218182 -79.862066 
L 69.218182 -70.438262 
L 85.237321 -71.529066 
L 101.256459 -69.758824 
L 117.275598 -68.517611 
L 133.294737 -68.094231 
L 149.313876 -68.315631 
L 165.333014 -68.304616 
L 181.352153 -68.63267 
L 197.371292 -69.469816 
L 213.390431 -68.79236 
L 229.409569 -68.686748 
L 245.428708 -68.417143 
L 261.447847 -68.417143 
L 277.466986 -68.417144 
L 293.486124 -68.363012 
L 309.505263 -68.799105 
L 325.524402 -68.959967 
L 341.543541 -69.476454 
L 357.562679 -70.648633 
L 373.581818 -69.753586 
L 373.581818 -80.253263 
L 373.581818 -80.253263 
L 357.562679 -80.376986 
L 341.543541 -79.409225 
L 325.524402 -79.835362 
L 309.505263 -79.356943 
L 293.486124 -79.033142 
L 277.466986 -78.77143 
L 261.447847 -78.771429 
L 245.428708 -78.771429 
L 229.409569 -78.996988 
L 213.390431 -78.863045 
L 197.371292 -78.975145 
L 181.352153 -78.11488 
L 165.333014 -77.447956 
L 149.313876 -77.213507 
L 133.294737 -77.274468 
L 117.275598 -78.567538 
L 101.256459 -78.999655 
L 85.237321 -80.437152 
L 69.218182 -79.862066 
z
" id="md1d0779c8e" style="stroke:#9467bd;"/>
    </defs>
    <g clip-path="url(#pfde6848a6d)">
     <use style="fill:#9467bd;stroke:#9467bd;" x="0" xlink:href="#md1d0779c8e" y="216"/>
    </g>
   </g>
   <g id="PolyCollection_6">
    <defs>
     <path d="M 69.218182 -90.745637 
L 69.218182 -79.862066 
L 85.237321 -80.437152 
L 101.256459 -78.999655 
L 117.275598 -78.567538 
L 133.294737 -77.274468 
L 149.313876 -77.213507 
L 165.333014 -77.447956 
L 181.352153 -78.11488 
L 197.371292 -78.975145 
L 213.390431 -78.863045 
L 229.409569 -78.996988 
L 245.428708 -78.771429 
L 261.447847 -78.771429 
L 277.466986 -78.77143 
L 293.486124 -79.033142 
L 309.505263 -79.356943 
L 325.524402 -79.835362 
L 341.543541 -79.409225 
L 357.562679 -80.376986 
L 373.581818 -80.253263 
L 373.581818 -90.789427 
L 373.581818 -90.789427 
L 357.562679 -90.676607 
L 341.543541 -89.855124 
L 325.524402 -90.598233 
L 309.505263 -89.789951 
L 293.486124 -89.383 
L 277.466986 -89.125715 
L 261.447847 -89.125715 
L 245.428708 -89.125714 
L 229.409569 -89.310188 
L 213.390431 -89.122199 
L 197.371292 -89.051306 
L 181.352153 -88.196123 
L 165.333014 -87.113772 
L 149.313876 -86.719356 
L 133.294737 -86.50465 
L 117.275598 -88.129902 
L 101.256459 -89.318674 
L 85.237321 -91.473498 
L 69.218182 -90.745637 
z
" id="m2d4adb2b33" style="stroke:#8c564b;"/>
    </defs>
    <g clip-path="url(#pfde6848a6d)">
     <use style="fill:#8c564b;stroke:#8c564b;" x="0" xlink:href="#m2d4adb2b33" y="216"/>
    </g>
   </g>
   <g id="PolyCollection_7">
    <defs>
     <path d="M 69.218182 -100.498111 
L 69.218182 -90.745637 
L 85.237321 -91.473498 
L 101.256459 -89.318674 
L 117.275598 -88.129902 
L 133.294737 -86.50465 
L 149.313876 -86.719356 
L 165.333014 -87.113772 
L 181.352153 -88.196123 
L 197.371292 -89.051306 
L 213.390431 -89.122199 
L 229.409569 -89.310188 
L 245.428708 -89.125714 
L 261.447847 -89.125715 
L 277.466986 -89.125715 
L 293.486124 -89.383 
L 309.505263 -89.789951 
L 325.524402 -90.598233 
L 341.543541 -89.855124 
L 357.562679 -90.676607 
L 373.581818 -90.789427 
L 373.581818 -100.447988 
L 373.581818 -100.447988 
L 357.562679 -100.490035 
L 341.543541 -99.830152 
L 325.524402 -100.566316 
L 309.505263 -100.011808 
L 293.486124 -99.768918 
L 277.466986 -99.480001 
L 261.447847 -99.48 
L 245.428708 -99.48 
L 229.409569 -99.646124 
L 213.390431 -99.376866 
L 197.371292 -98.995504 
L 181.352153 -98.095686 
L 165.333014 -96.628531 
L 149.313876 -96.035182 
L 133.294737 -95.648418 
L 117.275598 -96.442753 
L 101.256459 -97.648523 
L 85.237321 -100.310732 
L 69.218182 -100.498111 
z
" id="m5b7464fd56" style="stroke:#e377c2;"/>
    </defs>
    <g clip-path="url(#pfde6848a6d)">
     <use style="fill:#e377c2;stroke:#e377c2;" x="0" xlink:href="#m5b7464fd56" y="216"/>
    </g>
   </g>
   <g id="PolyCollection_8">
    <defs>
     <path d="M 69.218182 -110.976008 
L 69.218182 -100.498111 
L 85.237321 -100.310732 
L 101.256459 -97.648523 
L 117.275598 -96.442753 
L 133.294737 -95.648418 
L 149.313876 -96.035182 
L 165.333014 -96.628531 
L 181.352153 -98.095686 
L 197.371292 -98.995504 
L 213.390431 -99.376866 
L 229.409569 -99.646124 
L 245.428708 -99.48 
L 261.447847 -99.48 
L 277.466986 -99.480001 
L 293.486124 -99.768918 
L 309.505263 -100.011808 
L 325.524402 -100.566316 
L 341.543541 -99.830152 
L 357.562679 -100.490035 
L 373.581818 -100.447988 
L 373.581818 -111.00737 
L 373.581818 -111.00737 
L 357.562679 -110.802689 
L 341.543541 -110.167938 
L 325.524402 -111.540796 
L 309.505263 -110.91129 
L 293.486124 -110.498662 
L 277.466986 -109.834287 
L 261.447847 -109.834286 
L 245.428708 -109.834286 
L 229.409569 -110.119831 
L 213.390431 -109.902705 
L 197.371292 -109.772162 
L 181.352153 -108.647139 
L 165.333014 -107.640605 
L 149.313876 -106.742016 
L 133.294737 -106.340503 
L 117.275598 -107.12968 
L 101.256459 -108.256788 
L 85.237321 -111.063284 
L 69.218182 -110.976008 
z
" id="m06d1121fdd" style="stroke:#7f7f7f;"/>
    </defs>
    <g clip-path="url(#pfde6848a6d)">
     <use style="fill:#7f7f7f;stroke:#7f7f7f;" x="0" xlink:href="#m06d1121fdd" y="216"/>
    </g>
   </g>
   <g id="PolyCollection_9">
    <defs>
     <path d="M 69.218182 -121.771307 
L 69.218182 -110.976008 
L 85.237321 -111.063284 
L 101.256459 -108.256788 
L 117.275598 -107.12968 
L 133.294737 -106.340503 
L 149.313876 -106.742016 
L 165.333014 -107.640605 
L 181.352153 -108.647139 
L 197.371292 -109.772162 
L 213.390431 -109.902705 
L 229.409569 -110.119831 
L 245.428708 -109.834286 
L 261.447847 -109.834286 
L 277.466986 -109.834287 
L 293.486124 -110.498662 
L 309.505263 -110.91129 
L 325.524402 -111.540796 
L 341.543541 -110.167938 
L 357.562679 -110.802689 
L 373.581818 -111.00737 
L 373.581818 -122.437444 
L 373.581818 -122.437444 
L 357.562679 -122.340779 
L 341.543541 -120.924182 
L 325.524402 -121.998769 
L 309.505263 -121.254074 
L 293.486124 -120.76091 
L 277.466986 -120.188572 
L 261.447847 -120.188572 
L 245.428708 -120.188571 
L 229.409569 -120.405536 
L 213.390431 -120.10022 
L 197.371292 -119.874111 
L 181.352153 -118.77282 
L 165.333014 -117.617065 
L 149.313876 -116.642126 
L 133.294737 -116.290273 
L 117.275598 -117.091382 
L 101.256459 -118.416288 
L 85.237321 -121.835969 
L 69.218182 -121.771307 
z
" id="m63cacb2f8e" style="stroke:#bcbd22;"/>
    </defs>
    <g clip-path="url(#pfde6848a6d)">
     <use style="fill:#bcbd22;stroke:#bcbd22;" x="0" xlink:href="#m63cacb2f8e" y="216"/>
    </g>
   </g>
   <g id="PolyCollection_10">
    <defs>
     <path d="M 69.218182 -131.953166 
L 69.218182 -121.771307 
L 85.237321 -121.835969 
L 101.256459 -118.416288 
L 117.275598 -117.091382 
L 133.294737 -116.290273 
L 149.313876 -116.642126 
L 165.333014 -117.617065 
L 181.352153 -118.77282 
L 197.371292 -119.874111 
L 213.390431 -120.10022 
L 229.409569 -120.405536 
L 245.428708 -120.188571 
L 261.447847 -120.188572 
L 277.466986 -120.188572 
L 293.486124 -120.76091 
L 309.505263 -121.254074 
L 325.524402 -121.998769 
L 341.543541 -120.924182 
L 357.562679 -122.340779 
L 373.581818 -122.437444 
L 373.581818 -132.897043 
L 373.581818 -132.897043 
L 357.562679 -132.906846 
L 341.543541 -131.618413 
L 325.524402 -132.278337 
L 309.505263 -131.378407 
L 293.486124 -131.021527 
L 277.466986 -130.542858 
L 261.447847 -130.542857 
L 245.428708 -130.542857 
L 229.409569 -130.681614 
L 213.390431 -130.410293 
L 197.371292 -130.27207 
L 181.352153 -129.374275 
L 165.333014 -128.257991 
L 149.313876 -127.384371 
L 133.294737 -127.361838 
L 117.275598 -128.607799 
L 101.256459 -129.301308 
L 85.237321 -132.070491 
L 69.218182 -131.953166 
z
" id="mf881c97574" style="stroke:#17becf;"/>
    </defs>
    <g clip-path="url(#pfde6848a6d)">
     <use style="fill:#17becf;stroke:#17becf;" x="0" xlink:href="#mf881c97574" y="216"/>
    </g>
   </g>
   <g id="PolyCollection_11">
    <defs>
     <path d="M 69.218182 -141.349972 
L 69.218182 -131.953166 
L 85.237321 -132.070491 
L 101.256459 -129.301308 
L 117.275598 -128.607799 
L 133.294737 -127.361838 
L 149.313876 -127.384371 
L 165.333014 -128.257991 
L 181.352153 -129.374275 
L 197.371292 -130.27207 
L 213.390431 -130.410293 
L 229.409569 -130.681614 
L 245.428708 -130.542857 
L 261.447847 -130.542857 
L 277.466986 -130.542858 
L 293.486124 -131.021527 
L 309.505263 -131.378407 
L 325.524402 -132.278337 
L 341.543541 -131.618413 
L 357.562679 -132.906846 
L 373.581818 -132.897043 
L 373.581818 -142.251553 
L 373.581818 -142.251553 
L 357.562679 -142.317708 
L 341.543541 -141.650242 
L 325.524402 -142.330484 
L 309.505263 -141.680798 
L 293.486124 -141.474307 
L 277.466986 -140.897143 
L 261.447847 -140.897143 
L 245.428708 -140.897143 
L 229.409569 -140.964547 
L 213.390431 -140.625259 
L 197.371292 -140.331403 
L 181.352153 -139.868449 
L 165.333014 -138.862371 
L 149.313876 -137.617145 
L 133.294737 -138.012961 
L 117.275598 -138.793654 
L 101.256459 -138.491208 
L 85.237321 -141.210877 
L 69.218182 -141.349972 
z
" id="m3de2dc0ef4" style="stroke:#1f77b4;"/>
    </defs>
    <g clip-path="url(#pfde6848a6d)">
     <use style="fill:#1f77b4;stroke:#1f77b4;" x="0" xlink:href="#m3de2dc0ef4" y="216"/>
    </g>
   </g>
   <g id="PolyCollection_12">
    <defs>
     <path d="M 69.218182 -151.391912 
L 69.218182 -141.349972 
L 85.237321 -141.210877 
L 101.256459 -138.491208 
L 117.275598 -138.793654 
L 133.294737 -138.012961 
L 149.313876 -137.617145 
L 165.333014 -138.862371 
L 181.352153 -139.868449 
L 197.371292 -140.331403 
L 213.390431 -140.625259 
L 229.409569 -140.964547 
L 245.428708 -140.897143 
L 261.447847 -140.897143 
L 277.466986 -140.897143 
L 293.486124 -141.474307 
L 309.505263 -141.680798 
L 325.524402 -142.330484 
L 341.543541 -141.650242 
L 357.562679 -142.317708 
L 373.581818 -142.251553 
L 373.581818 -152.366744 
L 373.581818 -152.366744 
L 357.562679 -152.576059 
L 341.543541 -151.795948 
L 325.524402 -152.389483 
L 309.505263 -152.00282 
L 293.486124 -151.836759 
L 277.466986 -151.251429 
L 261.447847 -151.251429 
L 245.428708 -151.251429 
L 229.409569 -151.305878 
L 213.390431 -151.098746 
L 197.371292 -150.935782 
L 181.352153 -150.474826 
L 165.333014 -149.573412 
L 149.313876 -148.431459 
L 133.294737 -149.076863 
L 117.275598 -149.456097 
L 101.256459 -148.936592 
L 85.237321 -151.487214 
L 69.218182 -151.391912 
z
" id="m157aad9aa2" style="stroke:#ff7f0e;"/>
    </defs>
    <g clip-path="url(#pfde6848a6d)">
     <use style="fill:#ff7f0e;stroke:#ff7f0e;" x="0" xlink:href="#m157aad9aa2" y="216"/>
    </g>
   </g>
   <g id="PolyCollection_13">
    <defs>
     <path d="M 69.218182 -161.044376 
L 69.218182 -151.391912 
L 85.237321 -151.487214 
L 101.256459 -148.936592 
L 117.275598 -149.456097 
L 133.294737 -149.076863 
L 149.313876 -148.431459 
L 165.333014 -149.573412 
L 181.352153 -150.474826 
L 197.371292 -150.935782 
L 213.390431 -151.098746 
L 229.409569 -151.305878 
L 245.428708 -151.251429 
L 261.447847 -151.251429 
L 277.466986 -151.251429 
L 293.486124 -151.836759 
L 309.505263 -152.00282 
L 325.524402 -152.389483 
L 341.543541 -151.795948 
L 357.562679 -152.576059 
L 373.581818 -152.366744 
L 373.581818 -163.538098 
L 373.581818 -163.538098 
L 357.562679 -164.105823 
L 341.543541 -163.152579 
L 325.524402 -163.377666 
L 309.505263 -162.334279 
L 293.486124 -162.357761 
L 277.466986 -161.605715 
L 261.447847 -161.605714 
L 245.428708 -161.605714 
L 229.409569 -161.694967 
L 213.390431 -161.630943 
L 197.371292 -161.299963 
L 181.352153 -160.92128 
L 165.333014 -160.16791 
L 149.313876 -159.305124 
L 133.294737 -159.19074 
L 117.275598 -158.624189 
L 101.256459 -157.904032 
L 85.237321 -160.055754 
L 69.218182 -161.044376 
z
" id="m45d522c4fb" style="stroke:#2ca02c;"/>
    </defs>
    <g clip-path="url(#pfde6848a6d)">
     <use style="fill:#2ca02c;stroke:#2ca02c;" x="0" xlink:href="#m45d522c4fb" y="216"/>
    </g>
   </g>
   <g id="PolyCollection_14">
    <defs>
     <path d="M 69.218182 -172.258026 
L 69.218182 -161.044376 
L 85.237321 -160.055754 
L 101.256459 -157.904032 
L 117.275598 -158.624189 
L 133.294737 -159.19074 
L 149.313876 -159.305124 
L 165.333014 -160.16791 
L 181.352153 -160.92128 
L 197.371292 -161.299963 
L 213.390431 -161.630943 
L 229.409569 -161.694967 
L 245.428708 -161.605714 
L 261.447847 -161.605714 
L 277.466986 -161.605715 
L 293.486124 -162.357761 
L 309.505263 -162.334279 
L 325.524402 -163.377666 
L 341.543541 -163.152579 
L 357.562679 -164.105823 
L 373.581818 -163.538098 
L 373.581818 -172.308277 
L 373.581818 -172.308277 
L 357.562679 -172.663404 
L 341.543541 -172.64439 
L 325.524402 -172.616315 
L 309.505263 -172.271368 
L 293.486124 -172.121165 
L 277.466986 -171.96 
L 261.447847 -171.96 
L 245.428708 -171.96 
L 229.409569 -172.026483 
L 213.390431 -171.914902 
L 197.371292 -171.931097 
L 181.352153 -171.599986 
L 165.333014 -171.176195 
L 149.313876 -171.181521 
L 133.294737 -171.288174 
L 117.275598 -171.951557 
L 101.256459 -171.155876 
L 85.237321 -172.059631 
L 69.218182 -172.258026 
z
" id="m17cc1e9ab1" style="stroke:#d62728;"/>
    </defs>
    <g clip-path="url(#pfde6848a6d)">
     <use style="fill:#d62728;stroke:#d62728;" x="0" xlink:href="#m17cc1e9ab1" y="216"/>
    </g>
   </g>
   <g id="PolyCollection_15">
    <defs>
     <path d="M 69.218182 -182.314286 
L 69.218182 -172.258026 
L 85.237321 -172.059631 
L 101.256459 -171.155876 
L 117.275598 -171.951557 
L 133.294737 -171.288174 
L 149.313876 -171.181521 
L 165.333014 -171.176195 
L 181.352153 -171.599986 
L 197.371292 -171.931097 
L 213.390431 -171.914902 
L 229.409569 -172.026483 
L 245.428708 -171.96 
L 261.447847 -171.96 
L 277.466986 -171.96 
L 293.486124 -172.121165 
L 309.505263 -172.271368 
L 325.524402 -172.616315 
L 341.543541 -172.64439 
L 357.562679 -172.663404 
L 373.581818 -172.308277 
L 373.581818 -182.314286 
L 373.581818 -182.314286 
L 357.562679 -182.314286 
L 341.543541 -182.314286 
L 325.524402 -182.314286 
L 309.505263 -182.314286 
L 293.486124 -182.314286 
L 277.466986 -182.314286 
L 261.447847 -182.314286 
L 245.428708 -182.314286 
L 229.409569 -182.314286 
L 213.390431 -182.314286 
L 197.371292 -182.314286 
L 181.352153 -182.314286 
L 165.333014 -182.314286 
L 149.313876 -182.314286 
L 133.294737 -182.314286 
L 117.275598 -182.314286 
L 101.256459 -182.314286 
L 85.237321 -182.314286 
L 69.218182 -182.314286 
z
" id="m3533770534" style="stroke:#9467bd;"/>
    </defs>
    <g clip-path="url(#pfde6848a6d)">
     <use style="fill:#9467bd;stroke:#9467bd;" x="0" xlink:href="#m3533770534" y="216"/>
    </g>
   </g>
   <g id="matplotlib.axis_1">
    <g id="xtick_1">
     <g id="line2d_1">
      <defs>
       <path d="M 0 0 
L 0 3.5 
" id="m4ac2ed240e" style="stroke:#000000;stroke-width:0.8;"/>
      </defs>
      <g>
       <use style="stroke:#000000;stroke-width:0.8;" x="93.24689" xlink:href="#m4ac2ed240e" y="189"/>
      </g>
     </g>
     <g id="text_1">
      <!-- 2.5 -->
      <g transform="translate(85.295327 203.598437)scale(0.1 -0.1)">
       <defs>
        <path d="M 1228 531 
L 3431 531 
L 3431 0 
L 469 0 
L 469 531 
Q 828 903 1448 1529 
Q 2069 2156 2228 2338 
Q 2531 2678 2651 2914 
Q 2772 3150 2772 3378 
Q 2772 3750 2511 3984 
Q 2250 4219 1831 4219 
Q 1534 4219 1204 4116 
Q 875 4013 500 3803 
L 500 4441 
Q 881 4594 1212 4672 
Q 1544 4750 1819 4750 
Q 2544 4750 2975 4387 
Q 3406 4025 3406 3419 
Q 3406 3131 3298 2873 
Q 3191 2616 2906 2266 
Q 2828 2175 2409 1742 
Q 1991 1309 1228 531 
z
" id="DejaVuSans-32" transform="scale(0.015625)"/>
        <path d="M 684 794 
L 1344 794 
L 1344 0 
L 684 0 
L 684 794 
z
" id="DejaVuSans-2e" transform="scale(0.015625)"/>
        <path d="M 691 4666 
L 3169 4666 
L 3169 4134 
L 1269 4134 
L 1269 2991 
Q 1406 3038 1543 3061 
Q 1681 3084 1819 3084 
Q 2600 3084 3056 2656 
Q 3513 2228 3513 1497 
Q 3513 744 3044 326 
Q 2575 -91 1722 -91 
Q 1428 -91 1123 -41 
Q 819 9 494 109 
L 494 744 
Q 775 591 1075 516 
Q 1375 441 1709 441 
Q 2250 441 2565 725 
Q 2881 1009 2881 1497 
Q 2881 1984 2565 2268 
Q 2250 2553 1709 2553 
Q 1456 2553 1204 2497 
Q 953 2441 691 2322 
L 691 4666 
z
" id="DejaVuSans-35" transform="scale(0.015625)"/>
       </defs>
       <use xlink:href="#DejaVuSans-32"/>
       <use x="63.623047" xlink:href="#DejaVuSans-2e"/>
       <use x="95.410156" xlink:href="#DejaVuSans-35"/>
      </g>
     </g>
    </g>
    <g id="xtick_2">
     <g id="line2d_2">
      <g>
       <use style="stroke:#000000;stroke-width:0.8;" x="133.294737" xlink:href="#m4ac2ed240e" y="189"/>
      </g>
     </g>
     <g id="text_2">
      <!-- 5.0 -->
      <g transform="translate(125.343174 203.598437)scale(0.1 -0.1)">
       <defs>
        <path d="M 2034 4250 
Q 1547 4250 1301 3770 
Q 1056 3291 1056 2328 
Q 1056 1369 1301 889 
Q 1547 409 2034 409 
Q 2525 409 2770 889 
Q 3016 1369 3016 2328 
Q 3016 3291 2770 3770 
Q 2525 4250 2034 4250 
z
M 2034 4750 
Q 2819 4750 3233 4129 
Q 3647 3509 3647 2328 
Q 3647 1150 3233 529 
Q 2819 -91 2034 -91 
Q 1250 -91 836 529 
Q 422 1150 422 2328 
Q 422 3509 836 4129 
Q 1250 4750 2034 4750 
z
" id="DejaVuSans-30" transform="scale(0.015625)"/>
       </defs>
       <use xlink:href="#DejaVuSans-35"/>
       <use x="63.623047" xlink:href="#DejaVuSans-2e"/>
       <use x="95.410156" xlink:href="#DejaVuSans-30"/>
      </g>
     </g>
    </g>
    <g id="xtick_3">
     <g id="line2d_3">
      <g>
       <use style="stroke:#000000;stroke-width:0.8;" x="173.342584" xlink:href="#m4ac2ed240e" y="189"/>
      </g>
     </g>
     <g id="text_3">
      <!-- 7.5 -->
      <g transform="translate(165.391021 203.598437)scale(0.1 -0.1)">
       <defs>
        <path d="M 525 4666 
L 3525 4666 
L 3525 4397 
L 1831 0 
L 1172 0 
L 2766 4134 
L 525 4134 
L 525 4666 
z
" id="DejaVuSans-37" transform="scale(0.015625)"/>
       </defs>
       <use xlink:href="#DejaVuSans-37"/>
       <use x="63.623047" xlink:href="#DejaVuSans-2e"/>
       <use x="95.410156" xlink:href="#DejaVuSans-35"/>
      </g>
     </g>
    </g>
    <g id="xtick_4">
     <g id="line2d_4">
      <g>
       <use style="stroke:#000000;stroke-width:0.8;" x="213.390431" xlink:href="#m4ac2ed240e" y="189"/>
      </g>
     </g>
     <g id="text_4">
      <!-- 10.0 -->
      <g transform="translate(202.257618 203.598437)scale(0.1 -0.1)">
       <defs>
        <path d="M 794 531 
L 1825 531 
L 1825 4091 
L 703 3866 
L 703 4441 
L 1819 4666 
L 2450 4666 
L 2450 531 
L 3481 531 
L 3481 0 
L 794 0 
L 794 531 
z
" id="DejaVuSans-31" transform="scale(0.015625)"/>
       </defs>
       <use xlink:href="#DejaVuSans-31"/>
       <use x="63.623047" xlink:href="#DejaVuSans-30"/>
       <use x="127.246094" xlink:href="#DejaVuSans-2e"/>
       <use x="159.033203" xlink:href="#DejaVuSans-30"/>
      </g>
     </g>
    </g>
    <g id="xtick_5">
     <g id="line2d_5">
      <g>
       <use style="stroke:#000000;stroke-width:0.8;" x="253.438278" xlink:href="#m4ac2ed240e" y="189"/>
      </g>
     </g>
     <g id="text_5">
      <!-- 12.5 -->
      <g transform="translate(242.305465 203.598437)scale(0.1 -0.1)">
       <use xlink:href="#DejaVuSans-31"/>
       <use x="63.623047" xlink:href="#DejaVuSans-32"/>
       <use x="127.246094" xlink:href="#DejaVuSans-2e"/>
       <use x="159.033203" xlink:href="#DejaVuSans-35"/>
      </g>
     </g>
    </g>
    <g id="xtick_6">
     <g id="line2d_6">
      <g>
       <use style="stroke:#000000;stroke-width:0.8;" x="293.486124" xlink:href="#m4ac2ed240e" y="189"/>
      </g>
     </g>
     <g id="text_6">
      <!-- 15.0 -->
      <g transform="translate(282.353312 203.598437)scale(0.1 -0.1)">
       <use xlink:href="#DejaVuSans-31"/>
       <use x="63.623047" xlink:href="#DejaVuSans-35"/>
       <use x="127.246094" xlink:href="#DejaVuSans-2e"/>
       <use x="159.033203" xlink:href="#DejaVuSans-30"/>
      </g>
     </g>
    </g>
    <g id="xtick_7">
     <g id="line2d_7">
      <g>
       <use style="stroke:#000000;stroke-width:0.8;" x="333.533971" xlink:href="#m4ac2ed240e" y="189"/>
      </g>
     </g>
     <g id="text_7">
      <!-- 17.5 -->
      <g transform="translate(322.401159 203.598437)scale(0.1 -0.1)">
       <use xlink:href="#DejaVuSans-31"/>
       <use x="63.623047" xlink:href="#DejaVuSans-37"/>
       <use x="127.246094" xlink:href="#DejaVuSans-2e"/>
       <use x="159.033203" xlink:href="#DejaVuSans-35"/>
      </g>
     </g>
    </g>
    <g id="xtick_8">
     <g id="line2d_8">
      <g>
       <use style="stroke:#000000;stroke-width:0.8;" x="373.581818" xlink:href="#m4ac2ed240e" y="189"/>
      </g>
     </g>
     <g id="text_8">
      <!-- 20.0 -->
      <g transform="translate(362.449006 203.598437)scale(0.1 -0.1)">
       <use xlink:href="#DejaVuSans-32"/>
       <use x="63.623047" xlink:href="#DejaVuSans-30"/>
       <use x="127.246094" xlink:href="#DejaVuSans-2e"/>
       <use x="159.033203" xlink:href="#DejaVuSans-30"/>
      </g>
     </g>
    </g>
    <g id="text_9">
     <!-- Rebalance Period -->
     <g transform="translate(178.210938 217.276563)scale(0.1 -0.1)">
      <defs>
       <path d="M 2841 2188 
Q 3044 2119 3236 1894 
Q 3428 1669 3622 1275 
L 4263 0 
L 3584 0 
L 2988 1197 
Q 2756 1666 2539 1819 
Q 2322 1972 1947 1972 
L 1259 1972 
L 1259 0 
L 628 0 
L 628 4666 
L 2053 4666 
Q 2853 4666 3247 4331 
Q 3641 3997 3641 3322 
Q 3641 2881 3436 2590 
Q 3231 2300 2841 2188 
z
M 1259 4147 
L 1259 2491 
L 2053 2491 
Q 2509 2491 2742 2702 
Q 2975 2913 2975 3322 
Q 2975 3731 2742 3939 
Q 2509 4147 2053 4147 
L 1259 4147 
z
" id="DejaVuSans-52" transform="scale(0.015625)"/>
       <path d="M 3597 1894 
L 3597 1613 
L 953 1613 
Q 991 1019 1311 708 
Q 1631 397 2203 397 
Q 2534 397 2845 478 
Q 3156 559 3463 722 
L 3463 178 
Q 3153 47 2828 -22 
Q 2503 -91 2169 -91 
Q 1331 -91 842 396 
Q 353 884 353 1716 
Q 353 2575 817 3079 
Q 1281 3584 2069 3584 
Q 2775 3584 3186 3129 
Q 3597 2675 3597 1894 
z
M 3022 2063 
Q 3016 2534 2758 2815 
Q 2500 3097 2075 3097 
Q 1594 3097 1305 2825 
Q 1016 2553 972 2059 
L 3022 2063 
z
" id="DejaVuSans-65" transform="scale(0.015625)"/>
       <path d="M 3116 1747 
Q 3116 2381 2855 2742 
Q 2594 3103 2138 3103 
Q 1681 3103 1420 2742 
Q 1159 2381 1159 1747 
Q 1159 1113 1420 752 
Q 1681 391 2138 391 
Q 2594 391 2855 752 
Q 3116 1113 3116 1747 
z
M 1159 2969 
Q 1341 3281 1617 3432 
Q 1894 3584 2278 3584 
Q 2916 3584 3314 3078 
Q 3713 2572 3713 1747 
Q 3713 922 3314 415 
Q 2916 -91 2278 -91 
Q 1894 -91 1617 61 
Q 1341 213 1159 525 
L 1159 0 
L 581 0 
L 581 4863 
L 1159 4863 
L 1159 2969 
z
" id="DejaVuSans-62" transform="scale(0.015625)"/>
       <path d="M 2194 1759 
Q 1497 1759 1228 1600 
Q 959 1441 959 1056 
Q 959 750 1161 570 
Q 1363 391 1709 391 
Q 2188 391 2477 730 
Q 2766 1069 2766 1631 
L 2766 1759 
L 2194 1759 
z
M 3341 1997 
L 3341 0 
L 2766 0 
L 2766 531 
Q 2569 213 2275 61 
Q 1981 -91 1556 -91 
Q 1019 -91 701 211 
Q 384 513 384 1019 
Q 384 1609 779 1909 
Q 1175 2209 1959 2209 
L 2766 2209 
L 2766 2266 
Q 2766 2663 2505 2880 
Q 2244 3097 1772 3097 
Q 1472 3097 1187 3025 
Q 903 2953 641 2809 
L 641 3341 
Q 956 3463 1253 3523 
Q 1550 3584 1831 3584 
Q 2591 3584 2966 3190 
Q 3341 2797 3341 1997 
z
" id="DejaVuSans-61" transform="scale(0.015625)"/>
       <path d="M 603 4863 
L 1178 4863 
L 1178 0 
L 603 0 
L 603 4863 
z
" id="DejaVuSans-6c" transform="scale(0.015625)"/>
       <path d="M 3513 2113 
L 3513 0 
L 2938 0 
L 2938 2094 
Q 2938 2591 2744 2837 
Q 2550 3084 2163 3084 
Q 1697 3084 1428 2787 
Q 1159 2491 1159 1978 
L 1159 0 
L 581 0 
L 581 3500 
L 1159 3500 
L 1159 2956 
Q 1366 3272 1645 3428 
Q 1925 3584 2291 3584 
Q 2894 3584 3203 3211 
Q 3513 2838 3513 2113 
z
" id="DejaVuSans-6e" transform="scale(0.015625)"/>
       <path d="M 3122 3366 
L 3122 2828 
Q 2878 2963 2633 3030 
Q 2388 3097 2138 3097 
Q 1578 3097 1268 2742 
Q 959 2388 959 1747 
Q 959 1106 1268 751 
Q 1578 397 2138 397 
Q 2388 397 2633 464 
Q 2878 531 3122 666 
L 3122 134 
Q 2881 22 2623 -34 
Q 2366 -91 2075 -91 
Q 1284 -91 818 406 
Q 353 903 353 1747 
Q 353 2603 823 3093 
Q 1294 3584 2113 3584 
Q 2378 3584 2631 3529 
Q 2884 3475 3122 3366 
z
" id="DejaVuSans-63" transform="scale(0.015625)"/>
       <path id="DejaVuSans-20" transform="scale(0.015625)"/>
       <path d="M 1259 4147 
L 1259 2394 
L 2053 2394 
Q 2494 2394 2734 2622 
Q 2975 2850 2975 3272 
Q 2975 3691 2734 3919 
Q 2494 4147 2053 4147 
L 1259 4147 
z
M 628 4666 
L 2053 4666 
Q 2838 4666 3239 4311 
Q 3641 3956 3641 3272 
Q 3641 2581 3239 2228 
Q 2838 1875 2053 1875 
L 1259 1875 
L 1259 0 
L 628 0 
L 628 4666 
z
" id="DejaVuSans-50" transform="scale(0.015625)"/>
       <path d="M 2631 2963 
Q 2534 3019 2420 3045 
Q 2306 3072 2169 3072 
Q 1681 3072 1420 2755 
Q 1159 2438 1159 1844 
L 1159 0 
L 581 0 
L 581 3500 
L 1159 3500 
L 1159 2956 
Q 1341 3275 1631 3429 
Q 1922 3584 2338 3584 
Q 2397 3584 2469 3576 
Q 2541 3569 2628 3553 
L 2631 2963 
z
" id="DejaVuSans-72" transform="scale(0.015625)"/>
       <path d="M 603 3500 
L 1178 3500 
L 1178 0 
L 603 0 
L 603 3500 
z
M 603 4863 
L 1178 4863 
L 1178 4134 
L 603 4134 
L 603 4863 
z
" id="DejaVuSans-69" transform="scale(0.015625)"/>
       <path d="M 1959 3097 
Q 1497 3097 1228 2736 
Q 959 2375 959 1747 
Q 959 1119 1226 758 
Q 1494 397 1959 397 
Q 2419 397 2687 759 
Q 2956 1122 2956 1747 
Q 2956 2369 2687 2733 
Q 2419 3097 1959 3097 
z
M 1959 3584 
Q 2709 3584 3137 3096 
Q 3566 2609 3566 1747 
Q 3566 888 3137 398 
Q 2709 -91 1959 -91 
Q 1206 -91 779 398 
Q 353 888 353 1747 
Q 353 2609 779 3096 
Q 1206 3584 1959 3584 
z
" id="DejaVuSans-6f" transform="scale(0.015625)"/>
       <path d="M 2906 2969 
L 2906 4863 
L 3481 4863 
L 3481 0 
L 2906 0 
L 2906 525 
Q 2725 213 2448 61 
Q 2172 -91 1784 -91 
Q 1150 -91 751 415 
Q 353 922 353 1747 
Q 353 2572 751 3078 
Q 1150 3584 1784 3584 
Q 2172 3584 2448 3432 
Q 2725 3281 2906 2969 
z
M 947 1747 
Q 947 1113 1208 752 
Q 1469 391 1925 391 
Q 2381 391 2643 752 
Q 2906 1113 2906 1747 
Q 2906 2381 2643 2742 
Q 2381 3103 1925 3103 
Q 1469 3103 1208 2742 
Q 947 2381 947 1747 
z
" id="DejaVuSans-64" transform="scale(0.015625)"/>
      </defs>
      <use xlink:href="#DejaVuSans-52"/>
      <use x="64.982422" xlink:href="#DejaVuSans-65"/>
      <use x="126.505859" xlink:href="#DejaVuSans-62"/>
      <use x="189.982422" xlink:href="#DejaVuSans-61"/>
      <use x="251.261719" xlink:href="#DejaVuSans-6c"/>
      <use x="279.044922" xlink:href="#DejaVuSans-61"/>
      <use x="340.324219" xlink:href="#DejaVuSans-6e"/>
      <use x="403.703125" xlink:href="#DejaVuSans-63"/>
      <use x="458.683594" xlink:href="#DejaVuSans-65"/>
      <use x="520.207031" xlink:href="#DejaVuSans-20"/>
      <use x="551.994141" xlink:href="#DejaVuSans-50"/>
      <use x="608.671875" xlink:href="#DejaVuSans-65"/>
      <use x="670.195312" xlink:href="#DejaVuSans-72"/>
      <use x="711.308594" xlink:href="#DejaVuSans-69"/>
      <use x="739.091797" xlink:href="#DejaVuSans-6f"/>
      <use x="800.273438" xlink:href="#DejaVuSans-64"/>
     </g>
    </g>
   </g>
   <g id="matplotlib.axis_2">
    <g id="ytick_1">
     <g id="line2d_9">
      <defs>
       <path d="M 0 0 
L -3.5 0 
" id="md522ea5aa7" style="stroke:#000000;stroke-width:0.8;"/>
      </defs>
      <g>
       <use style="stroke:#000000;stroke-width:0.8;" x="54" xlink:href="#md522ea5aa7" y="189"/>
      </g>
     </g>
     <g id="text_10">
      <!-- 0.0 -->
      <g transform="translate(31.096875 192.799219)scale(0.1 -0.1)">
       <use xlink:href="#DejaVuSans-30"/>
       <use x="63.623047" xlink:href="#DejaVuSans-2e"/>
       <use x="95.410156" xlink:href="#DejaVuSans-30"/>
      </g>
     </g>
    </g>
    <g id="ytick_2">
     <g id="line2d_10">
      <g>
       <use style="stroke:#000000;stroke-width:0.8;" x="54" xlink:href="#md522ea5aa7" y="157.937143"/>
      </g>
     </g>
     <g id="text_11">
      <!-- 0.2 -->
      <g transform="translate(31.096875 161.736362)scale(0.1 -0.1)">
       <use xlink:href="#DejaVuSans-30"/>
       <use x="63.623047" xlink:href="#DejaVuSans-2e"/>
       <use x="95.410156" xlink:href="#DejaVuSans-32"/>
      </g>
     </g>
    </g>
    <g id="ytick_3">
     <g id="line2d_11">
      <g>
       <use style="stroke:#000000;stroke-width:0.8;" x="54" xlink:href="#md522ea5aa7" y="126.874286"/>
      </g>
     </g>
     <g id="text_12">
      <!-- 0.4 -->
      <g transform="translate(31.096875 130.673504)scale(0.1 -0.1)">
       <defs>
        <path d="M 2419 4116 
L 825 1625 
L 2419 1625 
L 2419 4116 
z
M 2253 4666 
L 3047 4666 
L 3047 1625 
L 3713 1625 
L 3713 1100 
L 3047 1100 
L 3047 0 
L 2419 0 
L 2419 1100 
L 313 1100 
L 313 1709 
L 2253 4666 
z
" id="DejaVuSans-34" transform="scale(0.015625)"/>
       </defs>
       <use xlink:href="#DejaVuSans-30"/>
       <use x="63.623047" xlink:href="#DejaVuSans-2e"/>
       <use x="95.410156" xlink:href="#DejaVuSans-34"/>
      </g>
     </g>
    </g>
    <g id="ytick_4">
     <g id="line2d_12">
      <g>
       <use style="stroke:#000000;stroke-width:0.8;" x="54" xlink:href="#md522ea5aa7" y="95.811429"/>
      </g>
     </g>
     <g id="text_13">
      <!-- 0.6 -->
      <g transform="translate(31.096875 99.610647)scale(0.1 -0.1)">
       <defs>
        <path d="M 2113 2584 
Q 1688 2584 1439 2293 
Q 1191 2003 1191 1497 
Q 1191 994 1439 701 
Q 1688 409 2113 409 
Q 2538 409 2786 701 
Q 3034 994 3034 1497 
Q 3034 2003 2786 2293 
Q 2538 2584 2113 2584 
z
M 3366 4563 
L 3366 3988 
Q 3128 4100 2886 4159 
Q 2644 4219 2406 4219 
Q 1781 4219 1451 3797 
Q 1122 3375 1075 2522 
Q 1259 2794 1537 2939 
Q 1816 3084 2150 3084 
Q 2853 3084 3261 2657 
Q 3669 2231 3669 1497 
Q 3669 778 3244 343 
Q 2819 -91 2113 -91 
Q 1303 -91 875 529 
Q 447 1150 447 2328 
Q 447 3434 972 4092 
Q 1497 4750 2381 4750 
Q 2619 4750 2861 4703 
Q 3103 4656 3366 4563 
z
" id="DejaVuSans-36" transform="scale(0.015625)"/>
       </defs>
       <use xlink:href="#DejaVuSans-30"/>
       <use x="63.623047" xlink:href="#DejaVuSans-2e"/>
       <use x="95.410156" xlink:href="#DejaVuSans-36"/>
      </g>
     </g>
    </g>
    <g id="ytick_5">
     <g id="line2d_13">
      <g>
       <use style="stroke:#000000;stroke-width:0.8;" x="54" xlink:href="#md522ea5aa7" y="64.748571"/>
      </g>
     </g>
     <g id="text_14">
      <!-- 0.8 -->
      <g transform="translate(31.096875 68.54779)scale(0.1 -0.1)">
       <defs>
        <path d="M 2034 2216 
Q 1584 2216 1326 1975 
Q 1069 1734 1069 1313 
Q 1069 891 1326 650 
Q 1584 409 2034 409 
Q 2484 409 2743 651 
Q 3003 894 3003 1313 
Q 3003 1734 2745 1975 
Q 2488 2216 2034 2216 
z
M 1403 2484 
Q 997 2584 770 2862 
Q 544 3141 544 3541 
Q 544 4100 942 4425 
Q 1341 4750 2034 4750 
Q 2731 4750 3128 4425 
Q 3525 4100 3525 3541 
Q 3525 3141 3298 2862 
Q 3072 2584 2669 2484 
Q 3125 2378 3379 2068 
Q 3634 1759 3634 1313 
Q 3634 634 3220 271 
Q 2806 -91 2034 -91 
Q 1263 -91 848 271 
Q 434 634 434 1313 
Q 434 1759 690 2068 
Q 947 2378 1403 2484 
z
M 1172 3481 
Q 1172 3119 1398 2916 
Q 1625 2713 2034 2713 
Q 2441 2713 2670 2916 
Q 2900 3119 2900 3481 
Q 2900 3844 2670 4047 
Q 2441 4250 2034 4250 
Q 1625 4250 1398 4047 
Q 1172 3844 1172 3481 
z
" id="DejaVuSans-38" transform="scale(0.015625)"/>
       </defs>
       <use xlink:href="#DejaVuSans-30"/>
       <use x="63.623047" xlink:href="#DejaVuSans-2e"/>
       <use x="95.410156" xlink:href="#DejaVuSans-38"/>
      </g>
     </g>
    </g>
    <g id="ytick_6">
     <g id="line2d_14">
      <g>
       <use style="stroke:#000000;stroke-width:0.8;" x="54" xlink:href="#md522ea5aa7" y="33.685714"/>
      </g>
     </g>
     <g id="text_15">
      <!-- 1.0 -->
      <g transform="translate(31.096875 37.484933)scale(0.1 -0.1)">
       <use xlink:href="#DejaVuSans-31"/>
       <use x="63.623047" xlink:href="#DejaVuSans-2e"/>
       <use x="95.410156" xlink:href="#DejaVuSans-30"/>
      </g>
     </g>
    </g>
    <g id="text_16">
     <!-- Weights -->
     <g transform="translate(25.017187 127.483437)rotate(-90)scale(0.1 -0.1)">
      <defs>
       <path d="M 213 4666 
L 850 4666 
L 1831 722 
L 2809 4666 
L 3519 4666 
L 4500 722 
L 5478 4666 
L 6119 4666 
L 4947 0 
L 4153 0 
L 3169 4050 
L 2175 0 
L 1381 0 
L 213 4666 
z
" id="DejaVuSans-57" transform="scale(0.015625)"/>
       <path d="M 2906 1791 
Q 2906 2416 2648 2759 
Q 2391 3103 1925 3103 
Q 1463 3103 1205 2759 
Q 947 2416 947 1791 
Q 947 1169 1205 825 
Q 1463 481 1925 481 
Q 2391 481 2648 825 
Q 2906 1169 2906 1791 
z
M 3481 434 
Q 3481 -459 3084 -895 
Q 2688 -1331 1869 -1331 
Q 1566 -1331 1297 -1286 
Q 1028 -1241 775 -1147 
L 775 -588 
Q 1028 -725 1275 -790 
Q 1522 -856 1778 -856 
Q 2344 -856 2625 -561 
Q 2906 -266 2906 331 
L 2906 616 
Q 2728 306 2450 153 
Q 2172 0 1784 0 
Q 1141 0 747 490 
Q 353 981 353 1791 
Q 353 2603 747 3093 
Q 1141 3584 1784 3584 
Q 2172 3584 2450 3431 
Q 2728 3278 2906 2969 
L 2906 3500 
L 3481 3500 
L 3481 434 
z
" id="DejaVuSans-67" transform="scale(0.015625)"/>
       <path d="M 3513 2113 
L 3513 0 
L 2938 0 
L 2938 2094 
Q 2938 2591 2744 2837 
Q 2550 3084 2163 3084 
Q 1697 3084 1428 2787 
Q 1159 2491 1159 1978 
L 1159 0 
L 581 0 
L 581 4863 
L 1159 4863 
L 1159 2956 
Q 1366 3272 1645 3428 
Q 1925 3584 2291 3584 
Q 2894 3584 3203 3211 
Q 3513 2838 3513 2113 
z
" id="DejaVuSans-68" transform="scale(0.015625)"/>
       <path d="M 1172 4494 
L 1172 3500 
L 2356 3500 
L 2356 3053 
L 1172 3053 
L 1172 1153 
Q 1172 725 1289 603 
Q 1406 481 1766 481 
L 2356 481 
L 2356 0 
L 1766 0 
Q 1100 0 847 248 
Q 594 497 594 1153 
L 594 3053 
L 172 3053 
L 172 3500 
L 594 3500 
L 594 4494 
L 1172 4494 
z
" id="DejaVuSans-74" transform="scale(0.015625)"/>
       <path d="M 2834 3397 
L 2834 2853 
Q 2591 2978 2328 3040 
Q 2066 3103 1784 3103 
Q 1356 3103 1142 2972 
Q 928 2841 928 2578 
Q 928 2378 1081 2264 
Q 1234 2150 1697 2047 
L 1894 2003 
Q 2506 1872 2764 1633 
Q 3022 1394 3022 966 
Q 3022 478 2636 193 
Q 2250 -91 1575 -91 
Q 1294 -91 989 -36 
Q 684 19 347 128 
L 347 722 
Q 666 556 975 473 
Q 1284 391 1588 391 
Q 1994 391 2212 530 
Q 2431 669 2431 922 
Q 2431 1156 2273 1281 
Q 2116 1406 1581 1522 
L 1381 1569 
Q 847 1681 609 1914 
Q 372 2147 372 2553 
Q 372 3047 722 3315 
Q 1072 3584 1716 3584 
Q 2034 3584 2315 3537 
Q 2597 3491 2834 3397 
z
" id="DejaVuSans-73" transform="scale(0.015625)"/>
      </defs>
      <use xlink:href="#DejaVuSans-57"/>
      <use x="93.001953" xlink:href="#DejaVuSans-65"/>
      <use x="154.525391" xlink:href="#DejaVuSans-69"/>
      <use x="182.308594" xlink:href="#DejaVuSans-67"/>
      <use x="245.785156" xlink:href="#DejaVuSans-68"/>
      <use x="309.164062" xlink:href="#DejaVuSans-74"/>
      <use x="348.373047" xlink:href="#DejaVuSans-73"/>
     </g>
    </g>
   </g>
   <g id="line2d_15">
    <path clip-path="url(#pfde6848a6d)" d="M 69.218182 177.983553 
L 85.237321 177.534285 
L 101.256459 178.128434 
L 117.275598 179.156917 
L 133.294737 179.033317 
L 149.313876 178.895154 
L 165.333014 178.718446 
L 181.352153 178.655762 
L 197.371292 178.471288 
L 213.390431 178.572944 
L 229.409569 178.546895 
L 245.428708 178.645714 
L 261.447847 178.645714 
L 277.466986 178.645714 
L 293.486124 178.786495 
L 309.505263 178.536162 
L 325.524402 178.748629 
L 341.543541 178.18421 
L 357.562679 178.071189 
L 373.581818 178.206775 
" style="fill:none;stroke:#1f77b4;stroke-linecap:square;stroke-width:1.5;"/>
   </g>
   <g id="line2d_16">
    <path clip-path="url(#pfde6848a6d)" d="M 69.218182 166.402497 
L 85.237321 165.369347 
L 101.256459 165.921626 
L 117.275598 167.0588 
L 133.294737 167.588613 
L 149.313876 167.112771 
L 165.333014 167.406557 
L 181.352153 167.771839 
L 197.371292 167.307821 
L 213.390431 168.00728 
L 229.409569 168.178183 
L 245.428708 168.291429 
L 261.447847 168.291428 
L 277.466986 168.291428 
L 293.486124 168.752015 
L 309.505263 168.373197 
L 325.524402 168.682779 
L 341.543541 167.539921 
L 357.562679 167.529377 
L 373.581818 167.764867 
" style="fill:none;stroke:#ff7f0e;stroke-linecap:square;stroke-width:1.5;"/>
   </g>
   <g id="line2d_17">
    <path clip-path="url(#pfde6848a6d)" d="M 69.218182 156.274164 
L 85.237321 155.692733 
L 101.256459 156.269507 
L 117.275598 157.424673 
L 133.294737 157.678747 
L 149.313876 156.998699 
L 165.333014 157.214879 
L 181.352153 157.293928 
L 197.371292 156.859256 
L 213.390431 157.561714 
L 229.409569 157.799507 
L 245.428708 157.937143 
L 261.447847 157.937142 
L 277.466986 157.937142 
L 293.486124 158.430877 
L 309.505263 158.244333 
L 325.524402 158.379494 
L 341.543541 157.007586 
L 357.562679 156.640388 
L 373.581818 157.052354 
" style="fill:none;stroke:#2ca02c;stroke-linecap:square;stroke-width:1.5;"/>
   </g>
   <g id="line2d_18">
    <path clip-path="url(#pfde6848a6d)" d="M 69.218182 145.561738 
L 85.237321 144.470934 
L 101.256459 146.241176 
L 117.275598 147.482389 
L 133.294737 147.905769 
L 149.313876 147.684369 
L 165.333014 147.695384 
L 181.352153 147.36733 
L 197.371292 146.530184 
L 213.390431 147.20764 
L 229.409569 147.313252 
L 245.428708 147.582857 
L 261.447847 147.582857 
L 277.466986 147.582856 
L 293.486124 147.636988 
L 309.505263 147.200895 
L 325.524402 147.040033 
L 341.543541 146.523546 
L 357.562679 145.351367 
L 373.581818 146.246414 
" style="fill:none;stroke:#d62728;stroke-linecap:square;stroke-width:1.5;"/>
   </g>
   <g id="line2d_19">
    <path clip-path="url(#pfde6848a6d)" d="M 69.218182 136.137934 
L 85.237321 135.562848 
L 101.256459 137.000345 
L 117.275598 137.432462 
L 133.294737 138.725532 
L 149.313876 138.786493 
L 165.333014 138.552044 
L 181.352153 137.88512 
L 197.371292 137.024855 
L 213.390431 137.136955 
L 229.409569 137.003012 
L 245.428708 137.228571 
L 261.447847 137.228571 
L 277.466986 137.22857 
L 293.486124 136.966858 
L 309.505263 136.643057 
L 325.524402 136.164638 
L 341.543541 136.590775 
L 357.562679 135.623014 
L 373.581818 135.746737 
" style="fill:none;stroke:#9467bd;stroke-linecap:square;stroke-width:1.5;"/>
   </g>
   <g id="line2d_20">
    <path clip-path="url(#pfde6848a6d)" d="M 69.218182 125.254363 
L 85.237321 124.526502 
L 101.256459 126.681326 
L 117.275598 127.870098 
L 133.294737 129.49535 
L 149.313876 129.280644 
L 165.333014 128.886228 
L 181.352153 127.803877 
L 197.371292 126.948694 
L 213.390431 126.877801 
L 229.409569 126.689812 
L 245.428708 126.874286 
L 261.447847 126.874285 
L 277.466986 126.874285 
L 293.486124 126.617 
L 309.505263 126.210049 
L 325.524402 125.401767 
L 341.543541 126.144876 
L 357.562679 125.323393 
L 373.581818 125.210573 
" style="fill:none;stroke:#8c564b;stroke-linecap:square;stroke-width:1.5;"/>
   </g>
   <g id="line2d_21">
    <path clip-path="url(#pfde6848a6d)" d="M 69.218182 115.501889 
L 85.237321 115.689268 
L 101.256459 118.351477 
L 117.275598 119.557247 
L 133.294737 120.351582 
L 149.313876 119.964818 
L 165.333014 119.371469 
L 181.352153 117.904314 
L 197.371292 117.004496 
L 213.390431 116.623134 
L 229.409569 116.353876 
L 245.428708 116.52 
L 261.447847 116.52 
L 277.466986 116.519999 
L 293.486124 116.231082 
L 309.505263 115.988192 
L 325.524402 115.433684 
L 341.543541 116.169848 
L 357.562679 115.509965 
L 373.581818 115.552012 
" style="fill:none;stroke:#e377c2;stroke-linecap:square;stroke-width:1.5;"/>
   </g>
   <g id="line2d_22">
    <path clip-path="url(#pfde6848a6d)" d="M 69.218182 105.023992 
L 85.237321 104.936716 
L 101.256459 107.743212 
L 117.275598 108.87032 
L 133.294737 109.659497 
L 149.313876 109.257984 
L 165.333014 108.359395 
L 181.352153 107.352861 
L 197.371292 106.227838 
L 213.390431 106.097295 
L 229.409569 105.880169 
L 245.428708 106.165714 
L 261.447847 106.165714 
L 277.466986 106.165713 
L 293.486124 105.501338 
L 309.505263 105.08871 
L 325.524402 104.459204 
L 341.543541 105.832062 
L 357.562679 105.197311 
L 373.581818 104.99263 
" style="fill:none;stroke:#7f7f7f;stroke-linecap:square;stroke-width:1.5;"/>
   </g>
   <g id="line2d_23">
    <path clip-path="url(#pfde6848a6d)" d="M 69.218182 94.228693 
L 85.237321 94.164031 
L 101.256459 97.583712 
L 117.275598 98.908618 
L 133.294737 99.709727 
L 149.313876 99.357874 
L 165.333014 98.382935 
L 181.352153 97.22718 
L 197.371292 96.125889 
L 213.390431 95.89978 
L 229.409569 95.594464 
L 245.428708 95.811429 
L 261.447847 95.811428 
L 277.466986 95.811428 
L 293.486124 95.23909 
L 309.505263 94.745926 
L 325.524402 94.001231 
L 341.543541 95.075818 
L 357.562679 93.659221 
L 373.581818 93.562556 
" style="fill:none;stroke:#bcbd22;stroke-linecap:square;stroke-width:1.5;"/>
   </g>
   <g id="line2d_24">
    <path clip-path="url(#pfde6848a6d)" d="M 69.218182 84.046834 
L 85.237321 83.929509 
L 101.256459 86.698692 
L 117.275598 87.392201 
L 133.294737 88.638162 
L 149.313876 88.615629 
L 165.333014 87.742009 
L 181.352153 86.625725 
L 197.371292 85.72793 
L 213.390431 85.589707 
L 229.409569 85.318386 
L 245.428708 85.457143 
L 261.447847 85.457143 
L 277.466986 85.457142 
L 293.486124 84.978473 
L 309.505263 84.621593 
L 325.524402 83.721663 
L 341.543541 84.381587 
L 357.562679 83.093154 
L 373.581818 83.102957 
" style="fill:none;stroke:#17becf;stroke-linecap:square;stroke-width:1.5;"/>
   </g>
   <g id="line2d_25">
    <path clip-path="url(#pfde6848a6d)" d="M 69.218182 74.650028 
L 85.237321 74.789123 
L 101.256459 77.508792 
L 117.275598 77.206346 
L 133.294737 77.987039 
L 149.313876 78.382855 
L 165.333014 77.137629 
L 181.352153 76.131551 
L 197.371292 75.668597 
L 213.390431 75.374741 
L 229.409569 75.035453 
L 245.428708 75.102857 
L 261.447847 75.102857 
L 277.466986 75.102857 
L 293.486124 74.525693 
L 309.505263 74.319202 
L 325.524402 73.669516 
L 341.543541 74.349758 
L 357.562679 73.682292 
L 373.581818 73.748447 
" style="fill:none;stroke:#1f77b4;stroke-linecap:square;stroke-width:1.5;"/>
   </g>
   <g id="line2d_26">
    <path clip-path="url(#pfde6848a6d)" d="M 69.218182 64.608088 
L 85.237321 64.512786 
L 101.256459 67.063408 
L 117.275598 66.543903 
L 133.294737 66.923137 
L 149.313876 67.568541 
L 165.333014 66.426588 
L 181.352153 65.525174 
L 197.371292 65.064218 
L 213.390431 64.901254 
L 229.409569 64.694122 
L 245.428708 64.748571 
L 261.447847 64.748571 
L 277.466986 64.748571 
L 293.486124 64.163241 
L 309.505263 63.99718 
L 325.524402 63.610517 
L 341.543541 64.204052 
L 357.562679 63.423941 
L 373.581818 63.633256 
" style="fill:none;stroke:#ff7f0e;stroke-linecap:square;stroke-width:1.5;"/>
   </g>
   <g id="line2d_27">
    <path clip-path="url(#pfde6848a6d)" d="M 69.218182 54.955624 
L 85.237321 55.944246 
L 101.256459 58.095968 
L 117.275598 57.375811 
L 133.294737 56.80926 
L 149.313876 56.694876 
L 165.333014 55.83209 
L 181.352153 55.07872 
L 197.371292 54.700037 
L 213.390431 54.369057 
L 229.409569 54.305033 
L 245.428708 54.394286 
L 261.447847 54.394286 
L 277.466986 54.394285 
L 293.486124 53.642239 
L 309.505263 53.665721 
L 325.524402 52.622334 
L 341.543541 52.847421 
L 357.562679 51.894177 
L 373.581818 52.461902 
" style="fill:none;stroke:#2ca02c;stroke-linecap:square;stroke-width:1.5;"/>
   </g>
   <g id="line2d_28">
    <path clip-path="url(#pfde6848a6d)" d="M 69.218182 43.741974 
L 85.237321 43.940369 
L 101.256459 44.844124 
L 117.275598 44.048443 
L 133.294737 44.711826 
L 149.313876 44.818479 
L 165.333014 44.823805 
L 181.352153 44.400014 
L 197.371292 44.068903 
L 213.390431 44.085098 
L 229.409569 43.973517 
L 245.428708 44.04 
L 261.447847 44.04 
L 277.466986 44.04 
L 293.486124 43.878835 
L 309.505263 43.728632 
L 325.524402 43.383685 
L 341.543541 43.35561 
L 357.562679 43.336596 
L 373.581818 43.691723 
" style="fill:none;stroke:#d62728;stroke-linecap:square;stroke-width:1.5;"/>
   </g>
   <g id="line2d_29">
    <path clip-path="url(#pfde6848a6d)" d="M 69.218182 33.685714 
L 85.237321 33.685714 
L 101.256459 33.685714 
L 117.275598 33.685714 
L 133.294737 33.685714 
L 149.313876 33.685714 
L 165.333014 33.685714 
L 181.352153 33.685714 
L 197.371292 33.685714 
L 213.390431 33.685714 
L 229.409569 33.685714 
L 245.428708 33.685714 
L 261.447847 33.685714 
L 277.466986 33.685714 
L 293.486124 33.685714 
L 309.505263 33.685714 
L 325.524402 33.685714 
L 341.543541 33.685714 
L 357.562679 33.685714 
L 373.581818 33.685714 
" style="fill:none;stroke:#9467bd;stroke-linecap:square;stroke-width:1.5;"/>
   </g>
   <g id="patch_3">
    <path d="M 54 189 
L 54 25.92 
" style="fill:none;stroke:#000000;stroke-linecap:square;stroke-linejoin:miter;stroke-width:0.8;"/>
   </g>
   <g id="patch_4">
    <path d="M 388.8 189 
L 388.8 25.92 
" style="fill:none;stroke:#000000;stroke-linecap:square;stroke-linejoin:miter;stroke-width:0.8;"/>
   </g>
   <g id="patch_5">
    <path d="M 54 189 
L 388.8 189 
" style="fill:none;stroke:#000000;stroke-linecap:square;stroke-linejoin:miter;stroke-width:0.8;"/>
   </g>
   <g id="patch_6">
    <path d="M 54 25.92 
L 388.8 25.92 
" style="fill:none;stroke:#000000;stroke-linecap:square;stroke-linejoin:miter;stroke-width:0.8;"/>
   </g>
   <g id="text_17">
    <!-- Portfolio weights -->
    <g transform="translate(171.459375 19.92)scale(0.12 -0.12)">
     <defs>
      <path d="M 2375 4863 
L 2375 4384 
L 1825 4384 
Q 1516 4384 1395 4259 
Q 1275 4134 1275 3809 
L 1275 3500 
L 2222 3500 
L 2222 3053 
L 1275 3053 
L 1275 0 
L 697 0 
L 697 3053 
L 147 3053 
L 147 3500 
L 697 3500 
L 697 3744 
Q 697 4328 969 4595 
Q 1241 4863 1831 4863 
L 2375 4863 
z
" id="DejaVuSans-66" transform="scale(0.015625)"/>
      <path d="M 269 3500 
L 844 3500 
L 1563 769 
L 2278 3500 
L 2956 3500 
L 3675 769 
L 4391 3500 
L 4966 3500 
L 4050 0 
L 3372 0 
L 2619 2869 
L 1863 0 
L 1184 0 
L 269 3500 
z
" id="DejaVuSans-77" transform="scale(0.015625)"/>
     </defs>
     <use xlink:href="#DejaVuSans-50"/>
     <use x="56.677734" xlink:href="#DejaVuSans-6f"/>
     <use x="117.859375" xlink:href="#DejaVuSans-72"/>
     <use x="158.972656" xlink:href="#DejaVuSans-74"/>
     <use x="198.181641" xlink:href="#DejaVuSans-66"/>
     <use x="233.386719" xlink:href="#DejaVuSans-6f"/>
     <use x="294.568359" xlink:href="#DejaVuSans-6c"/>
     <use x="322.351562" xlink:href="#DejaVuSans-69"/>
     <use x="350.134766" xlink:href="#DejaVuSans-6f"/>
     <use x="411.316406" xlink:href="#DejaVuSans-20"/>
     <use x="443.103516" xlink:href="#DejaVuSans-77"/>
     <use x="524.890625" xlink:href="#DejaVuSans-65"/>
     <use x="586.414062" xlink:href="#DejaVuSans-69"/>
     <use x="614.197266" xlink:href="#DejaVuSans-67"/>
     <use x="677.673828" xlink:href="#DejaVuSans-68"/>
     <use x="741.052734" xlink:href="#DejaVuSans-74"/>
     <use x="780.261719" xlink:href="#DejaVuSans-73"/>
    </g>
   </g>
   <g id="legend_1">
    <g id="patch_7">
     <path d="M 395.8 219.045937 
L 440.525 219.045937 
Q 442.525 219.045937 442.525 217.045937 
L 442.525 -2.125937 
Q 442.525 -4.125937 440.525 -4.125937 
L 395.8 -4.125937 
Q 393.8 -4.125937 393.8 -2.125937 
L 393.8 217.045937 
Q 393.8 219.045937 395.8 219.045937 
z
" style="fill:#ffffff;opacity:0.8;stroke:#cccccc;stroke-linejoin:miter;"/>
    </g>
    <g id="patch_8">
     <path d="M 397.8 7.4725 
L 417.8 7.4725 
L 417.8 0.4725 
L 397.8 0.4725 
z
" style="fill:#1f77b4;stroke:#1f77b4;stroke-linejoin:miter;"/>
    </g>
    <g id="text_18">
     <!-- 1 -->
     <g transform="translate(425.8 7.4725)scale(0.1 -0.1)">
      <use xlink:href="#DejaVuSans-31"/>
     </g>
    </g>
    <g id="patch_9">
     <path d="M 397.8 22.150625 
L 417.8 22.150625 
L 417.8 15.150625 
L 397.8 15.150625 
z
" style="fill:#ff7f0e;stroke:#ff7f0e;stroke-linejoin:miter;"/>
    </g>
    <g id="text_19">
     <!-- 2 -->
     <g transform="translate(425.8 22.150625)scale(0.1 -0.1)">
      <use xlink:href="#DejaVuSans-32"/>
     </g>
    </g>
    <g id="patch_10">
     <path d="M 397.8 36.82875 
L 417.8 36.82875 
L 417.8 29.82875 
L 397.8 29.82875 
z
" style="fill:#2ca02c;stroke:#2ca02c;stroke-linejoin:miter;"/>
    </g>
    <g id="text_20">
     <!-- 3 -->
     <g transform="translate(425.8 36.82875)scale(0.1 -0.1)">
      <defs>
       <path d="M 2597 2516 
Q 3050 2419 3304 2112 
Q 3559 1806 3559 1356 
Q 3559 666 3084 287 
Q 2609 -91 1734 -91 
Q 1441 -91 1130 -33 
Q 819 25 488 141 
L 488 750 
Q 750 597 1062 519 
Q 1375 441 1716 441 
Q 2309 441 2620 675 
Q 2931 909 2931 1356 
Q 2931 1769 2642 2001 
Q 2353 2234 1838 2234 
L 1294 2234 
L 1294 2753 
L 1863 2753 
Q 2328 2753 2575 2939 
Q 2822 3125 2822 3475 
Q 2822 3834 2567 4026 
Q 2313 4219 1838 4219 
Q 1578 4219 1281 4162 
Q 984 4106 628 3988 
L 628 4550 
Q 988 4650 1302 4700 
Q 1616 4750 1894 4750 
Q 2613 4750 3031 4423 
Q 3450 4097 3450 3541 
Q 3450 3153 3228 2886 
Q 3006 2619 2597 2516 
z
" id="DejaVuSans-33" transform="scale(0.015625)"/>
      </defs>
      <use xlink:href="#DejaVuSans-33"/>
     </g>
    </g>
    <g id="patch_11">
     <path d="M 397.8 51.506875 
L 417.8 51.506875 
L 417.8 44.506875 
L 397.8 44.506875 
z
" style="fill:#d62728;stroke:#d62728;stroke-linejoin:miter;"/>
    </g>
    <g id="text_21">
     <!-- 4 -->
     <g transform="translate(425.8 51.506875)scale(0.1 -0.1)">
      <use xlink:href="#DejaVuSans-34"/>
     </g>
    </g>
    <g id="patch_12">
     <path d="M 397.8 66.185 
L 417.8 66.185 
L 417.8 59.185 
L 397.8 59.185 
z
" style="fill:#9467bd;stroke:#9467bd;stroke-linejoin:miter;"/>
    </g>
    <g id="text_22">
     <!-- 5 -->
     <g transform="translate(425.8 66.185)scale(0.1 -0.1)">
      <use xlink:href="#DejaVuSans-35"/>
     </g>
    </g>
    <g id="patch_13">
     <path d="M 397.8 80.863125 
L 417.8 80.863125 
L 417.8 73.863125 
L 397.8 73.863125 
z
" style="fill:#8c564b;stroke:#8c564b;stroke-linejoin:miter;"/>
    </g>
    <g id="text_23">
     <!-- 6 -->
     <g transform="translate(425.8 80.863125)scale(0.1 -0.1)">
      <use xlink:href="#DejaVuSans-36"/>
     </g>
    </g>
    <g id="patch_14">
     <path d="M 397.8 95.54125 
L 417.8 95.54125 
L 417.8 88.54125 
L 397.8 88.54125 
z
" style="fill:#e377c2;stroke:#e377c2;stroke-linejoin:miter;"/>
    </g>
    <g id="text_24">
     <!-- 7 -->
     <g transform="translate(425.8 95.54125)scale(0.1 -0.1)">
      <use xlink:href="#DejaVuSans-37"/>
     </g>
    </g>
    <g id="patch_15">
     <path d="M 397.8 110.219375 
L 417.8 110.219375 
L 417.8 103.219375 
L 397.8 103.219375 
z
" style="fill:#7f7f7f;stroke:#7f7f7f;stroke-linejoin:miter;"/>
    </g>
    <g id="text_25">
     <!-- 8 -->
     <g transform="translate(425.8 110.219375)scale(0.1 -0.1)">
      <use xlink:href="#DejaVuSans-38"/>
     </g>
    </g>
    <g id="patch_16">
     <path d="M 397.8 124.8975 
L 417.8 124.8975 
L 417.8 117.8975 
L 397.8 117.8975 
z
" style="fill:#bcbd22;stroke:#bcbd22;stroke-linejoin:miter;"/>
    </g>
    <g id="text_26">
     <!-- 9 -->
     <g transform="translate(425.8 124.8975)scale(0.1 -0.1)">
      <defs>
       <path d="M 703 97 
L 703 672 
Q 941 559 1184 500 
Q 1428 441 1663 441 
Q 2288 441 2617 861 
Q 2947 1281 2994 2138 
Q 2813 1869 2534 1725 
Q 2256 1581 1919 1581 
Q 1219 1581 811 2004 
Q 403 2428 403 3163 
Q 403 3881 828 4315 
Q 1253 4750 1959 4750 
Q 2769 4750 3195 4129 
Q 3622 3509 3622 2328 
Q 3622 1225 3098 567 
Q 2575 -91 1691 -91 
Q 1453 -91 1209 -44 
Q 966 3 703 97 
z
M 1959 2075 
Q 2384 2075 2632 2365 
Q 2881 2656 2881 3163 
Q 2881 3666 2632 3958 
Q 2384 4250 1959 4250 
Q 1534 4250 1286 3958 
Q 1038 3666 1038 3163 
Q 1038 2656 1286 2365 
Q 1534 2075 1959 2075 
z
" id="DejaVuSans-39" transform="scale(0.015625)"/>
      </defs>
      <use xlink:href="#DejaVuSans-39"/>
     </g>
    </g>
    <g id="patch_17">
     <path d="M 397.8 139.575625 
L 417.8 139.575625 
L 417.8 132.575625 
L 397.8 132.575625 
z
" style="fill:#17becf;stroke:#17becf;stroke-linejoin:miter;"/>
    </g>
    <g id="text_27">
     <!-- 10 -->
     <g transform="translate(425.8 139.575625)scale(0.1 -0.1)">
      <use xlink:href="#DejaVuSans-31"/>
      <use x="63.623047" xlink:href="#DejaVuSans-30"/>
     </g>
    </g>
    <g id="patch_18">
     <path d="M 397.8 154.25375 
L 417.8 154.25375 
L 417.8 147.25375 
L 397.8 147.25375 
z
" style="fill:#1f77b4;stroke:#1f77b4;stroke-linejoin:miter;"/>
    </g>
    <g id="text_28">
     <!-- 11 -->
     <g transform="translate(425.8 154.25375)scale(0.1 -0.1)">
      <use xlink:href="#DejaVuSans-31"/>
      <use x="63.623047" xlink:href="#DejaVuSans-31"/>
     </g>
    </g>
    <g id="patch_19">
     <path d="M 397.8 168.931875 
L 417.8 168.931875 
L 417.8 161.931875 
L 397.8 161.931875 
z
" style="fill:#ff7f0e;stroke:#ff7f0e;stroke-linejoin:miter;"/>
    </g>
    <g id="text_29">
     <!-- 12 -->
     <g transform="translate(425.8 168.931875)scale(0.1 -0.1)">
      <use xlink:href="#DejaVuSans-31"/>
      <use x="63.623047" xlink:href="#DejaVuSans-32"/>
     </g>
    </g>
    <g id="patch_20">
     <path d="M 397.8 183.61 
L 417.8 183.61 
L 417.8 176.61 
L 397.8 176.61 
z
" style="fill:#2ca02c;stroke:#2ca02c;stroke-linejoin:miter;"/>
    </g>
    <g id="text_30">
     <!-- 13 -->
     <g transform="translate(425.8 183.61)scale(0.1 -0.1)">
      <use xlink:href="#DejaVuSans-31"/>
      <use x="63.623047" xlink:href="#DejaVuSans-33"/>
     </g>
    </g>
    <g id="patch_21">
     <path d="M 397.8 198.288125 
L 417.8 198.288125 
L 417.8 191.288125 
L 397.8 191.288125 
z
" style="fill:#d62728;stroke:#d62728;stroke-linejoin:miter;"/>
    </g>
    <g id="text_31">
     <!-- 14 -->
     <g transform="translate(425.8 198.288125)scale(0.1 -0.1)">
      <use xlink:href="#DejaVuSans-31"/>
      <use x="63.623047" xlink:href="#DejaVuSans-34"/>
     </g>
    </g>
    <g id="patch_22">
     <path d="M 397.8 212.96625 
L 417.8 212.96625 
L 417.8 205.96625 
L 397.8 205.96625 
z
" style="fill:#9467bd;stroke:#9467bd;stroke-linejoin:miter;"/>
    </g>
    <g id="text_32">
     <!-- 15 -->
     <g transform="translate(425.8 212.96625)scale(0.1 -0.1)">
      <use xlink:href="#DejaVuSans-31"/>
      <use x="63.623047" xlink:href="#DejaVuSans-35"/>
     </g>
    </g>
   </g>
  </g>
 </g>
 <defs>
  <clipPath id="pfde6848a6d">
   <rect height="163.08" width="334.8" x="54" y="25.92"/>
  </clipPath>
 </defs>
</svg>
